<svg width="33" height="33" viewBox="0 0 33 33" fill="none" xmlns="http://www.w3.org/2000/svg">
<g filter="url(#filter0_d_2600_33474)">
<path d="M21.3332 2.66699H10.6665C5.33317 2.66699 2.6665 5.33366 2.6665 10.667V28.0003C2.6665 28.7337 3.2665 29.3337 3.99984 29.3337H21.3332C26.6665 29.3337 29.3332 26.667 29.3332 21.3337V10.667C29.3332 5.33366 26.6665 2.66699 21.3332 2.66699Z" fill="#FFFCEF"/>
<path d="M21.3332 2.66699H10.6665C5.33317 2.66699 2.6665 5.33366 2.6665 10.667V28.0003C2.6665 28.7337 3.2665 29.3337 3.99984 29.3337H21.3332C26.6665 29.3337 29.3332 26.667 29.3332 21.3337V10.667C29.3332 5.33366 26.6665 2.66699 21.3332 2.66699Z" stroke="#0D0D10" stroke-width="1.5" stroke-linecap="round" stroke-linejoin="round"/>
</g>
<path d="M9.33301 12.666H22.6663" stroke="#0D0D10" stroke-width="1.5" stroke-miterlimit="10" stroke-linecap="round" stroke-linejoin="round"/>
<path d="M9.33301 19.333H18.6663" stroke="#0D0D10" stroke-width="1.5" stroke-miterlimit="10" stroke-linecap="round" stroke-linejoin="round"/>
<defs>
<filter id="filter0_d_2600_33474" x="1.9165" y="1.91699" width="30.8332" height="30.8337" filterUnits="userSpaceOnUse" color-interpolation-filters="sRGB">
<feFlood flood-opacity="0" result="BackgroundImageFix"/>
<feColorMatrix in="SourceAlpha" type="matrix" values="0 0 0 0 0 0 0 0 0 0 0 0 0 0 0 0 0 0 127 0" result="hardAlpha"/>
<feOffset dx="2.66667" dy="2.66667"/>
<feComposite in2="hardAlpha" operator="out"/>
<feColorMatrix type="matrix" values="0 0 0 0 0 0 0 0 0 0 0 0 0 0 0 0 0 0 1 0"/>
<feBlend mode="normal" in2="BackgroundImageFix" result="effect1_dropShadow_2600_33474"/>
<feBlend mode="normal" in="SourceGraphic" in2="effect1_dropShadow_2600_33474" result="shape"/>
</filter>
</defs>
</svg>
