<svg width="41" height="33" viewBox="0 0 41 33" fill="none" xmlns="http://www.w3.org/2000/svg">
<path d="M21.4031 32.4181C19.6718 32.4181 18.1344 32.0151 16.7912 31.2091C15.4479 30.4032 14.4031 29.3136 13.6568 27.9405C12.9105 26.5673 12.5374 25.0449 12.5374 23.3733V8.37318C12.5374 7.68661 12.3732 7.07467 12.0449 6.53735C11.7165 5.97018 11.2687 5.52242 10.7016 5.19406C10.1642 4.8657 9.56722 4.70152 8.9105 4.70152C8.25378 4.70152 7.65676 4.8657 7.11945 5.19406C6.58213 5.52242 6.14929 5.97018 5.82093 6.53735C5.49257 7.07467 5.32839 7.68661 5.32839 8.37318V29.2166C5.32839 30.688 4.13559 31.8808 2.6642 31.8808V31.8808C1.1928 31.8808 0 30.688 0 29.2166V9.04483C0 7.34333 0.373137 5.82093 1.11941 4.47764C1.86568 3.10449 2.91047 2.01494 4.25376 1.20896C5.59705 0.402987 7.1493 0 8.9105 0C10.7016 0 12.2687 0.402987 13.612 1.20896C14.9553 2.01494 16.0001 3.10449 16.7464 4.47764C17.4926 5.82093 17.8658 7.34333 17.8658 9.04483V24.0449C17.8658 24.7315 18.03 25.3584 18.3583 25.9255C18.6867 26.4628 19.1195 26.8957 19.6568 27.224C20.1942 27.5524 20.7762 27.7166 21.4031 27.7166C22.0598 27.7166 22.6569 27.5524 23.1942 27.224C23.7315 26.8957 24.1494 26.4628 24.4479 25.9255C24.7763 25.3584 24.9405 24.7315 24.9405 24.0449V3.2239C24.9405 1.74014 26.1433 0.537315 27.627 0.537315V0.537315C29.1108 0.537315 30.3136 1.74014 30.3136 3.2239V23.3733C30.3136 25.0449 29.9405 26.5673 29.1942 27.9405C28.4479 29.3136 27.4032 30.4032 26.0599 31.2091C24.7464 32.0151 23.1942 32.4181 21.4031 32.4181Z" fill="#0D0D10"/>
<path d="M37.4618 32.3733C36.4767 32.3733 35.6259 32.03 34.9095 31.3435C34.2229 30.6271 33.8796 29.7763 33.8796 28.7912C33.8796 27.836 34.2229 27.0151 34.9095 26.3285C35.6259 25.6121 36.4767 25.2539 37.4618 25.2539C38.417 25.2539 39.2379 25.6121 39.9245 26.3285C40.6409 27.0151 40.9991 27.836 40.9991 28.7912C40.9991 29.4479 40.8349 30.0599 40.5065 30.6271C40.208 31.1644 39.7901 31.5823 39.2528 31.8808C38.7155 32.2092 38.1185 32.3733 37.4618 32.3733Z" fill="#0D0D10"/>
</svg>
