<svg width="32" height="33" viewBox="0 0 32 33" fill="none" xmlns="http://www.w3.org/2000/svg">
<g filter="url(#filter0_d_2600_33477)">
<path d="M20.0269 25.4141C20.0269 27.6141 18.2269 29.4141 16.0269 29.4141C14.9335 29.4141 13.9202 28.9607 13.2002 28.2407C12.4802 27.5207 12.0269 26.5074 12.0269 25.4141" fill="#FFFCEF"/>
<path d="M20.0269 25.4141C20.0269 27.6141 18.2269 29.4141 16.0269 29.4141C14.9335 29.4141 13.9202 28.9607 13.2002 28.2407C12.4802 27.5207 12.0269 26.5074 12.0269 25.4141" stroke="#0D0D10" stroke-width="1.33333" stroke-miterlimit="10"/>
<path d="M16.0268 3.87988C11.6135 3.87988 8.02678 7.46655 8.02678 11.8799V15.7332C8.02678 16.5466 7.68012 17.7866 7.26678 18.4799L5.73345 21.0266C4.78678 22.5999 5.44012 24.3466 7.17345 24.9332C12.9201 26.8532 19.1201 26.8532 24.8668 24.9332C26.4801 24.3999 27.1868 22.4932 26.3068 21.0266L24.7735 18.4799C24.3735 17.7866 24.0268 16.5466 24.0268 15.7332V11.8799C24.0268 7.47988 20.4268 3.87988 16.0268 3.87988Z" fill="#FFFCEF" stroke="#0D0D10" stroke-width="1.33333" stroke-miterlimit="10" stroke-linecap="round"/>
<path d="M18.4934 4.26691C18.0801 4.14691 17.6534 4.05358 17.2134 4.00025C15.9334 3.84025 14.7067 3.93358 13.5601 4.26691C13.9467 3.28025 14.9067 2.58691 16.0267 2.58691C17.1467 2.58691 18.1067 3.28025 18.4934 4.26691Z" stroke="#0D0D10" stroke-width="2" stroke-miterlimit="10" stroke-linecap="round" stroke-linejoin="round"/>
</g>
<defs>
<filter id="filter0_d_2600_33477" x="4.63184" y="1.58691" width="25.3903" height="30.4941" filterUnits="userSpaceOnUse" color-interpolation-filters="sRGB">
<feFlood flood-opacity="0" result="BackgroundImageFix"/>
<feColorMatrix in="SourceAlpha" type="matrix" values="0 0 0 0 0 0 0 0 0 0 0 0 0 0 0 0 0 0 127 0" result="hardAlpha"/>
<feOffset dx="2.66667" dy="2"/>
<feComposite in2="hardAlpha" operator="out"/>
<feColorMatrix type="matrix" values="0 0 0 0 0 0 0 0 0 0 0 0 0 0 0 0 0 0 1 0"/>
<feBlend mode="normal" in2="BackgroundImageFix" result="effect1_dropShadow_2600_33477"/>
<feBlend mode="normal" in="SourceGraphic" in2="effect1_dropShadow_2600_33477" result="shape"/>
</filter>
</defs>
</svg>
