<svg width="189" height="188" viewBox="0 0 189 188" fill="none" xmlns="http://www.w3.org/2000/svg">
<path d="M85.3502 6.74832C88.8576 -1.20505 100.142 -1.20503 103.65 6.74833L112.325 26.4213C114.62 31.6253 120.788 33.87 125.891 31.3586L145.182 21.8648C152.981 18.0267 161.626 25.2805 159.2 33.6276L153.201 54.2745C151.614 59.7362 154.895 65.42 160.419 66.7764L181.299 71.904C189.741 73.977 191.7 85.0904 184.477 89.9256L166.609 101.886C161.883 105.049 160.743 111.513 164.103 116.102L176.802 133.452C181.936 140.466 176.294 150.239 167.652 149.3L146.277 146.977C140.623 146.362 135.595 150.581 135.219 156.256L133.795 177.71C133.219 186.383 122.615 190.243 116.599 183.968L101.718 168.449C97.7816 164.344 91.2184 164.344 87.282 168.449L72.4011 183.968C66.3851 190.243 55.7807 186.383 55.2051 177.71L53.7813 156.256C53.4046 150.581 48.377 146.362 42.7227 146.977L21.3477 149.3C12.7062 150.239 7.06373 140.466 12.1979 133.452L24.8973 116.102C28.2567 111.513 27.117 105.049 22.3906 101.886L4.52299 89.9256C-2.7005 85.0904 -0.740881 73.977 7.7007 71.904L28.5813 66.7764C34.1047 65.42 37.3863 59.7361 35.7992 54.2745L29.7996 33.6276C27.374 25.2805 36.0188 18.0267 43.8179 21.8648L63.1093 31.3586C68.2124 33.87 74.3797 31.6253 76.6746 26.4213L85.3502 6.74832Z" fill="#FF3D00"/>
</svg>
