<svg width="256" height="225" viewBox="0 0 256 225" fill="none" xmlns="http://www.w3.org/2000/svg">
<path opacity="0.5" d="M164.563 -35.4946C155.971 -69.1739 133.171 -96.0803 107.104 -103.298C100.758 -105.055 74.1947 -106.501 48.0717 -106.51L0.573874 -106.529L1.63939 -54.7973C2.58408 -8.78886 3.44513 -1.70091 9.41371 9.28773C23.646 35.4777 40.7124 48.2576 69.7407 54.4653C86.042 57.9522 86.042 57.9522 65.5872 63.0852C40.4584 69.3918 20.2018 84.9204 9.90618 105.77C3.32432 119.097 2.55621 125.302 1.66727 172.203C0.688513 223.934 0.688513 223.934 45.2438 223.934C99.6363 223.934 116.452 219.798 136.327 201.53C152.75 186.434 155.457 181.891 162.531 157.533C165.492 147.341 168.013 141.182 168.134 143.845C168.828 159.098 179.219 182.537 190.878 195.147C213.269 219.369 221.188 221.855 280.633 223.347L332.513 224.647V176.808C332.513 126.401 329.819 112.133 316.875 94.0097C306.164 79.0092 289.544 68.49 267.859 62.9864C249.226 58.258 248.191 57.5939 256.628 55.7841C292.22 48.1433 308.348 37.6427 321.871 13.3059C330.763 -2.70457 330.986 -4.21484 332.005 -55.0566L333.043 -107.047L279.35 -106.016C226.931 -105.009 225.302 -104.777 210.831 -96.2966C191.6 -85.0238 175.803 -63.3306 171.049 -41.6714C167.319 -24.685 167.319 -24.685 164.563 -35.4946Z" fill="#9ED6FF"/>
</svg>
