<svg width="321" height="321" viewBox="0 0 321 321" fill="none" xmlns="http://www.w3.org/2000/svg">
<path d="M141.285 165.97C139.82 165.23 138.352 164.736 137.215 163.827C136.515 163.265 136.179 162.108 135.939 161.151C135.676 160.111 135.714 158.994 135.626 157.973C133.437 157.356 131.181 156.858 129.034 156.07C127.502 155.508 126.011 154.632 125.553 152.841C125.28 151.772 125.261 150.746 126.171 149.82C127.807 148.156 129.359 146.439 130.307 144.214C131.165 142.197 132.822 140.711 134.302 139.128C134.524 138.889 134.699 138.608 134.916 138.364C136.141 136.986 137.41 135.647 138.587 134.233C139.7 132.894 140.696 131.458 141.79 130.102C142.397 129.353 143.131 128.712 143.756 127.977C145.442 125.992 147.367 124.366 149.918 123.595C150.12 123.534 150.346 123.249 150.394 123.033C150.66 121.817 151.428 120.922 152.418 120.334C152.824 120.094 153.738 120.228 154.135 120.549C155.34 121.525 156.564 121.719 158.075 121.47C159.833 121.179 161.6 121.299 162.873 122.917C163.08 123.181 163.53 123.374 163.875 123.387C165.217 123.44 166.559 123.409 168.21 123.409C167.652 122.959 167.172 122.594 166.715 122.201C165.338 121.023 164.278 119.622 163.624 117.912C163.176 116.738 162.423 115.989 161.005 116.266C160.356 116.393 159.682 116.398 159.019 116.439C157.934 116.505 157.221 115.618 157.21 114.157C157.197 112.414 157.177 110.67 157.221 108.926C157.239 108.217 156.981 107.765 156.472 107.286C154.449 105.387 152.164 103.739 150.638 101.352C149.176 99.0648 147.598 96.8423 146.283 94.473C144.772 91.7491 144.149 88.8011 145.087 85.7062C145.675 83.7701 146.965 82.3246 148.526 81.1052C150.618 79.4704 152.929 78.2637 155.524 77.6482C156.804 77.3453 158.128 77.1817 159.364 76.7556C161.75 75.9309 163.607 74.2412 165.589 72.7404C169.004 70.1545 172.479 67.6086 176.694 66.4423C178.836 65.8509 181.025 65.8803 183.255 66.0767C185.812 66.3025 188.235 66.9162 190.521 67.9944C192.244 68.806 193.897 69.7999 195.492 70.8486C197.703 72.3051 199.476 74.2394 200.816 76.517C202.24 78.9359 203.079 81.5862 203.498 84.358C203.781 86.2314 204.117 88.1087 204.201 89.9949C204.358 93.459 203.423 96.6218 200.978 99.1879C200.131 100.077 199.738 101.096 199.644 102.264C199.465 104.494 199.303 106.726 200.168 108.875C200.3 109.202 200.42 109.534 200.559 109.858C200.776 110.359 201.334 110.794 200.782 111.435C200.714 111.514 200.952 111.913 201.107 112.122C201.86 113.138 202.613 114.157 203.41 115.138C203.707 115.504 204.135 115.761 204.493 116.081C205.175 116.688 205.847 117.306 206.637 118.022C208.132 117.363 209.989 117.712 211.591 118.239C213.161 118.755 214.531 119.996 215.867 121.071C216.989 121.973 217.979 123.053 218.949 124.125C222.301 127.834 225.333 131.765 227.108 136.509C227.741 138.202 228.212 139.955 228.856 141.643C229.292 142.783 229.865 143.878 230.438 144.96C231.839 147.605 232.717 150.435 233.529 153.299C234.477 156.643 235.59 159.946 236.422 163.318C236.965 165.52 237.166 167.813 237.469 170.07C237.744 172.122 238.046 174.175 238.161 176.24C238.259 177.964 238.101 179.704 238.062 181.438C238.046 182.152 238.033 182.869 238.031 183.583C238.027 185.976 238.095 188.373 238.012 190.765C237.888 194.311 237.685 197.857 237.461 201.398C237.342 203.297 237.107 205.189 236.927 207.084C236.679 209.694 236.668 212.354 236.128 214.901C235.452 218.085 234.289 221.161 233.439 224.311C232.965 226.069 232.765 227.9 232.315 229.665C231.872 231.401 231.477 233.199 230.682 234.779C229.764 236.603 228.2 237.956 226.237 238.735C226.129 238.778 226 238.79 225.881 238.789C223.254 238.768 220.629 238.75 218.003 238.715C217.246 238.706 216.489 238.599 215.736 238.616C213.808 238.66 212.022 238.061 210.217 237.508C208.626 237.022 206.988 236.68 205.41 236.157C203.575 235.547 201.797 234.772 199.968 234.138C197.468 233.273 194.939 232.489 192.432 231.642C189.934 230.799 187.472 229.842 184.949 229.089C183.219 228.573 181.418 228.27 179.631 227.968C177.115 227.542 174.575 227.257 172.062 226.818C169.709 226.407 167.38 225.86 165.038 225.393C163.005 224.989 161.29 223.903 159.592 222.818C156.892 221.09 154.253 219.267 151.575 217.504C148.759 215.649 145.956 213.77 143.098 211.983C139.783 209.909 136.499 207.758 133.042 205.946C129.304 203.984 125.392 202.358 121.542 200.612C117.9 198.96 114.213 197.41 110.602 195.695C107.91 194.414 106.606 192.166 106.692 189.159C106.712 188.445 106.495 187.457 106.874 187.071C107.767 186.16 108.867 185.343 110.035 184.834C112.766 183.642 115.722 183.802 118.618 183.897C120.264 183.95 121.911 184.244 123.539 184.54C124.24 184.667 124.531 184.523 124.699 183.851C124.837 183.302 125.001 182.698 125.346 182.277C125.763 181.768 126.395 181.442 126.918 181.013C130.513 178.071 133.729 174.748 136.736 171.214C137.963 169.772 139.247 168.38 140.499 166.959C140.793 166.624 141.058 166.266 141.291 165.974L141.285 165.97ZM182.667 122.224C182.464 121.692 182.26 121.337 182.197 120.961C182.012 119.844 181.389 119.203 180.722 119.609C179.708 120.226 178.697 120.893 177.824 121.692C176.224 123.157 174.404 124.041 172.266 124.392C171.675 124.489 171.127 124.939 170.605 125.294C170.526 125.347 170.613 125.843 170.761 125.99C171.019 126.243 171.542 126.306 171.684 126.585C172.33 127.852 172.861 129.18 173.48 130.462C173.893 131.316 174.367 132.143 174.854 132.957C174.995 133.194 175.252 133.434 175.504 133.508C175.646 133.548 175.987 133.291 176.062 133.1C176.364 132.327 176.584 131.524 176.86 130.74C177.473 128.997 177.798 127.07 179.729 126.144C179.811 126.104 179.824 125.935 179.888 125.837C180.377 125.097 180.838 124.335 181.374 123.631C181.799 123.077 182.32 122.595 182.664 122.224H182.667Z" fill="white"/>
<path d="M158.969 262.216C158.174 262.165 157.381 262.115 156.518 262.058C156.473 262.154 156.38 262.36 156.27 262.6C157.474 262.881 158.257 263.651 158.733 264.694C158.847 264.942 158.68 265.458 158.468 265.691C157.068 267.216 155.61 268.683 154.198 270.195C153.75 270.674 153.45 271.31 152.96 271.729C152.563 272.067 151.997 272.298 151.474 272.381C150.254 272.574 149.013 272.618 147.786 272.778C144.988 273.143 142.198 273.565 139.397 273.916C138.076 274.082 136.739 274.104 135.415 274.243C133.319 274.464 131.229 274.741 129.135 274.965C127.695 275.118 126.251 275.246 124.808 275.336C123.314 275.43 121.818 275.536 120.324 275.505C118.592 275.468 116.862 275.281 115.13 275.173C114.737 275.147 114.342 275.184 113.947 275.174C111.407 275.119 108.858 275.164 106.413 274.254C105.812 274.03 105.526 273.727 105.369 273.099C105.298 272.809 104.754 272.454 104.425 272.454C103.946 272.454 103.437 272.693 102.993 272.93C102.497 273.195 102.08 273.314 101.476 273.184C100.715 273.02 99.8922 273.158 99.0989 273.141C96.5714 273.09 94.046 273.018 91.7903 271.65C91.1915 271.286 90.4899 270.954 91.0428 270.044C91.0722 269.997 91.0998 269.908 91.0757 269.87C90.2641 268.527 91.3128 267.653 91.9372 266.742C93.2691 264.802 95.1057 263.564 97.3632 262.798C99.2034 262.174 100.914 261.178 102.708 260.407C103.441 260.091 104.163 259.478 105.079 260.091C105.274 260.221 105.731 260.071 106.016 259.937C106.811 259.562 107.539 258.958 108.369 258.761C109.429 258.51 110.566 258.497 111.666 258.522C112.204 258.535 112.66 258.864 113.216 258.35C113.473 258.113 114.145 258.291 114.623 258.341C114.882 258.368 115.125 258.539 115.384 258.614C115.957 258.783 116.542 259.318 117.126 258.693C117.699 258.082 117.767 257.319 117.421 256.601C116.576 254.845 115.859 252.983 114.746 251.407C111.993 247.509 109.054 243.742 106.176 239.933C103.718 236.678 101.123 233.519 98.814 230.163C97.4127 228.126 96.4776 225.773 95.2544 223.606C94.6098 222.464 94.0828 221.279 93.9377 220C93.8273 219.029 93.4415 217.936 94.3525 217.063C94.7769 216.657 95.2232 216.404 95.8129 216.674C96.8854 217.166 97.96 217.653 99.0218 218.163C99.8776 218.575 100.715 219.021 101.672 219.51C101.593 218.656 101.531 217.993 101.468 217.331C101.604 217.298 101.738 217.265 101.874 217.232C102.157 217.736 102.512 218.213 102.708 218.747C103.107 219.831 103.955 220.324 104.938 220.768C109.142 222.675 113.372 224.535 117.505 226.591C120.866 228.26 124.126 230.137 127.385 232.005C130.689 233.899 133.81 236.076 136.684 238.579C138.31 239.993 139.952 241.408 141.423 242.976C143.846 245.557 146.107 248.286 148.489 250.906C150.519 253.137 152.629 255.292 154.686 257.497C155.533 258.405 156.156 259.421 156.165 260.743C156.165 260.958 156.587 261.27 156.872 261.362C157.566 261.584 158.296 261.702 159.01 261.862C158.997 261.981 158.984 262.099 158.972 262.218L158.969 262.216ZM117.058 236.436C116.989 236.412 116.917 236.386 116.847 236.362C116.888 236.441 116.93 236.52 116.97 236.599C117.048 236.687 117.123 236.777 117.2 236.865C117.478 237.146 117.756 237.424 118.03 237.708C121.555 241.378 125.214 244.888 129.402 247.818C134.225 251.194 138.731 255.047 144.057 257.665C146.212 258.723 148.451 259.612 150.651 260.576C150.691 260.493 150.732 260.412 150.77 260.33C150.509 260.145 150.263 259.935 149.986 259.775C146.524 257.771 142.867 256.039 139.636 253.716C133.971 249.64 128.579 245.186 123.05 240.921C121.191 239.486 119.263 238.14 117.365 236.753C117.262 236.647 117.161 236.542 117.058 236.436ZM147.291 256.788C147.337 256.831 147.383 256.873 147.428 256.915C147.435 256.888 147.442 256.862 147.45 256.834C147.391 256.827 147.332 256.822 147.273 256.814C147.15 256.588 147.06 256.335 146.9 256.138C146.061 255.108 145.203 254.096 144.356 253.073C142.828 251.229 141.397 249.295 139.755 247.557C137.586 245.263 135.307 243.064 132.978 240.932C129.513 237.762 125.7 235.029 121.693 232.595C118.552 230.688 115.308 228.953 112.083 227.189C110.514 226.334 108.883 225.591 107.28 224.798C107.166 224.759 107.052 224.719 106.938 224.68C106.991 224.763 107.045 224.847 107.1 224.93C107.956 225.735 108.799 226.552 109.669 227.34C112.121 229.561 114.511 231.86 117.062 233.96C121.083 237.269 125.229 240.427 129.299 243.678C131.967 245.808 134.506 248.11 137.267 250.11C140.516 252.465 143.943 254.573 147.291 256.791V256.788ZM149.573 267.736C149.593 267.794 149.615 267.853 149.635 267.914C151.529 267.328 153.421 266.744 155.478 266.106C153.889 265.184 152.629 265.091 151.43 266.349C150.904 266.9 150.197 267.278 149.573 267.736ZM116.495 236.16C116.546 236.195 116.601 236.261 116.644 236.254C116.693 236.244 116.732 236.171 116.774 236.125C116.726 236.101 116.673 236.052 116.629 236.059C116.581 236.066 116.539 236.123 116.495 236.16Z" fill="white"/>
<path d="M235.496 154.668C235.619 155.201 235.744 155.735 235.867 156.268C236.051 157.12 236.235 157.972 236.418 158.824C236.565 160.099 236.686 161.375 236.867 162.645C237.131 164.502 237.43 166.355 237.728 168.207C237.886 169.189 238.071 170.168 238.244 171.149C238.325 171.636 238.406 172.121 238.487 172.608C238.601 173.89 238.696 175.173 238.836 176.452C238.988 177.851 239.221 179.242 239.353 180.641C239.581 183.042 239.759 185.448 239.958 187.852V189.506C240.006 191.146 240.175 192.793 240.074 194.424C239.853 197.971 239.508 201.51 239.19 205.05C239.034 206.795 238.871 208.542 238.632 210.277C238.299 212.685 237.935 215.092 237.502 217.483C237.08 219.808 236.576 222.121 236.058 224.428C235.698 226.027 235.252 227.609 234.853 229.201C234.811 229.37 234.828 229.554 234.819 229.73C234.729 230.214 234.64 230.696 234.55 231.179C234.207 231.709 233.847 232.226 233.527 232.77C233.129 233.448 232.763 234.144 232.383 234.833C232.135 235.272 231.887 235.711 231.641 236.152C231.459 236.459 231.276 236.765 231.094 237.072C230.921 237.358 230.748 237.643 230.524 238.012H232.181C231.982 238.842 231.264 238.439 230.787 238.591C229.4 239.034 228.021 239.524 226.606 239.847C224.215 240.393 221.796 240.813 219.395 241.32C219.168 241.368 218.918 241.627 218.804 241.851C217.072 245.279 215.086 248.548 212.726 251.578C210.276 254.725 207.644 257.706 204.461 260.145C202.824 261.4 201.16 262.621 199.511 263.857C198.961 264.17 198.412 264.482 197.863 264.792C197.189 265.16 196.517 265.527 195.843 265.894C194.7 266.416 193.558 266.936 192.233 267.54H194.931C195.483 267.549 196.034 267.557 196.585 267.566C196.835 267.522 197.082 267.476 197.332 267.432C197.507 267.435 197.683 267.437 197.858 267.441C198.352 267.917 198.851 267.88 199.358 267.459C199.72 267.43 200.082 267.399 200.444 267.369C201.239 267.365 202.036 267.362 202.832 267.358C203.357 267.43 203.88 267.509 204.407 267.569C204.964 267.634 205.374 267.832 205.346 268.488C205.01 268.671 204.69 268.964 204.334 269.017C203.105 269.199 201.863 269.298 200.627 269.43C200.137 269.491 199.648 269.553 199.158 269.614C197.749 269.746 196.339 269.869 194.93 270.014C194.127 270.097 193.33 270.267 192.525 270.306C189.35 270.464 186.172 270.585 182.995 270.721C182.627 270.721 182.26 270.721 181.892 270.721C180.607 270.833 179.321 270.968 178.032 271.054C175.921 271.195 173.807 271.303 171.695 271.427C171.542 271.436 171.39 271.447 171.237 271.458C170.626 271.397 170.012 271.335 169.401 271.274C169.094 271.274 168.789 271.272 168.482 271.27C167.441 271.149 166.401 271.028 165.36 270.907C164.932 270.846 164.502 270.784 164.074 270.723C163.279 270.598 162.482 270.473 161.686 270.348C159.508 269.796 157.311 269.303 155.155 268.675C148.972 266.875 143.172 264.188 137.673 260.861C136.822 260.347 136.209 259.438 135.478 258.722C135.11 258.362 134.723 258.024 134.345 257.675C131.514 255.186 128.693 252.684 125.849 250.21C122.281 247.104 118.611 244.107 115.134 240.9C111.012 237.1 107.276 232.926 103.974 228.378C103.013 227.054 102.001 225.769 101.013 224.464C100.912 224.323 100.811 224.18 100.708 224.038C100.285 223.397 99.8614 222.755 99.4388 222.113L99.1595 222.303C99.6115 222.946 100.065 223.59 100.517 224.233C100.625 224.369 100.734 224.503 100.84 224.639C101.105 225.069 101.349 225.513 101.635 225.927C104.475 230.032 107.318 234.142 110.825 237.722C113.259 240.205 115.745 242.643 118.28 245.023C121.008 247.586 123.791 250.091 126.601 252.56C129.047 254.708 131.571 256.771 134.13 258.931C133.59 259.086 133.127 259.218 132.664 259.35C132.173 259.477 131.685 259.602 131.194 259.728C130.704 259.831 130.214 259.934 129.723 260.037C129.295 260.108 128.867 260.178 128.439 260.25C128.144 260.25 127.848 260.248 127.552 260.246C127.411 260.331 127.267 260.415 127.126 260.498C126.889 260.518 126.652 260.54 126.415 260.56C126.044 260.617 125.673 260.672 125.302 260.729C125.122 260.735 124.942 260.742 124.762 260.748C124.334 260.805 123.908 260.86 123.48 260.917C123.228 260.939 122.979 260.963 122.727 260.985C121.022 261.833 119.281 262.614 117.625 263.543C114.796 265.13 111.999 266.78 109.234 268.475C108.452 268.954 107.823 269.689 106.968 270.446C107.421 270.483 107.644 270.501 107.866 270.517C108.009 271.158 108.417 271.452 109.065 271.427C109.339 271.416 109.614 271.406 109.888 271.397C110.13 271.416 110.373 271.436 110.614 271.454C111.045 271.496 111.477 271.538 111.909 271.581C113.194 271.651 114.48 271.719 115.766 271.788C116.194 271.84 116.624 271.891 117.051 271.944C119.867 271.886 122.685 271.825 125.5 271.766C125.928 271.713 126.358 271.66 126.786 271.606C129.358 271.357 131.929 271.107 134.501 270.859C135.052 270.798 135.603 270.738 136.154 270.677C137.81 270.556 139.473 270.473 141.126 270.306C143.019 270.115 144.908 269.871 146.794 269.61C148.403 269.388 150.01 269.142 151.606 268.844C152.308 268.714 153.079 268.33 153.559 269.066C154.156 269.983 153.932 270.53 152.868 271.456C152.558 271.621 152.247 271.785 151.937 271.95L151.215 272.193C151.088 272.233 150.962 272.275 150.835 272.315C149.488 272.622 148.142 272.927 146.794 273.234C146.247 273.317 145.699 273.397 145.154 273.48C143.868 273.664 142.582 273.847 141.297 274.029C140.869 274.086 140.439 274.143 140.011 274.2L137.623 274.398C137.195 274.459 136.765 274.52 136.337 274.58C134.422 274.744 132.508 274.905 130.592 275.07C129.811 275.137 129.031 275.221 128.25 275.273C127.104 275.35 125.958 275.405 124.812 275.471C123.728 275.532 122.641 275.682 121.561 275.638C118.155 275.497 114.752 275.295 111.348 275.085C110.551 275.038 109.763 274.876 108.97 274.766C108.419 274.643 107.868 274.52 107.317 274.397C106.556 273.882 105.809 273.35 105.032 272.865C104.745 272.687 104.372 272.483 104.069 272.521C102.075 272.769 100.096 273.19 98.0963 273.34C95.7525 273.517 93.3481 274.141 91.0705 273.059C90.0621 272.58 89.0777 271.978 88.5617 270.885C88.567 270.021 88.5706 269.158 88.5762 268.295C88.5596 266.776 89.3054 265.593 90.2606 264.506C90.8684 264.065 91.4747 263.626 92.0827 263.185C97.0217 260.678 102.236 259.045 107.655 258.329C107.719 257.32 107.78 256.385 107.84 255.449C107.965 254.837 108.092 254.223 108.217 253.612C108.81 253.206 108.428 252.772 108.152 252.486C107.306 251.601 106.396 250.776 105.513 249.927C105.204 249.666 104.896 249.406 104.587 249.145C103.794 248.304 103 247.464 102.207 246.623C101.834 246.127 101.459 245.633 101.086 245.137C101.026 245.076 100.963 245.014 100.903 244.953C100.78 244.772 100.655 244.588 100.532 244.406C100.464 244.147 100.466 243.837 100.317 243.638C99.3287 242.305 98.3165 240.988 97.2989 239.676C94.9901 236.701 92.6831 233.725 90.3541 230.766C90.0568 230.39 89.638 230.107 89.276 229.782C89.1712 229.699 89.0647 229.615 88.9582 229.532C88.8976 229.473 88.8371 229.414 88.7765 229.357C88.7178 229.069 88.7323 228.735 88.5872 228.498C87.4135 226.597 86.2179 224.709 85.0021 222.837C84.8513 222.606 84.5299 222.484 84.2892 222.312L84.2599 222.279C84.2195 221.871 84.2599 221.437 84.1275 221.061C83.3598 218.831 82.5609 216.614 81.7582 214.397C81.4991 213.683 81.2035 212.983 80.9243 212.276C80.8418 211.912 80.759 211.55 80.6765 211.187C80.6085 210.696 80.5424 210.208 80.4744 209.717V208.431C80.0996 207.636 80.467 206.839 80.4744 206.044C80.4815 205.799 80.4889 205.553 80.4964 205.309C80.5495 204.819 80.6047 204.33 80.6581 203.84C80.983 202.716 81.3101 201.593 81.6297 200.467C81.7086 200.192 81.76 199.907 81.8244 199.628C82.2944 198.522 82.763 197.415 83.2331 196.309C83.8631 195.168 84.4931 194.028 85.1231 192.887C85.3656 192.56 85.608 192.235 85.8505 191.908C87.0702 190.769 88.2071 189.517 89.5425 188.534C90.3597 187.931 91.48 187.742 92.4629 187.367C92.8834 187.278 93.306 187.188 93.7265 187.096C95.5026 186.973 97.2769 186.85 99.053 186.726C99.6041 186.726 100.155 186.726 100.706 186.726C101.013 186.73 101.318 186.734 101.624 186.737C102.052 186.794 102.482 186.853 102.91 186.91C103.814 187.05 104.718 187.188 105.621 187.327C106.892 187.678 108.164 188.029 109.37 188.359C109.728 187.485 110.048 186.706 110.368 185.929C110.379 185.854 110.391 185.779 110.402 185.704C110.347 185.742 110.292 185.781 110.237 185.817C109.879 186.023 109.534 186.26 109.157 186.431C108.143 186.89 107.192 187.614 105.965 187.259C105.384 186.918 105.768 186.543 105.956 186.214C106.944 184.484 108.459 183.358 110.232 182.535C110.366 182.473 110.492 182.399 110.625 182.331C111.115 182.204 111.604 182.078 112.094 181.949C113.183 181.96 114.278 181.914 115.363 181.995C116.971 182.116 118.572 182.328 120.176 182.5C120.475 182.529 120.775 182.559 121.074 182.586C121.91 182.849 122.747 183.11 123.662 183.396C123.309 184.166 123.004 184.989 122.563 185.731C122.354 186.084 121.887 186.284 121.537 186.554C121.443 186.491 121.348 186.429 121.254 186.366C121.181 185.547 121.105 184.726 121.026 183.846H118.892L118.003 185.652C117.56 187.375 117.118 189.098 116.682 190.793C119.142 191.91 121.577 193.015 124.015 194.123C124.127 194.167 124.24 194.211 124.353 194.255C124.299 194.171 124.244 194.086 124.191 194.002C124.07 193.73 123.95 193.456 123.829 193.185C123.656 192.626 123.482 192.07 123.309 191.511C123.429 189.241 123.51 186.969 123.678 184.702C123.856 182.313 124.674 180.112 126.312 178.369C129.979 174.468 133.744 170.659 137.467 166.811C137.654 166.618 137.825 166.406 138.003 166.204C138.4 165.837 138.799 165.472 139.388 164.926C138.826 164.899 138.598 164.887 138.371 164.876C137.333 164.256 136.297 163.635 135.259 163.014C134.954 162.599 134.648 162.182 134.343 161.767C134.188 160.983 134.001 160.204 133.891 159.414C133.832 158.993 133.909 158.555 133.924 158.124C134.179 157.281 134.323 156.381 134.712 155.604C136.249 152.541 137.761 149.475 138.418 146.07C138.521 145.541 138.657 145.045 139.328 144.823C139.64 144.72 139.849 144.206 140.033 143.842C140.18 143.55 140.216 143.203 140.303 142.879C139.928 142.797 139.555 142.714 139.083 142.61C139.194 142.102 139.298 141.496 139.462 140.905C139.895 139.336 139.906 139.362 141.407 139.357C142.127 139.353 142.856 139.142 143.565 139.206C145.648 139.395 147.743 139.562 149.79 139.966C150.855 140.176 152.027 140.655 152.789 141.388C153.689 142.255 154.519 143.403 154.165 144.893C153.998 145.592 154.069 146.428 153.702 146.983C153.199 147.739 152.422 148.336 151.689 148.91C150.15 150.111 148.232 149.988 146.494 149.944C144.292 149.889 142.101 149.323 139.912 148.979C139.294 150.565 138.587 152.379 137.82 154.346C138.165 154.429 138.541 154.56 138.927 154.605C140.086 154.747 141.256 154.817 142.404 155.011C142.67 155.057 143.115 155.638 143.062 155.729C142.593 156.538 142.178 157.498 141.462 158.016C140.209 158.922 138.751 159.546 137.239 160.365C141.587 163.295 146.072 163.82 150.877 161.183C150.605 161.724 150.332 162.246 149.905 162.559C147.538 164.291 144.948 165.405 141.932 165.284C141.68 165.275 141.342 165.473 141.172 165.681C140.354 166.671 139.62 167.731 138.784 168.704C135.838 172.134 132.835 175.511 129.916 178.963C128.972 180.077 128.055 181.277 127.422 182.581C126.169 185.163 125.581 187.944 125.894 190.83C126.031 192.11 126.322 193.396 127.275 194.518C127.422 190.554 128.496 189.25 130.032 189.447C129.595 191.333 129.157 193.225 128.72 195.117C128.81 195.207 128.9 195.299 128.99 195.389C129.657 195.124 130.432 194.996 130.965 194.566C131.804 193.888 132.892 193.528 133.316 192.242C133.529 191.594 134.723 191.274 135.465 190.793C135.841 190.549 136.315 190.349 136.539 189.998C137.614 188.323 138.621 186.602 139.649 184.897C140.808 182.974 141.963 181.047 143.124 179.124C143.295 178.839 143.477 178.562 143.655 178.279C143.758 178.323 143.859 178.369 143.962 178.413C143.699 179.148 143.436 179.883 143.225 180.469C143.932 181.47 144.952 181.462 145.978 181.471C146.517 181.477 147.06 181.531 147.593 181.619C148.08 181.699 148.555 181.857 149.025 181.979C148.473 182.623 148.043 183.126 147.516 183.742C148.363 183.823 148.95 183.878 149.538 183.933C149.472 183.87 149.406 183.81 149.338 183.747C150.943 182.026 152.37 180.075 154.2 178.643C156.257 177.032 158.665 175.864 160.953 174.562C161.459 174.273 162.105 174.235 162.687 174.082C162.75 174.213 162.814 174.343 162.877 174.474C162.428 174.914 162.028 175.425 161.525 175.787C159.291 177.392 156.898 178.803 154.802 180.57C151.456 183.389 149.107 186.96 147.966 191.232C147.626 192.508 147.468 193.833 147.226 195.135L147.54 195.258C147.881 194.953 148.221 194.647 148.535 194.366C148.384 195.396 147.982 196.434 148.162 197.361C148.364 198.403 149.107 199.325 150.513 199.453C150.567 198.926 150.62 198.43 150.67 197.934C150.829 196.294 151.123 194.726 152.429 193.523C153.024 192.975 153.654 193.073 154.152 193.416C154.4 193.587 154.483 194.298 154.356 194.665C153.825 196.199 153.184 197.694 152.552 199.286C153.149 199.036 153.713 198.86 154.216 198.577C157.153 196.922 159.326 194.41 161.562 191.968C162.388 191.067 163.192 190.128 164.122 189.34C165.599 188.087 167.175 186.952 168.701 185.758C169.676 184.994 170.639 184.216 171.609 183.442C171.642 183.479 171.678 183.512 171.715 183.545C171.524 183.815 171.36 184.111 171.136 184.348C166.686 189.063 162.256 193.796 157.758 198.465C156.062 200.225 154.024 201.577 151.627 202.177C150.135 202.552 148.416 202.872 147.277 201.502C145.885 199.825 144.863 197.892 145.001 195.574C145.055 195.326 145.11 195.08 145.165 194.832C145.158 194.772 145.15 194.711 145.141 194.65C145.172 194.472 145.205 194.296 145.236 194.118C145.512 193.069 145.785 192.02 146.061 190.971C146.191 190.442 146.322 189.913 146.478 189.282C145.663 189.491 144.983 189.711 144.285 189.834C143.311 190.007 142.382 189.946 141.534 189.289C140.749 188.683 140.667 187.886 140.668 186.901C140.391 187.044 140.301 187.281 140.139 187.448C139.504 188.108 138.839 188.74 138.204 189.401C138.097 189.511 138.064 189.706 138.023 189.867C137.891 190.383 137.825 190.924 137.636 191.418C137.36 192.141 137.002 192.832 136.683 193.528C138.356 194.777 138.429 195.493 137.858 197.62C137.325 199.606 135.829 199.9 134.137 200.113C134.824 200.655 135.448 201.064 136.08 201.461C136.684 201.841 137.177 202.545 138.075 202.023C138.275 201.907 138.663 202.058 138.944 202.15C140.25 202.574 141.548 203.02 142.845 203.457C143.512 202.421 144.279 201.948 145.099 202.424C146.035 202.965 146.79 203.823 147.621 204.549C147.9 204.793 148.128 205.175 148.447 205.278C151.5 206.251 154.571 207.164 157.627 208.125C160.412 209.001 163.146 210.061 165.97 210.781C170.971 212.055 176.096 212.401 181.246 212.266C182.361 212.237 183.518 212.149 184.574 211.822C187.171 211.016 189.776 210.186 192.278 209.128C195.775 207.647 199.002 205.675 201.706 202.951C201.961 202.693 202.198 202.33 202.262 201.983C202.532 200.548 202.782 199.092 203.776 197.966C204.336 197.332 204.951 196.628 206.018 196.825C206.25 196.867 206.685 196.614 206.795 196.384C208.167 193.537 210.338 191.197 211.635 188.262C213.628 183.755 215.898 179.38 217.456 174.676C218.15 172.578 219.171 170.582 220.143 168.587C220.497 167.859 221.087 167.187 222.205 167.334C222.072 167.983 222.013 168.587 221.824 169.145C220.464 173.153 219.072 177.148 217.72 181.157C217.617 181.466 217.658 181.923 217.827 182.186C217.943 182.366 218.418 182.276 218.697 182.396C219.181 182.601 219.656 182.84 220.09 183.13C220.361 183.312 220.508 183.696 220.788 183.845C221.991 184.482 222.672 186.75 222.334 188.078C221.87 189.906 220.049 190.332 219.094 191.614C219.037 191.689 218.866 191.676 218.751 191.711C216.928 192.268 214.895 191.554 213.872 190.113C213.45 191.043 213.061 192.101 212.508 193.065C211.549 194.74 210.498 196.366 209.466 197.997C209.198 198.421 209.231 198.858 209.661 198.959C211.517 199.389 211.257 201.107 211.576 202.304C211.855 203.357 211.102 204.378 210.149 205.054C209.793 205.307 209.367 205.485 209.069 205.792C207.561 207.34 205.03 207.414 203.452 205.904C198.954 209.905 193.576 212.312 187.901 214.177C187.937 214.267 187.974 214.357 188.011 214.445C188.743 214.478 189.476 214.509 190.38 214.55C189.833 215.235 189.517 215.758 188.672 215.791C186.918 215.859 185.168 216.065 183.395 216.217C183.169 216.945 182.907 217.685 183.45 218.44C183.544 218.57 183.421 218.859 183.397 219.075C183.399 219.198 183.401 219.32 183.402 219.443C183.185 221.742 181.88 222.833 179.169 223.05C187.651 226.262 195.944 229.405 204.314 232.578C204.314 232.045 204.35 231.661 204.308 231.284C204.057 229.027 204.703 227.091 206.397 225.565C207.234 224.81 207.951 224.883 208.839 225.607C209.025 225.757 209.365 225.708 209.618 225.792C210.113 225.961 210.634 226.099 211.075 226.364C211.462 226.595 211.751 226.992 212.096 227.298C212.274 227.456 212.587 227.543 212.658 227.73C213.027 228.702 213.342 229.694 213.665 230.682C213.691 230.761 213.666 230.869 213.635 230.952C213.196 232.109 212.664 233.196 211.466 233.769C211.284 233.92 211.102 234.071 210.854 234.278C211.077 234.309 211.165 234.322 211.251 234.335C213.731 234.936 216.21 235.537 218.694 236.128C218.787 236.15 218.925 236.093 219.011 236.03C219.95 235.353 220.869 234.646 221.827 233.995C222.134 233.786 222.593 233.534 222.889 233.621C224.358 234.043 225.794 234.57 226.553 236.08C226.741 236.455 226.845 236.758 226.287 236.894C226.166 236.923 226.083 237.103 225.982 237.213C226.085 237.29 226.175 237.403 226.291 237.439C227.78 237.928 228.269 237.583 228.886 236.025C229.139 235.384 229.341 234.723 229.61 234.089C229.874 233.463 230.188 232.856 230.519 232.162C229.108 232.032 227.94 231.525 227.075 230.57C226.296 229.71 225.594 228.568 226.279 227.46C226.992 226.309 227.967 225.23 229.055 224.426C229.907 223.796 231.103 223.632 232.183 223.25C232.721 220.313 233.303 217.251 233.838 214.182C234.168 212.281 234.425 210.365 234.716 208.457C234.743 208.323 234.771 208.189 234.8 208.055C235.046 206.393 235.316 204.734 235.528 203.066C235.693 201.764 235.821 200.452 235.895 199.141C236.099 195.567 236.292 191.992 236.407 188.414C236.418 188.053 235.955 187.481 235.583 187.335C234.365 186.853 233.876 186.304 233.878 185.002C233.878 183.323 234.848 182.237 236.158 181.345C235.842 174.227 235.03 167.15 233.575 160.244C233.138 160.11 232.765 160.064 232.466 159.893C231.064 159.094 230.554 157.684 231.112 156.183C231.665 154.697 231.867 153.29 231.151 151.718C230.177 149.58 229.475 147.315 228.654 145.098C228.541 145.172 228.353 145.225 228.296 145.341C227.734 146.489 226.665 146.586 225.593 146.641C225.385 146.652 225.161 146.494 224.955 146.392C224.705 146.265 224.481 146.029 224.222 145.983C221.636 145.519 220.666 144.349 220.086 142.389C220.033 142.209 220.064 141.941 220.167 141.785C220.74 140.911 221.317 140.038 221.952 139.21C222.268 138.798 222.668 138.42 223.1 138.133C224.068 137.494 225.167 137.329 226.368 137.514C226.083 135.814 225.096 134.537 224.325 133.159C221.708 128.485 218.347 124.418 214.256 120.962C213.727 120.515 213.202 119.9 212.583 119.753C210.983 119.373 209.33 119.211 207.717 118.963C207.157 121.351 205.19 122.356 202.967 122.163C202.284 122.104 201.608 121.468 200.875 122.113C199.786 123.068 198.556 123.704 197.04 123.573C196.983 123.568 196.917 123.673 196.855 123.726C197.088 123.368 197.049 123.16 196.563 123.206C197.905 120.447 199.632 118.006 202.194 116.326C199.198 113.971 196.971 110.929 195.4 107.474C193.857 104.08 191.782 100.904 191.047 97.2049C190.509 97.2894 190.029 97.363 189.552 97.442C187.867 97.7174 186.429 97.1903 185.193 96.068C185.033 95.9229 185.028 95.605 184.874 95.1258C186.122 95.9321 187.19 96.103 188.299 95.822C189.699 95.4673 191.012 94.9017 192.131 93.9521C192.546 93.6013 192.928 93.1844 193.396 92.9289C195.187 91.9537 196.1 90.2236 196.903 88.5392C197.683 86.9008 197.292 85.0585 196.855 83.3284C196.436 81.6752 195.409 80.3967 194.149 79.291C194.107 79.2524 194.066 79.2138 194.024 79.1753C193.859 79.0156 193.714 78.8283 193.527 78.6996C191.513 77.3131 189.344 77.1383 187.171 78.1541C185.469 78.9494 183.852 79.9376 182.247 80.9202C181.948 81.1039 181.729 81.6734 181.736 82.0592C181.769 83.7379 181.966 85.4149 181.975 87.0937C181.984 88.7027 181.619 90.2583 180.84 91.7682C181.049 91.9261 181.283 92.1997 181.578 92.3045C182.568 92.657 181.746 93.4782 182.027 94.0236C182.069 94.1046 181.553 94.6593 181.266 94.6848C180.342 94.7676 179.365 94.8741 178.484 94.661C177.152 94.3379 175.805 94.0126 174.751 92.9179C174.147 92.2896 174.481 91.6635 174.321 91.0554C174.066 90.0895 173.791 89.1013 173.741 88.1113C173.658 86.4948 172.828 85.5289 171.463 84.8344C170.681 84.4359 170.016 83.7893 169.212 83.4622C167.876 82.9186 167.796 82.9058 167.753 81.4291C167.735 80.7825 167.669 80.1379 167.626 79.5079C166.842 79.4106 166.12 79.1037 165.567 79.291C163.731 79.9174 161.927 80.6558 160.164 81.4713C155.713 83.5266 151.292 85.6425 146.871 87.7584C146.711 87.8356 146.55 88.2196 146.607 88.3849C147.013 89.555 147.385 90.7489 147.938 91.8507C148.928 93.8271 150.038 95.7448 151.097 97.688C151.671 97.3428 152.119 97.0286 152.605 96.7897C155.443 95.3976 158.279 93.9942 161.154 92.6828C161.468 92.5395 162.037 92.9529 162.487 93.1072C162.366 93.4084 162.329 93.8289 162.107 93.9907C160.849 94.9109 159.55 95.776 158.254 96.6446C157.78 96.9624 157.302 97.2894 156.782 97.5171C155.316 98.1619 153.829 98.7587 152.363 99.3685C152.791 100.065 153.145 100.864 153.696 101.49C154.995 102.969 156.374 104.378 157.747 105.79C158.672 106.741 159.218 107.838 159.109 109.173C159.078 109.563 158.68 109.926 158.66 110.312C158.597 111.515 158.637 112.726 158.637 113.962C160.349 114.952 160.346 114.924 162.219 114.39C162.838 114.213 163.509 114.215 164.129 114.138C164.509 115.194 163.644 115.198 163.286 115.495C164.715 116.783 166.73 118.52 168.136 119.786C168.918 119.419 168.635 119.651 168.938 119.518C169.961 119.068 170.319 117.277 171.076 117.615C171.076 118.854 170.009 120.003 169.129 120.78C169.401 120.962 169.753 121.2 170.108 121.433C172.026 122.703 172.973 122.626 174.815 121.325C178.691 118.588 182.611 115.912 186.514 113.208C187.267 114.373 187.248 114.553 186.308 115.339C185.875 115.703 185.417 116.041 185.129 116.265C185.584 118.59 187.061 120.339 187.375 122.583C187.73 125.107 187.461 125.662 185.399 125.798C184.104 127.59 184.003 129.655 183.75 131.679C183.718 131.927 183.792 132.214 183.896 132.447C184.534 133.865 185.823 134.115 186.916 132.926C188.268 131.457 189.475 129.855 190.801 128.36C191.717 127.326 193.056 126.734 193.837 125.542C193.896 125.561 193.955 125.579 194.013 125.598C193.66 125.998 193.971 126.264 194.281 126.257C195.372 126.231 196.065 126.92 196.506 127.693C197.198 128.911 197.666 130.177 197.207 131.732C196.864 132.897 196.504 133.835 195.44 134.502C194.614 135.02 193.607 135.553 193.181 136.348C192.193 138.192 191.399 140.161 190.727 142.148C189.829 144.801 189.216 147.55 188.316 150.203C186.567 155.346 184.701 160.448 182.892 165.569C182.335 167.143 181.808 168.728 181.261 170.328C182.434 170.003 183.498 169.707 184.561 169.415C184.701 169.376 184.872 169.294 184.984 169.34C185.999 169.742 187.177 169.922 187.658 171.114C187.897 171.709 188.037 172.345 188.301 172.927C188.768 173.954 188.34 174.909 188.116 175.868C187.824 177.126 186.679 177.636 185.784 178.384C183.883 179.973 182.8 180.039 180.899 178.485C180.194 177.91 179.528 177.286 178.719 176.573C177.927 179.857 174.955 180.726 172.685 182.37C174.338 179.324 176.818 176.817 177.876 173.436C178.921 170.095 180.08 166.789 181.187 163.466C181.077 163.536 180.965 163.605 180.855 163.675C180.532 163.234 180.214 162.792 179.885 162.357C179.766 162.198 179.624 161.939 179.481 161.93C178.256 161.86 177.295 161.139 176.226 160.683C175.945 160.564 175.506 160.533 175.255 160.669C173.985 161.357 172.742 162.096 171.511 162.854C169.147 164.311 166.647 165.242 163.817 165.275C161.1 165.306 158.487 163.08 158.048 160.415C157.833 159.105 157.8 157.746 157.86 156.418C157.937 154.773 158.246 153.14 158.362 151.494C158.448 150.278 158.384 149.049 158.389 147.828C158.391 147.124 158.327 146.413 158.421 145.723C158.498 145.155 158.92 144.61 158.913 144.06C158.885 142.183 158.724 140.31 158.637 138.433C158.603 137.661 158.632 136.888 158.632 135.814C159.098 136.344 159.433 136.633 159.651 136.991C160.667 138.653 160.955 140.51 161.165 142.417C161.532 145.771 161.328 149.113 161.093 152.453C160.933 154.728 160.581 156.989 161.128 159.26C161.813 162.101 163.791 163.433 166.739 162.939C168.743 162.603 170.598 161.888 172.139 160.632C173.381 159.62 174.909 158.817 175.491 157.113C175.629 156.712 176.068 156.343 176.459 156.113C177.266 155.641 178.078 155.258 178.52 154.324C179.025 153.255 179.672 152.253 180.265 151.204C179.933 151.027 179.65 150.877 179.167 150.62C179.518 150.364 179.771 150.221 179.969 150.024C180.124 149.872 180.326 149.639 180.305 149.462C180.249 148.965 180.148 148.452 179.957 147.993C179.56 147.047 179.108 146.121 178.651 145.201C178.186 144.263 177.686 143.339 177.205 142.408C176.375 140.802 175.554 139.191 174.711 137.591C174.516 137.22 174.252 136.886 173.954 136.436C173.981 136.337 174.204 135.994 174.127 135.738C173.144 132.473 172.319 129.137 170.11 126.391C168.888 124.874 167.516 123.697 165.543 123.142C163.775 122.646 162.017 122.734 160.244 122.624C158.669 122.526 156.986 122.545 155.669 121.603C154.483 120.754 153.142 120.796 151.867 120.457C151.681 120.407 151.323 120.484 151.25 120.614C150.436 122.084 149.2 122.907 147.516 123.074V124.007C146.383 124.811 145.38 125.509 144.392 126.229C142.219 127.813 140.43 129.763 139.056 132.067C137.617 134.476 136.304 136.958 134.866 139.368C132.848 142.747 130.504 145.879 127.506 148.474C127.21 148.73 126.852 148.937 126.621 149.242C125.757 150.372 126.213 152.344 127.488 153.336C129.31 154.754 131.382 155.52 133.882 155.775C133.681 156.17 133.534 156.462 133.387 156.754C131.935 157.155 130.498 157.048 129.068 156.626C127.304 156.106 126.088 154.898 125.03 153.479L124.444 152.205C124.444 150.807 124.446 149.409 124.448 148.01C124.813 147.396 125.179 146.783 125.545 146.171C127.253 144.198 128.961 142.227 130.665 140.251C130.917 139.959 131.147 139.647 131.386 139.344C132.006 138.435 132.629 137.525 133.25 136.616C133.902 135.626 134.543 134.629 135.211 133.65C136.503 131.76 137.81 129.879 139.111 127.996C139.605 127.563 140.099 127.131 140.593 126.698L144.246 124.275C144.605 124.161 144.961 124.046 145.319 123.935C145.747 123.803 145.776 123.616 145.407 123.362C145.317 122.758 145.227 122.152 145.137 121.547C145.391 121.298 145.646 121.048 145.899 120.8C146.612 120.374 147.272 120.471 148.049 120.763C148.669 120.996 148.877 120.326 149.031 119.786C149.165 119.316 149.389 118.869 149.573 118.414C150.124 118.287 150.675 118.161 151.226 118.034C151.279 118.065 151.336 118.083 151.397 118.093L152.328 118.583C152.767 118.814 153.199 119.061 153.65 119.261C153.713 119.288 153.875 119.094 153.99 119.002C154.416 118.985 154.841 118.97 155.267 118.954C156.292 119.027 157.342 119.274 158.34 119.136C160.195 118.879 161.529 119.878 162.963 120.706C163.549 121.044 164.136 121.379 164.954 121.847C163.637 119.979 162.46 118.309 161.293 116.652C160.502 116.814 159.631 116.992 158.759 117.171C158.334 117.209 157.912 117.248 157.488 117.284C157.304 117.163 157.12 117.04 156.935 116.919C156.573 116.559 156.211 116.201 155.851 115.841C155.656 115.172 155.375 114.515 155.295 113.833C155.223 113.234 155.375 112.61 155.43 111.996C155.612 111.445 155.792 110.894 155.974 110.343C156.369 109.664 156.228 109.173 155.5 108.821C153.696 107.945 152.694 106.22 151.446 104.794C150.299 103.483 149.437 101.918 148.478 100.445C148.124 99.9012 147.854 99.3044 147.549 98.7275C147.056 97.7927 146.498 96.8835 146.094 95.9101C145.459 94.3744 144.931 92.795 144.351 91.2373C144.248 90.9599 144.114 90.6954 143.943 90.3079C143.697 90.3411 143.367 90.3868 142.99 90.4385C142.468 89.36 141.939 89.2811 140.843 90.2289C140.709 90.3447 140.542 90.4218 140.389 90.5174C139.899 90.3337 139.41 90.15 138.92 89.9663C138.863 89.8633 138.782 89.766 138.754 89.6559C138.525 88.7321 138.694 87.4848 137.112 87.6741C137.057 87.6813 136.973 87.562 136.923 87.4887C136.211 86.3975 135.097 85.966 133.942 85.4956C132.381 84.862 131.451 83.6112 131.198 81.9048C131.169 81.7045 131.064 81.5173 130.994 81.3226C130.932 80.7715 130.871 80.2204 130.809 79.6694C130.79 78.8539 130.983 78.1191 131.588 77.5276C131.665 77.4526 131.733 77.3276 131.735 77.2247C131.751 74.6607 133.527 71.7954 135.799 70.6675C135.915 70.6108 136.075 70.4583 136.065 70.3663C135.928 68.9742 136.945 68.1714 137.645 67.207C137.955 66.8948 138.266 66.5826 138.575 66.2704C138.635 66.2244 138.696 66.1805 138.756 66.1345C139.177 65.927 139.6 65.7193 140.02 65.5119C141.701 65.9086 142.602 64.4299 143.027 62.6099C143.251 62.1469 143.481 61.6858 143.697 61.2192C143.883 60.8225 144.054 60.4186 144.232 60.0162C144.753 59.0262 145.277 58.038 145.799 57.048C146.023 56.7542 146.247 56.4604 146.469 56.1684C147.38 55.788 148.291 55.4078 149.204 55.0277C149.696 54.9834 150.188 54.9395 150.681 54.8953C152.056 54.8107 152.909 54.1092 153.667 52.9245C154.708 51.2971 155.963 49.7691 157.326 48.3969C158.189 47.5283 159.378 46.8724 160.728 46.9974C161.446 47.0635 161.754 46.7145 162.142 46.2112C162.68 45.5133 163.295 44.8372 164.001 44.3138C165.294 43.3532 166.8 43.4359 168.286 43.7627C168.877 43.8933 169.434 44.1778 170.018 44.3523C170.152 44.3927 170.334 44.2642 170.495 44.2274C171.357 44.0292 172.22 43.8363 173.082 43.6416C173.632 43.5864 174.184 43.5315 174.735 43.4763C175.225 43.4193 175.714 43.3606 176.204 43.3036C176.696 43.4965 177.19 43.6873 177.683 43.8802C178.783 43.019 179.903 42.9822 181.116 43.6894C181.323 43.8105 181.755 43.5496 182.084 43.4653C182.938 43.0374 183.786 42.9766 184.627 43.5C186.073 44.4405 187.542 45.3551 187.978 47.0413C189.206 47.1754 190.34 47.1956 191.42 47.4455C192.56 47.7099 193.459 48.9773 193.446 50.2098C193.436 50.9849 193.789 51.3303 194.449 51.3743C196.561 51.5158 197.582 52.8859 198.278 54.6585C198.311 54.741 198.385 54.8054 198.44 54.879C198.478 55.2535 198.515 55.6283 198.554 56.001C198.585 57.2628 198.618 58.5267 198.651 59.8583C199.235 59.8583 199.601 59.8197 199.957 59.8657C200.699 59.961 201.244 60.3138 201.366 61.1201C201.502 62.0386 201.632 62.9585 201.764 63.877C202.009 64.6118 202.255 65.3466 202.499 66.0811C202.558 66.9995 203.474 66.8526 203.9 66.9316C204.799 67.0986 205.324 67.5708 205.827 68.221C206.062 68.5258 206.389 68.7611 206.674 69.0273C206.898 69.4626 207.12 69.8962 207.344 70.3315C207.273 71.4114 207.227 72.4913 207.12 73.5677C207.052 74.2529 206.83 74.9654 207.545 75.4376C210.948 77.6858 210.902 80.9736 209.475 83.9528C209.218 84.4911 208.935 85.0659 208.514 85.4645C207.409 86.5097 207.758 87.5931 208.176 88.7852C208.465 89.6063 208.533 90.5064 208.713 91.3676C208.744 91.5184 208.808 91.7095 208.922 91.7902C209.543 92.2273 209.561 92.7745 209.225 93.4268C208.784 94.2791 208.575 95.2525 208.147 96.1122C207.75 96.9093 207.291 97.7174 206.685 98.3566C205.993 99.0896 205.109 99.6424 204.308 100.274C203.873 100.629 203.437 100.985 203.002 101.34C202.618 102.034 202.234 102.728 201.763 103.58C202.951 103.347 203.939 103.459 204.602 104.374C204.788 104.629 204.76 105.039 204.83 105.379C204.779 105.505 204.734 105.634 204.674 105.755C204.328 106.44 204.222 107.337 203.206 107.437C202.967 107.768 202.455 108.207 202.536 108.409C202.929 109.394 202.055 109.735 201.713 110.338C201.531 110.521 201.162 110.812 201.197 110.872C201.437 111.293 201.76 111.667 202.058 112.057L202.049 112.048C202.37 112.47 202.692 112.893 203.013 113.315C203.456 113.912 203.884 114.524 204.354 115.097C204.462 115.229 204.72 115.295 204.911 115.297C205.812 115.308 206.716 115.286 207.618 115.275C208.162 115.365 208.706 115.455 209.249 115.547C210.515 115.967 211.793 116.359 213.046 116.814C214.57 117.369 215.608 118.576 216.684 119.703C218.341 121.437 220.016 123.158 221.575 124.977C223.284 126.968 224.869 129.063 226.507 131.113C226.814 131.664 227.121 132.215 227.428 132.766C227.918 133.685 228.41 134.601 228.901 135.52C229.159 136.067 229.418 136.616 229.678 137.163C229.955 137.841 230.232 138.521 230.51 139.199C230.651 139.57 230.792 139.941 230.934 140.31C231.731 142.628 232.524 144.946 233.327 147.262C233.421 147.53 233.56 147.784 233.678 148.044C233.878 148.888 234.08 149.729 234.28 150.572C234.459 151.062 234.637 151.551 234.815 152.041C235.048 152.919 235.279 153.795 235.513 154.673L235.496 154.668ZM175.266 123.542C174.23 123.963 173.195 124.385 172.169 124.802C173.783 126.841 174.411 129.339 175.388 131.833C176.266 129.996 177 128.298 177.877 126.676C178.827 124.925 179.622 123 181.701 122.192C181.793 122.157 181.845 122.016 181.898 121.944C181.439 121.119 181.005 120.339 180.55 119.518C179.565 120.344 178.625 121.136 177.683 121.928C176.876 122.466 176.07 123.004 175.264 123.542H175.266ZM114.456 261.681C114.698 261.6 114.939 261.519 115.182 261.436C113.679 261.077 112.235 260.871 110.79 260.683C110.746 260.678 110.678 260.863 110.619 260.961C109.883 260.93 109.06 261.076 108.819 260.015C104.821 261.576 100.844 263.078 96.9113 264.686C94.9646 265.481 93.0193 266.344 91.4892 267.872C90.4461 268.914 90.5031 269.371 91.9263 269.566C93.8404 269.829 95.791 269.858 97.7289 269.913C98.8916 269.946 100.058 269.794 101.221 269.805C102.117 269.814 103.013 269.952 103.559 269.999C104.55 268.692 105.245 267.457 106.233 266.537C108.602 264.331 111.512 262.957 114.454 261.681H114.456ZM183.336 123.847C183.253 123.814 183.171 123.779 183.086 123.746C182.543 124.534 181.995 125.32 181.459 126.114C181.279 126.382 181.066 126.653 180.98 126.955C180.111 129.953 178.623 132.629 176.834 135.162C176.643 135.432 176.54 135.914 176.645 136.209C176.906 136.93 177.266 137.63 177.67 138.286C178.449 139.553 179.286 140.786 180.052 141.961C181.558 141.384 182.851 140.945 184.201 141.575C185.491 142.176 186.238 143.214 186.378 144.704C187.256 141.405 188.176 138.207 189.914 135.314C189.62 135.035 189.344 134.7 189.001 134.469C188.782 134.322 188.369 134.188 188.202 134.294C187.586 134.688 186.922 135.094 186.486 135.657C185.472 136.973 183.259 137.191 182.24 135.891C181.428 134.855 180.974 133.556 181.193 132.272C181.562 130.098 182.161 127.961 182.691 125.816C182.857 125.147 183.117 124.501 183.334 123.845L183.336 123.847ZM178.844 155.825C179 156.315 179.025 157.081 179.42 157.509C180.487 158.668 181.189 159.987 181.683 161.704C183.006 157.397 184.26 153.31 185.515 149.224C184.552 149.694 183.815 150.243 183.07 150.779C182.633 151.093 182.065 151.299 181.755 151.707C180.746 153.026 179.83 154.416 178.845 155.825H178.844ZM146.408 145.938C146.461 145.888 146.754 145.701 146.924 145.436C147.231 144.962 147.45 144.435 147.733 143.945C148.058 143.383 147.9 142.929 147.363 142.69C146.676 142.383 145.857 142.786 145.71 143.432C145.585 143.983 145.507 144.545 145.382 145.096C145.24 145.714 145.409 146.048 146.408 145.938ZM173.016 220.811C174.211 221.252 175.344 221.669 176.659 222.152C176.334 220.796 174.814 220.148 175.251 218.699C174.536 219.375 173.82 220.051 173.016 220.811ZM140.707 186.857C140.804 186.923 140.902 186.991 140.997 187.057C141.186 186.767 141.377 186.479 141.566 186.188C141.491 186.137 141.418 186.087 141.342 186.036C141.129 186.309 140.918 186.583 140.705 186.857H140.707ZM187.889 214.392C187.889 214.333 187.889 214.274 187.889 214.217H187.412C187.412 214.276 187.412 214.335 187.412 214.392H187.889ZM99.1542 221.781L99.1634 221.864L99.1174 221.854L99.1542 221.781Z" fill="black"/>
<path d="M89.3842 230.571C89.746 230.896 90.1668 231.177 90.4624 231.555C92.7913 234.514 95.1001 237.49 97.4071 240.466C98.4247 241.777 99.4367 243.094 100.425 244.427C100.572 244.628 100.572 244.936 100.64 245.195C100.21 244.771 99.7803 244.348 99.3503 243.924C98.7865 243.13 98.2226 242.337 97.657 241.544C97.6074 241.488 97.5597 241.435 97.5101 241.38C97.4641 241.349 97.4145 241.34 97.3611 241.349C96.8652 240.726 96.3694 240.104 95.8717 239.483C95.1791 238.531 94.5051 237.565 93.7887 236.63C92.4607 234.9 91.098 233.197 89.7718 231.465C89.5789 231.214 89.5092 230.87 89.3804 230.571H89.3842Z" fill="black"/>
<path d="M81.0325 213.063C81.3117 213.77 81.6073 214.47 81.8664 215.184C82.6691 217.401 83.468 219.62 84.2357 221.848C84.3663 222.225 84.3277 222.658 84.368 223.066C83.7345 221.675 83.0843 220.292 82.4762 218.891C82.175 218.195 81.9527 217.464 81.6954 216.749C81.5358 216.07 81.3779 215.39 81.2179 214.71C81.1556 214.161 81.0951 213.612 81.0325 213.063Z" fill="black"/>
<path d="M106.077 188.05C107.304 188.403 108.255 187.681 109.269 187.222C109.644 187.051 109.989 186.814 110.349 186.608C110.389 186.649 110.431 186.685 110.479 186.72C110.16 187.499 109.84 188.276 109.482 189.15C108.277 188.818 107.004 188.467 105.733 188.118C105.847 188.096 105.963 188.074 106.077 188.052V188.05Z" fill="white"/>
<path d="M84.3973 223.101C84.6397 223.273 84.9594 223.395 85.1098 223.626C86.3277 225.5 87.5216 227.388 88.6953 229.287C88.8404 229.522 88.8255 229.856 88.8843 230.147C88.3905 229.476 87.8964 228.808 87.4023 228.137C87.1853 227.841 86.9687 227.546 86.75 227.252C85.966 225.869 85.1795 224.484 84.3955 223.101H84.3973Z" fill="black"/>
<path d="M88.6879 269.086C88.6825 269.949 88.6787 270.812 88.6733 271.676C88.5594 271.49 88.4454 271.304 88.3315 271.119C88.2748 270.877 88.2196 270.634 88.1626 270.392C88.3371 269.956 88.5116 269.521 88.6861 269.088L88.6879 269.086Z" fill="black"/>
<path d="M198.901 268.151C199.09 268.186 199.279 268.219 199.468 268.254C198.963 268.672 198.462 268.711 197.968 268.235C198.278 268.208 198.588 268.18 198.899 268.151H198.901Z" fill="black"/>
<path d="M123.777 261.785C123.715 261.759 123.654 261.733 123.592 261.708C124.02 261.651 124.446 261.595 124.874 261.538C124.508 261.619 124.143 261.702 123.777 261.783V261.785Z" fill="black"/>
<path d="M126.529 261.353C126.527 261.393 126.511 261.426 126.477 261.452C126.123 261.476 125.768 261.498 125.414 261.522C125.785 261.465 126.156 261.41 126.527 261.353H126.529Z" fill="black"/>
<path d="M114.572 262.473C113.424 262.282 112.278 262.093 111.132 261.895C110.996 261.871 110.867 261.801 110.737 261.754C110.794 261.656 110.863 261.47 110.907 261.476C112.353 261.663 113.796 261.869 115.299 262.229C115.056 262.31 114.816 262.391 114.573 262.473H114.572Z" fill="black"/>
<path d="M100.629 225.026C100.177 224.383 99.7232 223.738 99.2715 223.095L99.5504 222.906C99.973 223.547 100.397 224.19 100.82 224.831C100.756 224.895 100.693 224.961 100.629 225.026Z" fill="white"/>
<path d="M145.106 196.369L145.097 195.66C145.154 195.641 145.211 195.63 145.269 195.627C145.216 195.874 145.161 196.121 145.106 196.369Z" fill="black"/>
<path d="M127.666 261.037C127.524 261.121 127.381 261.206 127.24 261.289C127.381 261.204 127.524 261.12 127.666 261.037Z" fill="black"/>
<path d="M99.2695 222.574L99.231 222.647L99.2787 222.656L99.2695 222.574Z" fill="white"/>
<path d="M110.349 186.606C110.404 186.568 110.459 186.529 110.514 186.492C110.503 186.568 110.49 186.643 110.479 186.718C110.433 186.685 110.389 186.649 110.351 186.606H110.349Z" fill="white"/>
<path d="M193.337 186.632C194.707 185.556 196.3 184.968 197.999 184.832C198.851 184.764 199.685 185.269 200.284 185.921C201.281 187.007 201.762 188.414 201.593 189.793C201.419 191.217 200.945 192.682 199.485 193.498C198.967 193.788 198.531 194.218 198.037 194.554C196.816 195.386 195.462 195.221 194.382 194.143C193.644 193.406 192.872 192.701 192.154 191.942C191.954 191.731 191.722 191.329 191.796 191.11C192.275 189.679 192.222 188.072 193.206 186.81C193.251 186.75 193.293 186.691 193.337 186.63V186.632Z" fill="black"/>
<path d="M194.955 165.142C193.069 165.535 191.989 164.295 190.81 163.265C190.63 163.109 190.494 162.901 190.342 162.714C189.419 161.575 189.428 161.22 190.047 159.905C190.398 159.16 190.543 158.318 190.834 157.541C190.953 157.226 191.157 156.876 191.423 156.689C192.792 155.73 194.355 155.18 195.988 155.001C197.468 154.84 199.07 156.645 199.105 158.208C199.114 158.636 199.479 159.059 199.483 159.485C199.507 161.717 198.26 163.158 196.439 164.242C195.909 164.558 195.453 165.001 194.963 165.385C194.959 165.304 194.957 165.223 194.953 165.142H194.955Z" fill="black"/>
<path d="M185.421 210.24C183.781 210.198 183.007 208.901 181.975 208.03C181.933 207.994 181.931 207.911 181.891 207.87C181.115 207.114 180.603 206.318 181.156 205.165C181.397 204.662 181.474 204.068 181.564 203.506C181.777 202.197 182.73 201.486 183.773 200.977C184.787 200.481 185.895 200.073 187.004 199.906C188.251 199.719 190.04 201.396 190.459 202.731C190.848 203.975 190.685 205.194 190.4 206.383C190.273 206.915 189.79 207.413 189.364 207.815C188.635 208.504 187.866 209.165 187.033 209.718C186.582 210.019 185.965 210.074 185.423 210.24H185.421Z" fill="black"/>
<path d="M198.612 223.218C196.601 223.101 195.574 221.905 194.54 220.724C194.485 220.662 194.5 220.524 194.441 220.484C193.267 219.683 193.773 218.773 194.211 217.817C194.426 217.346 194.522 216.801 194.57 216.281C194.682 215.074 195.611 214.505 196.474 214.051C197.494 213.517 198.641 213.135 199.779 212.934C201.209 212.684 202.916 214.599 203.269 216.033C203.513 217.03 203.45 217.888 203.331 218.836C203.206 219.815 202.701 220.559 202.023 221.161C201.349 221.762 200.565 222.25 199.791 222.726C199.369 222.985 198.866 223.115 198.614 223.216L198.612 223.218Z" fill="black"/>
<path d="M207.146 176.884C206.198 178.174 204.813 178.058 203.469 177.983C202.04 177.904 200.385 176.071 200.37 174.643C200.363 173.879 200.33 173.117 200.298 172.353C200.245 170.999 201.825 168.386 203.09 167.93C203.621 167.739 204.269 167.544 204.76 168.266C204.934 168.522 205.496 168.602 205.882 168.604C206.541 168.608 206.949 168.85 207.212 169.455C207.341 169.754 207.752 169.855 207.941 170.004C208.492 170.434 208.808 171.178 209.175 171.82C209.271 171.987 209.172 172.259 209.251 172.443C209.736 173.576 209.447 175.049 208.556 175.771C208.228 176.038 207.875 176.273 207.531 176.522C207.403 176.642 207.273 176.761 207.144 176.881L207.146 176.884Z" fill="black"/>
<path d="M211.321 159.472C210.889 157.848 211.297 156.353 211.938 154.893C212.432 153.765 213.402 153.13 214.454 152.661C214.719 152.544 215.327 152.817 215.556 153.095C215.834 153.429 216.025 153.455 216.422 153.427C217.098 153.379 217.731 153.514 218.038 154.311C218.139 154.572 218.548 154.77 218.859 154.88C219.739 155.191 220.062 155.813 220.034 156.693C220.029 156.869 220.051 157.055 220.097 157.225C220.227 157.698 220.591 158.225 220.477 158.618C220.191 159.611 219.86 160.647 218.783 161.169C218.44 161.336 218.139 161.619 217.861 161.893C216.671 163.067 213.991 163.259 212.765 162.084C212.05 161.399 211.602 160.436 211.034 159.599C211.13 159.556 211.227 159.514 211.323 159.472H211.321Z" fill="black"/>
<path d="M198.361 146.374C198.093 144.71 198.473 143.195 199.175 141.764C199.685 140.721 200.629 140.074 201.654 139.578C201.84 139.488 202.271 139.514 202.328 139.62C202.818 140.568 203.834 140.23 204.547 140.597C204.795 140.726 204.938 141.042 205.157 141.244C205.383 141.451 205.616 141.709 205.891 141.799C206.847 142.106 207.243 142.741 207.172 143.712C207.162 143.832 207.137 144.018 207.199 144.067C208.129 144.782 207.699 145.661 207.337 146.367C206.973 147.072 206.325 147.634 205.779 148.238C205.524 148.521 205.173 148.725 204.942 149.023C204.178 150.003 203.088 149.864 202.084 149.803C201.467 149.767 200.827 149.495 200.269 149.193C199.15 148.591 198.769 147.458 198.363 146.374H198.361Z" fill="black"/>
<path d="M213.462 124.482C213.681 125.167 214.21 125.341 214.928 125.303C215.209 125.288 215.534 125.514 215.784 125.701C216.216 126.027 216.563 126.478 217.022 126.746C217.692 127.14 217.86 127.702 218.065 128.411C218.299 129.215 218.76 129.935 218.394 130.806C218.268 131.107 218.212 131.495 217.99 131.691C216.91 132.652 215.924 133.967 214.647 134.408C211.416 135.523 209.069 133.098 209.205 130.005C209.277 128.381 209.67 126.879 210.77 125.588C211.492 124.739 212.322 124.344 213.462 124.482Z" fill="black"/>
<path d="M215.218 216.314C215.358 214.282 215.793 212.385 217.547 211.053C218.366 210.431 219 210.458 219.801 211.076C220.078 211.289 220.505 211.305 220.857 211.424C221.153 211.526 221.566 211.562 221.713 211.773C222.147 212.403 222.626 212.897 223.394 213.1C223.585 213.149 223.785 213.408 223.862 213.616C224.141 214.361 224.536 215.116 224.579 215.884C224.643 217.076 224.09 218.101 223.14 218.873C222.637 219.28 222.101 219.657 221.651 220.116C220.903 220.878 218.896 221.264 217.272 220.296C215.834 219.438 215.152 218.044 215.22 216.314H215.218Z" fill="black"/>
<path d="M226.41 166.51C227.67 166.233 228.814 166.448 229.967 166.959C231.451 167.618 232.855 170.024 232.392 171.562C232.184 172.252 231.582 172.84 231.101 173.426C230.375 174.307 229.749 175.362 228.465 175.516C227.976 175.575 227.24 175.643 227.016 175.375C226.626 174.908 226.221 174.938 225.76 174.881C223.783 174.636 222.237 173.115 222.204 171.209C222.194 170.603 222.479 169.864 222.879 169.405C223.704 168.459 224.685 167.647 225.629 166.812C225.826 166.639 226.147 166.608 226.412 166.51H226.41Z" fill="black"/>
<path d="M230.004 196.058C232.137 196.126 234.297 198.051 234.558 200.066C234.686 201.054 234.571 201.796 233.731 202.443C233.228 202.83 232.767 203.385 232.513 203.964C232.085 204.937 231.116 205.007 230.373 205.418C230.078 205.582 229.233 205.415 229.167 205.218C228.932 204.529 228.43 204.718 227.988 204.651C226.072 204.353 224.582 203.025 224.268 201.177C224.123 200.325 224.507 199.497 225.128 198.916C226.002 198.099 226.928 197.307 227.936 196.668C228.52 196.299 229.31 196.251 230.006 196.06L230.004 196.058Z" fill="black"/>
<path d="M175.546 183.061C176.116 184.014 176.622 184.803 177.063 185.624C177.311 186.083 177.592 186.312 178.131 186.48C179.332 186.852 180.584 187.246 181.293 188.445C181.394 188.616 181.543 188.882 181.481 189.011C180.968 190.046 181.626 191.003 181.648 192.001C181.683 193.529 180.226 195.175 178.689 195.474C177.635 195.68 176.6 195.683 175.772 195.109C174.61 194.302 173.647 193.263 173.517 191.689C173.45 190.884 173.245 190.16 173.487 189.286C173.754 188.329 174.253 187.712 174.955 187.143C175.772 186.48 175.249 185.64 175.037 185.021C174.793 184.305 174.866 183.842 175.546 183.061Z" fill="black"/>
<path d="M170.653 207.198C170.637 209.073 169.094 210.64 167.281 210.699C166.225 210.734 165.156 210.723 164.383 209.957C163.723 209.303 163.01 208.528 162.763 207.677C162.458 206.64 162.467 205.448 162.608 204.357C162.755 203.22 163.683 202.457 164.568 201.809C164.919 201.552 165.499 201.432 165.933 201.502C166.95 201.67 167.964 201.925 168.938 202.265C169.895 202.599 170.495 203.809 170.446 204.877C170.427 205.253 170.583 205.637 170.629 206.021C170.662 206.287 170.644 206.561 170.648 206.831C170.65 206.954 170.651 207.075 170.653 207.198Z" fill="black"/>
<path d="M156.341 101.647C158.161 101.572 158.459 101.769 159.767 103.727C161.267 102.913 162.781 102.072 164.32 101.28C164.641 101.115 165.103 100.993 165.42 101.095C165.858 101.234 166.045 101.469 165.71 102.118C164.708 104.061 163.071 105.093 161.139 105.815C159.727 106.344 158.648 105.637 157.587 104.893C157.666 104.843 157.745 104.794 157.823 104.746C157.728 104.43 157.675 104.094 157.528 103.804C157.188 103.132 156.802 102.481 156.339 101.647H156.341Z" fill="black"/>
<path d="M186.042 89.8937C185.259 89.3153 185.138 88.2886 185.478 87.4271C186.365 85.1678 188.371 84.2698 190.391 83.5315C191.4 83.1641 192.597 83.3181 193.709 83.2356C193.743 83.3974 193.78 83.5588 193.815 83.7205C192.331 84.2716 190.845 84.8245 189.295 85.4011C189.704 85.9649 189.982 86.2902 190.189 86.654C190.373 86.9754 190.4 87.2837 190.101 87.6384C189.822 87.9672 189.688 88.4245 189.512 88.834C189.238 89.4753 188.804 89.7691 187.991 89.7928C188.035 89.3373 188.081 88.891 188.127 88.417C187.856 88.2811 187.543 88.1215 187.159 87.9286C186.789 88.5788 186.433 89.2032 186.04 89.8937H186.042Z" fill="black"/>
<path d="M147.075 178.846C145.934 178.927 145.027 176.355 145.725 174.526C148.434 174.401 151.105 174.618 153.691 175.579C151.457 175.914 149.248 175.839 147.075 175.235V178.846Z" fill="black"/>
<path d="M181.455 183.809C180.943 184.329 180.671 184.836 180.294 184.931C179.71 185.08 178.397 184.095 178.566 183.743C178.805 183.238 179.437 182.429 179.664 182.501C180.291 182.7 180.794 183.287 181.457 183.809H181.455Z" fill="black"/>
<path d="M170.921 180.905C169.656 179.097 169.803 177.67 171.256 176.734C171.542 176.548 171.95 176.539 172.308 176.493C172.4 176.482 172.569 176.623 172.6 176.726C172.622 176.798 172.492 176.956 172.392 177.02C171.035 177.911 170.543 179.149 170.92 180.905H170.921Z" fill="black"/>
<path d="M148.636 179.101C148.474 178.479 148.329 177.918 148.177 177.334C149.297 177.52 149.444 178.064 148.636 179.101Z" fill="black"/>
<path d="M171.803 183.994C171.88 184.007 171.955 184.022 172.032 184.035C172 184.073 171.966 184.114 171.935 184.152C171.882 184.099 171.829 184.044 171.779 183.991C171.783 183.991 171.803 183.994 171.803 183.994Z" fill="black"/>
<path d="M171.715 184.237C171.746 184.158 171.779 184.077 171.807 183.996C171.803 183.996 171.783 183.991 171.779 183.991C171.792 184.106 171.807 184.224 171.821 184.34C171.784 184.307 171.748 184.274 171.715 184.237Z" fill="black"/>
</svg>
