<svg width="297" height="262" viewBox="0 0 297 262" fill="none" xmlns="http://www.w3.org/2000/svg">
<path d="M82.7355 235.338C85.016 230.25 85.4398 224.919 85.8963 219.486C83.7374 219.529 82.0701 218.648 80.3774 217.762C79.2749 217.184 78.0254 216.9 76.915 216.336C74.8335 215.278 72.874 214.072 71.3111 212.199C70.4716 211.194 69.2084 210.546 68.0964 209.798C66.2897 208.582 65.2412 206.761 65.1793 204.702C65.0943 201.88 65.5043 199.042 65.7075 196.21C65.7347 195.821 65.8253 195.433 65.835 195.044C65.9028 192.38 65.9512 189.716 66.0206 187.052C66.0709 185.071 66.2181 183.088 66.1872 181.108C66.1503 178.79 65.9472 176.477 65.8565 174.161C65.7597 171.703 65.6475 169.243 65.6553 166.783C65.6687 162.583 65.6165 158.37 65.8853 154.184C66.1119 150.652 66.0303 147.154 65.8797 143.632C65.7943 141.656 66.1484 139.663 66.2181 137.674C66.245 136.922 66.0344 136.161 65.9222 135.328C61.7884 138.382 56.9739 139.317 52.6582 141.389C50.7337 142.313 48.9986 143.701 47.2887 145.026C44.8454 146.92 42.4064 148.766 39.5378 149.988C38.5474 150.411 37.7679 151.352 36.8954 152.062C36.3791 152.481 35.8703 152.912 35.3555 153.34C35.8703 154.53 35.5318 155.742 34.4058 156.707C31.9784 158.79 29.0922 160.071 26.2992 161.507C25.2391 162.052 23.8733 161.368 23.237 159.976C22.537 158.446 22.0069 156.832 21.3297 155.289C21.0125 154.565 20.6102 153.84 20.0955 153.256C18.5288 151.481 16.728 150.014 14.7066 148.76C13.3856 147.941 12.2983 146.701 11.1823 145.57C10.1976 144.571 9.09508 143.59 8.44709 142.376C7.35609 140.333 6.38892 138.176 5.71964 135.955C4.59386 132.212 3.75045 128.379 2.77165 124.59C2.54922 123.726 2.20297 122.896 2.0018 122.027C1.40987 119.478 2.6421 117.685 4.47779 116.235C4.9788 115.84 5.73127 115.507 6.32704 115.571C7.25358 115.668 7.91704 116.407 8.38324 117.253C9.52255 119.33 10.8979 121.209 12.6021 122.856C14.08 124.286 15.4726 125.814 16.8265 127.369C18.6332 129.441 21.03 130.325 23.5214 131.076C24.2718 131.304 25.0128 131.589 25.7247 131.921C26.7207 132.388 26.9801 132.983 26.742 134.053C26.6317 134.555 26.477 135.045 26.3842 135.55C26.2623 136.21 26.682 136.546 27.1967 136.357C29.125 135.643 31.0517 136.422 32.9785 136.267C33.7251 136.208 34.4464 136.351 35.0771 135.757C35.3033 135.544 35.7137 135.411 36.0231 135.437C38.5067 135.647 40.7719 134.755 43.1009 134.104C46.3371 133.198 48.9929 131.316 51.5869 129.257C55.0181 126.534 58.475 123.841 61.9547 121.183C65.6068 118.392 69.3556 115.731 72.9553 112.873C75.9555 110.494 78.8726 107.995 81.6985 105.404C84.3137 103.007 87.1321 100.929 90.1536 99.1352C91.8093 98.1525 93.5657 97.3476 95.2796 96.4597C93.5057 96.4597 91.674 96.5032 89.8461 96.4479C87.8693 96.3885 85.991 95.8686 84.2675 94.8619C83.9849 94.6976 83.6502 94.2727 83.6658 93.9858C83.7337 92.748 83.9231 91.516 84.0915 90.0683C83.4627 89.4038 82.5786 88.4842 81.7082 87.551C80.6347 86.4001 80.3581 84.9467 80.1221 83.4377C80.0274 82.8325 79.6405 82.0951 79.1589 81.7686C77.6269 80.7286 76.855 79.1898 76.3577 77.5268C75.3055 73.995 73.4506 70.9811 71.0501 68.2778C68.2027 65.0703 66.1212 61.3841 64.5255 57.3935C63.9064 55.8452 63.2451 54.3145 62.6919 52.7444C62.4963 52.1869 62.4925 51.5261 62.5372 50.921C62.5835 50.2766 62.9085 49.8788 63.5604 49.4912C65.2549 48.4848 66.6554 48.5442 68.1564 49.8631C71.2242 52.5604 74.3676 55.1707 77.5553 57.8821C78.7586 56.6462 80.1531 55.2005 81.5572 53.7687C84.1068 51.1702 87.0627 49.0979 90.0008 47.0055C92.1731 45.4591 94.3202 43.8673 96.5622 42.4276C98.2508 41.3438 100.067 40.4678 101.829 39.5067C103.812 38.4252 105.741 37.205 107.806 36.3209C109.269 35.696 110.913 35.4944 112.488 35.1659C113.969 34.8576 115.466 34.6144 116.96 34.3751C117.759 34.2464 118.244 35.0375 118.348 35.8602C118.467 36.8014 118.097 38.0533 119.455 38.5498C119.712 38.6447 119.917 39.1508 119.977 39.4968C120.264 41.1895 120.527 42.8903 120.722 44.597C120.778 45.0853 120.589 45.6035 120.504 46.1652C129.624 59.909 138.872 73.6726 148.488 87.4462C149.822 84.0626 151.248 81.0864 151.553 77.6968C151.735 75.6817 152.248 73.6982 152.552 71.691C152.774 70.2178 152.977 68.7308 153.051 67.2436C153.136 65.5211 152.979 63.7849 153.091 62.0666C153.258 59.5055 153.631 56.9606 153.795 54.3995C153.913 52.5623 153.79 50.7095 153.859 48.8663C153.915 47.3854 154.116 45.9099 154.229 44.4309C154.434 41.7554 154.436 39.046 154.877 36.412C155.188 34.5512 156.055 32.783 156.724 30.9935C157.227 29.6468 157.749 28.302 158.372 27.0109C159.566 24.5427 161.722 23.4215 164.198 22.6541C165.523 22.2448 166.657 22.4803 167.949 23.0972C168.301 22.3062 168.638 21.5608 168.965 20.8093C170.932 16.2886 174.046 12.7469 177.81 9.70521C180.818 7.27697 184.06 5.23821 187.658 3.98223C190.438 3.0135 193.394 2.56651 196.281 1.93357C198.096 1.5361 199.916 1.45303 201.785 1.69841C204.744 2.08789 207.272 3.20136 209.611 5.16504C212.64 7.70798 215.12 10.6803 217.37 14.0006C217.874 12.9226 218.849 12.6478 219.811 12.4184C221.983 11.8983 224.163 11.4021 226.351 10.9551C228.668 10.4806 230.995 10.0493 233.326 9.64609C235.382 9.29016 237.446 8.95597 239.516 8.68886C240.688 8.53869 241.879 8.52655 243.063 8.47543C244.988 8.39236 246.915 8.28149 248.841 8.26775C250.29 8.25785 251.739 8.36073 253.188 8.4537C254.892 8.56233 256.613 8.58598 258.287 8.89047C259.438 9.10006 260.523 9.7052 261.623 10.1682C263.064 10.7752 264.494 11.4158 265.926 12.0469C267.117 12.5728 268.111 13.352 268.776 14.5048C269.401 15.5866 269.957 16.7116 270.583 17.7915C271.349 19.1085 271.194 20.5048 271.046 21.9243C270.926 23.0794 270.889 24.242 270.806 25.5514C271.521 25.1974 272.032 24.8612 272.589 24.6852C273.978 24.2462 275.371 23.7775 276.796 23.5085C278.295 23.2257 279.59 23.8347 280.706 24.8887C281.425 25.5689 281.951 26.3917 283.156 26.5757C283.965 26.6984 284.634 27.7365 285.383 28.3416C286.969 29.627 288.59 30.8689 290.151 32.1859C290.853 32.7792 291.604 33.416 292.046 34.201C293.015 35.9155 294.734 37.1516 295.106 39.2418C295.259 40.0939 295.425 40.9483 295.653 41.7828C295.887 42.6372 295.369 42.8765 294.644 43.3037C294.209 48.4512 292.537 53.5512 291.308 58.7581C290.399 62.6104 289.675 66.51 288.865 70.3859C288.563 71.8275 288.282 73.2752 287.923 74.7011C287.814 75.1302 287.493 75.5158 287.22 75.8836C287.128 76.0101 286.888 76.0219 286.541 76.1504C286.541 78.2447 286.53 80.5605 286.569 82.8779C286.571 83.0284 286.957 83.2993 287.162 83.2974C288.577 83.2894 289.223 84.1811 288.731 85.5179C288.563 85.9768 288.42 86.4455 288.23 87.0171C289.248 88.5181 289.919 90.3374 289.824 92.378C289.656 96.0009 289.603 99.6417 289.201 103.239C288.855 106.334 288.064 109.375 287.513 112.448C287.029 115.141 286.565 117.843 286.164 120.55C285.681 123.823 284.948 127.007 283.66 130.066C282.59 132.609 281.696 135.231 280.735 137.822C280.058 139.647 278.853 141.002 277.29 142.101C275.926 143.062 274.657 144.164 273.318 145.166C273.092 145.337 272.728 145.404 272.44 145.38C271.763 145.327 271.235 145.388 270.848 146.102C269.171 149.193 268.446 152.582 268.007 156.015C267.527 159.753 267.392 163.534 266.964 167.277C266.691 169.674 266.208 172.049 265.736 174.416C265.035 177.918 264.266 181.405 263.519 184.897C262.97 187.472 262.356 190.033 261.877 192.621C261.554 194.366 261.362 196.141 261.211 197.913C260.929 201.255 260.71 204.601 260.48 207.947C260.391 209.25 260.385 210.562 260.256 211.861C260.186 212.557 260.02 213.277 259.738 213.912C259.408 214.649 258.967 215.141 257.923 215.146C256.095 215.151 254.269 215.533 252.441 215.753C250.327 216.008 248.217 216.28 246.098 216.502C243.801 216.743 241.479 216.822 239.198 217.172C235.73 217.706 232.293 218.438 228.834 219.027C227.997 219.17 227.119 219.047 226.266 219.122C223.267 219.385 220.263 219.617 217.277 219.983C214.549 220.317 211.851 220.977 209.118 221.183C206.073 221.412 203.003 221.284 199.945 221.321C197.602 221.351 195.256 221.327 192.918 221.45C189.099 221.652 185.285 221.95 181.47 222.215C178.706 222.407 175.944 222.759 173.181 222.753C171.396 222.749 169.597 222.296 167.831 221.916C166.574 221.646 165.314 221.266 164.144 220.734C163.488 220.435 162.941 219.785 162.469 219.189C161.906 218.48 161.322 218.276 160.509 218.651C157.691 219.953 154.83 220.247 151.865 219.112C151.082 218.814 150.201 218.717 149.356 218.664C145.731 218.438 142.1 218.325 138.481 218.046C136.352 217.882 134.241 217.465 132.115 217.206C131.57 217.139 131.001 217.293 130.45 217.259C128.833 217.161 127.22 216.983 125.6 216.902C124.378 216.84 123.146 216.943 121.925 216.854C119.045 216.646 116.17 216.342 113.288 216.128C111.526 215.998 109.754 216.006 107.992 215.881C105.826 215.729 103.661 215.511 101.499 215.296C101.292 215.276 101.007 215.096 100.926 214.914C100.551 214.056 99.9957 214.062 99.2393 214.366C98.7168 214.576 98.1114 214.564 97.562 214.718C96.0128 215.153 95.1499 216.852 95.3937 218.47C95.8619 221.572 96.2641 224.691 96.5641 227.815C96.802 230.287 96.8019 232.783 96.9895 235.261C97.0726 236.349 97.3339 237.424 97.5717 238.492C97.6183 238.704 97.9471 239.026 98.1096 239.004C98.9721 238.892 99.189 239.54 99.2547 240.108C99.3378 240.838 99.2025 241.595 99.1465 242.34C99.075 243.294 98.9356 244.245 98.9162 245.198C98.8793 247.092 98.9046 248.987 98.9065 250.882C98.9065 251.109 98.9065 251.344 98.9549 251.564C99.4481 253.897 98.9218 254.401 96.6122 254.639C95.2099 254.783 93.7901 254.73 92.3878 254.866C91.1362 254.989 89.8479 255.092 88.6622 255.481C86.3508 256.242 84.0274 256.296 81.6444 256.132C78.7679 255.936 76.064 256.626 73.3462 257.654C70.3247 258.798 67.1795 259.695 64.0148 260.31C61.3899 260.821 59.0241 259.614 56.8811 258.058C55.7494 257.237 55.1538 256.47 55.2444 254.733C55.3547 252.604 56.4051 251.524 57.8115 250.539C58.5059 250.055 59.4229 249.831 60.272 249.665C62.1734 249.294 63.6764 248.131 65.158 247.041C68.1777 244.818 71.1179 242.475 73.9691 240.033C75.2592 238.929 76.3018 237.507 77.385 236.169C78.6617 234.588 80.1743 234.3 81.9616 235.071C82.1901 235.17 82.4357 235.229 82.7295 235.324L82.7355 235.338ZM115.772 100.775C115.648 100.729 115.524 100.684 115.401 100.638C115.46 100.731 115.521 100.824 115.581 100.917C116.215 101.443 116.857 101.959 117.482 102.499C119.322 104.093 121.144 105.707 122.991 107.291C124.753 108.803 126.603 110.218 128.299 111.801C131.111 114.428 133.343 117.53 135.104 120.989C135.361 121.495 135.709 121.954 136.017 122.435C136.301 121.527 136.595 120.653 136.396 119.917C135.932 118.201 135.359 116.488 134.595 114.89C133.115 111.799 130.394 109.923 127.672 108.143C124.803 106.268 121.825 104.575 118.902 102.788C117.844 102.141 116.815 101.445 115.772 100.773V100.775Z" fill="white"/>
<path d="M280.069 64.5208C280.214 64.0064 279.748 64.2418 279.595 64.1626C278.609 63.6527 277.583 63.16 276.55 62.8239C275.469 62.4721 275.742 61.9439 275.889 61.2123C276.516 58.0699 276.988 54.8922 278.05 51.8546C278.187 51.4591 278.378 51.0795 278.582 50.7156C278.852 50.2309 279.084 49.8989 279.616 50.575C279.961 51.014 280.671 50.8261 281.21 50.9667C284.011 51.6923 286.758 52.5032 289.222 54.1563C290.052 54.7142 290.209 55.4002 289.982 56.136C289.164 58.8096 288.762 61.6414 287.203 64.0421C287.081 64.23 287.131 64.4118 287.124 64.6057C287.095 65.2524 286.729 65.4658 286.122 65.454C284.862 65.4285 283.615 65.2741 282.408 64.9498C281.868 64.8035 281.738 64.9003 281.646 65.3987C281.599 65.6419 281.444 65.893 281.274 66.0771C280.94 66.4387 281.085 66.6662 281.369 66.965C282.224 67.8586 282.773 68.8475 282.044 70.1031C281.92 70.3169 282.062 70.4472 282.183 70.4808C284.379 71.0802 285.356 72.957 286.456 74.7088C286.505 74.7861 286.605 74.8296 286.743 74.9363C287.172 73.8072 287.279 72.6365 287.503 71.4994C288.526 66.3202 289.702 61.1806 291.091 56.0865C292.186 52.0642 293.187 48.0123 293.928 43.9009C294.084 43.0347 294.372 42.1944 294.584 41.34C294.719 40.8042 295.103 40.5668 295.575 40.5985C296.016 40.6301 296.109 41.0554 296.222 41.4506C296.675 43.0606 296.328 44.6683 296.119 46.2403C295.09 53.9666 292.984 61.4672 291.414 69.0807C290.578 73.1269 289.836 77.1946 289.07 81.2564C289.004 81.6005 288.841 82.0811 289.416 82.1938C290.522 82.4114 290.362 83.2559 290.141 83.9479C289.901 84.7013 289.808 85.5458 289.257 86.1688C289.044 86.41 289.215 86.5011 289.341 86.6334C291.667 89.1054 292.365 92.0953 292.221 95.4453C291.957 101.477 291.304 107.461 290.385 113.417C289.54 118.889 288.116 124.205 286.367 129.445C285.346 132.504 284.512 135.629 283.458 138.682C282.694 140.895 281.388 142.635 279.572 144.01C279.297 144.217 278.98 144.377 278.593 144.306C277.516 144.107 276.926 144.381 276.516 145.396C276.187 146.213 275.498 146.365 274.823 146.432C273.723 146.539 272.904 147.095 272.67 148.145C271.036 155.511 269.349 162.865 267.805 170.252C266.614 175.951 265.536 181.676 264.54 187.413C263.882 191.205 263.445 195.038 262.935 198.858C262.542 201.799 261.836 204.668 261.149 207.546C260.875 208.699 261.529 209.828 261.428 211.012C261.354 211.889 261.482 212.786 261.178 213.637C261.07 213.939 260.958 214.333 260.724 214.479C259.662 215.139 259.047 216.472 257.666 216.634C256.996 216.714 257.186 217.23 257.168 217.603C257.083 219.405 257.058 221.208 256.389 222.927C256.228 223.338 255.991 223.667 255.762 224.021C255.236 224.841 255.427 225.229 256.367 225.411C257.236 225.579 258.099 225.798 258.95 226.048C259.271 226.141 259.66 226.309 259.617 226.763C259.582 227.145 259.256 227.272 258.932 227.353C258.031 227.578 257.139 227.804 256.187 227.786C253.934 227.744 251.679 227.814 249.425 227.762C247.118 227.709 244.82 227.476 242.531 227.159C242.343 227.133 242.166 227.044 241.982 226.983C241.562 226.841 241.164 226.58 241.148 226.135C241.137 225.771 241.566 225.595 241.876 225.427C242.995 224.816 244.236 224.62 245.464 224.432C245.947 224.357 245.974 224.169 245.864 223.793C245.398 222.207 245.268 220.58 245.324 218.936C245.346 218.345 245.117 218.205 244.591 218.276C239.736 218.93 234.883 219.615 230.02 220.204C226.585 220.619 223.136 220.924 219.689 221.231C214.385 221.699 209.079 222.142 203.771 222.567C200.701 222.812 197.625 223.006 194.552 223.214C191.643 223.41 188.731 223.599 185.82 223.777C185.439 223.801 185.265 223.926 185.172 224.329C184.375 227.786 184.021 231.318 183.424 234.808C183.271 235.704 183.048 236.596 182.77 237.46C182.594 238.01 182.775 238.085 183.23 238.063C184.356 238.012 185.458 238.192 186.546 238.465C186.876 238.548 187.366 238.621 187.356 239.01C187.344 239.441 186.851 239.641 186.482 239.617C185.54 239.556 184.635 239.861 183.704 239.839C182.334 239.809 181.066 240.173 179.769 240.624C178.263 241.15 176.653 241.356 175.042 241.075C172.371 240.608 169.7 240.13 167.034 239.629C166.44 239.519 165.85 239.327 165.337 238.983C164.763 238.597 164.767 238.192 165.436 237.946C166.722 237.474 168.055 237.324 169.405 237.567C169.953 237.666 170.657 237.877 170.984 237.569C171.322 237.248 170.792 236.643 170.626 236.179C169.759 233.752 169.394 231.211 168.925 228.694C168.639 227.153 168.235 225.595 168.404 224.044C168.51 223.067 168.169 222.872 167.438 222.82C165.962 222.719 164.902 221.76 163.761 220.977C163.482 220.785 163.239 220.625 162.888 220.661C159.076 221.054 155.292 220.902 151.497 220.303C148.135 219.773 144.762 219.271 141.354 219.055C138.448 218.869 135.545 218.606 132.651 218.274C126.745 217.594 120.824 217.307 114.882 217.267C112.151 217.249 109.42 217.05 106.692 216.888C105.839 216.836 104.998 216.631 104.148 216.51C103.947 216.482 103.725 216.476 103.707 216.233C103.69 216.01 103.893 215.871 104.081 215.84C104.744 215.729 105.41 215.586 106.077 215.573C109.481 215.493 112.888 215.357 116.289 215.418C121.563 215.513 126.827 215.834 132.073 216.478C136.831 217.064 141.613 217.434 146.383 217.924C149.389 218.235 152.36 218.867 155.389 218.988C157.219 219.061 159.047 219.245 160.881 219.071C161.316 219.029 161.751 218.954 162.237 219.326C160.529 215.622 160.631 211.797 160.612 207.995C160.593 204.184 160.393 200.358 160.666 196.567C161.173 189.501 161.264 182.433 161.165 175.361C161.117 171.952 160.815 168.549 160.449 165.153C160.138 162.258 159.871 159.355 159.652 156.45C159.513 154.615 159.565 154.692 157.766 154.588C156.122 154.49 154.702 155.355 153.112 155.493C150.888 155.687 148.681 156.108 146.462 156.383C143.735 156.721 141.002 157.024 138.268 157.313C136.578 157.493 134.879 157.607 133.187 157.777C130.898 158.008 128.614 158.284 126.324 158.511C123.96 158.744 121.592 158.96 119.225 159.152C116.027 159.413 112.832 159.676 109.63 159.877C108.186 159.968 106.733 159.935 105.282 159.931C104.677 159.931 104.141 159.537 104.106 159.001C104.073 158.501 104.678 158.274 105.172 158.181C107.533 157.738 109.926 157.595 112.313 157.39C113.048 157.326 113.756 157.054 114.536 157.113C110.114 155.893 106.841 152.764 103.276 150.037C102.707 154.162 102.187 158.173 101.597 162.171C100.984 166.336 100.794 170.52 100.806 174.725C100.829 183.173 100.779 191.621 100.878 200.067C100.908 202.717 101.413 205.357 101.531 208.008C101.686 211.473 101.922 214.954 101.268 218.405C101.197 218.786 101.226 219.191 101.226 219.585C101.224 220.987 100.311 222.144 98.9605 222.239C98.388 222.278 98.5002 222.579 98.5292 222.862C98.9392 226.9 99.3802 230.934 99.7246 234.978C99.8175 236.072 99.7149 237.209 100.173 238.287C100.4 238.029 100.744 237.644 101.117 237.968C101.591 238.38 102.03 238.917 101.98 239.612C101.86 241.243 101.704 242.873 101.518 244.498C101.241 246.926 100.928 249.349 100.626 251.811C101.067 251.758 101.156 251.35 101.541 251.196C101.616 251.362 101.81 251.582 101.765 251.724C101.481 252.641 102.081 252.863 102.711 253.152C103.526 253.524 104.303 253.982 105.102 254.392C105.41 254.548 105.669 254.749 105.649 255.121C105.628 255.529 105.315 255.59 104.976 255.681C104.472 255.815 103.97 255.863 103.454 255.863C102.835 255.863 102.291 255.903 101.717 256.369C101.048 256.915 100.046 256.794 99.208 256.808C95.734 256.866 92.2774 257.334 88.8168 257.374C84.3543 257.423 80.0698 258.535 75.7426 259.322C72.8624 259.846 70.0499 260.846 67.1641 261.446C64.3864 262.023 61.5949 262.424 58.8656 261.202C56.877 260.312 55.3431 258.94 54.6427 256.769C54.5558 256.502 54.4127 256.342 54.2058 256.33C53.0276 256.266 52.9463 255.345 52.9038 254.506C52.8479 253.401 53.1707 252.386 53.9058 251.516C55.3703 249.78 57.2292 248.647 59.3125 247.939C64.1791 246.29 67.9416 243.062 71.4291 239.378C73.0849 237.63 74.7075 235.84 76.5608 234.292C77.3559 233.628 78.1044 233.123 79.242 233.408C79.8686 233.564 80.3946 232.771 81.0871 232.763C82.0931 232.752 81.8609 231.903 82.0041 231.332C82.3522 229.934 82.335 228.423 83.5573 227.042C81.6019 227.568 79.8976 227.371 78.2091 227.446C75.9864 227.545 73.7599 227.426 71.5876 226.813C71.1504 226.69 70.6766 226.499 70.7444 226.069C70.8141 225.621 71.0269 225.142 71.6942 225.013C73.2705 224.713 73.1971 224.671 72.8896 223.022C72.6805 221.903 72.578 220.756 72.5917 219.601C72.607 218.057 72.6827 216.506 72.4464 214.968C72.3651 214.439 72.5414 213.933 72.6864 213.294C76.1933 215.268 79.6326 217.303 83.3117 218.843C82.6948 218.13 81.8319 217.839 81.0699 217.378C77.9825 215.511 74.9863 213.484 71.7676 211.847C71.2279 211.572 70.955 211.07 70.6012 210.595C69.3149 208.863 69.0808 207.044 69.6884 204.975C70.4194 202.485 70.9144 199.924 71.8295 197.49C72.0326 196.948 72.1873 196.369 72.7833 196.1C73.1024 195.955 72.9689 195.647 72.9861 195.404C73.259 191.593 73.2224 187.775 73.168 183.96C73.1177 180.432 73.2512 176.91 73.404 173.392C73.6112 168.642 74.0075 163.9 74.3056 159.154C74.4622 156.664 74.6016 154.17 74.7157 151.678C74.8782 148.103 75.1913 144.542 75.4563 140.974C75.6457 138.419 75.8354 135.862 76.1064 133.315C76.2708 131.763 76.437 130.193 76.9612 128.697C77.0502 128.444 76.884 128.098 76.7911 127.507C76.553 128.47 76.3558 129.141 76.2261 129.825C75.8451 131.844 74.5047 133.276 73.3093 134.782C71.5451 137.009 69.4096 138.856 67.3147 140.739C66.92 141.093 66.6569 141.433 66.8969 142.008C66.9934 142.24 66.9878 142.524 66.9878 142.785C66.9878 147 67.1231 151.22 66.7828 155.422C66.034 164.643 65.8968 173.882 66.0709 183.119C66.1599 187.828 66.2953 192.535 66.1327 197.235C66.044 199.833 66.1424 202.428 66.0399 205.022C66.0052 205.918 66.2431 206.771 66.7906 207.504C66.9838 207.763 67.191 208.016 67.3553 208.293C67.6163 208.732 67.9223 209.32 67.5838 209.699C67.1969 210.133 66.715 209.644 66.3281 209.393C65.0652 208.57 64.4964 207.437 64.477 205.849C64.4073 200.255 64.9064 194.676 64.893 189.085C64.8795 183.068 64.8542 177.05 65.0477 171.035C65.2489 164.77 65.4693 158.505 65.748 152.244C65.8833 149.205 65.8021 146.157 65.8058 143.112C65.8058 142.9 65.9143 142.61 65.6705 142.477C65.3999 142.329 65.2836 142.629 65.1348 142.772C61.7342 146.025 58.1633 149.094 54.9484 152.553C54.5618 152.968 54.3643 153.365 54.4108 153.937C54.4552 154.495 54.4183 155.056 54.4205 155.618C54.4243 157.257 53.7376 158.442 52.4088 159.413C51.3778 160.166 50.2383 160.817 49.4413 161.92C49.1338 162.347 48.48 162.488 47.8765 162.136C46.3833 161.266 45.4179 159.978 44.7041 158.39C43.5612 155.845 42.8955 153.15 42.1276 150.377C40.7175 151.465 39.1661 152.153 37.7038 153.003C37.1778 153.31 36.7365 153.812 37.0519 154.655C37.7269 156.462 37.4622 157.212 35.9746 158.367C34.3091 159.66 32.454 160.621 30.5757 161.525C29.8659 161.867 29.2662 162.454 28.5796 162.713C25.1324 164.008 22.3334 162.871 20.5599 159.296C19.9232 158.015 19.3604 156.713 19.0025 155.323C18.871 154.809 18.6119 154.477 18.0643 154.232C14.7837 152.754 12.3079 150.233 9.97693 147.542C5.45446 142.323 3.18167 135.979 1.19704 129.459C0.164108 126.07 -0.307902 122.68 0.214361 119.168C0.686338 115.99 3.90892 112.919 6.99421 112.725C8.08324 112.656 8.7448 113.439 9.32316 114.24C10.0079 115.189 10.4606 116.273 10.95 117.335C12.5942 120.916 15.3063 123.524 18.3315 125.868C20.7824 127.768 23.4942 129.261 25.9759 131.106C26.7785 131.703 27.8542 132.281 27.3607 133.687C27.2448 134.019 27.5389 134.057 27.773 134.017C29.9491 133.655 32.1427 133.875 34.3244 133.877C36.0055 133.877 37.6419 133.542 39.3036 133.426C39.8318 133.388 40.2146 133.234 39.9768 132.437C39.6808 131.446 40.3403 130.305 41.2919 129.692C42.6673 128.808 44.1434 128.124 45.6016 127.408C46.0176 127.204 46.3851 126.975 46.6945 126.633C50.1998 122.753 54.3661 119.662 58.3646 116.37C62.4227 113.028 66.2818 109.464 69.9724 105.699C74.3694 101.212 78.7738 96.7227 83.6598 92.7736C83.8611 92.6116 84.0624 92.4493 84.399 92.1764C83.4298 91.9608 82.8223 91.4703 82.1375 91.1361C81.1646 90.6617 80.7293 89.7639 80.594 88.7948C80.4643 87.8791 81.1899 87.8635 81.9131 87.9999C81.0331 87.6698 80.1917 87.4305 79.3985 87.0369C78.1934 86.4378 77.8684 85.5378 78.625 84.4285C79.1935 83.5939 79.9111 82.892 81.0234 82.8504C81.7991 82.8226 81.8222 83.2658 81.5922 83.8035C81.4162 84.2189 81.1665 84.6125 80.9034 84.9783C80.3252 85.7832 80.594 86.2694 81.4103 86.6215C82.1491 86.9401 82.5766 87.4976 82.9035 88.2868C83.3098 89.2715 83.6598 90.377 84.8921 90.7764C85.4684 90.9642 85.7972 90.893 86.2385 90.4975C89.1553 87.8814 92.1421 85.3499 95.3105 83.0543C96.9334 81.8775 98.6395 80.8414 100.483 80.0858C101.62 79.6212 102.86 79.7001 104.071 79.7634C107.164 79.9238 109.775 81.3337 112.218 83.1271C117.188 86.7759 122.186 90.3847 127.076 94.1401C130.407 96.699 133.576 99.4755 136.812 102.161C140.777 105.45 144.735 108.746 148.698 112.037C151.521 114.38 154.242 116.836 156.737 119.546C157.078 119.915 157.449 120.232 158.033 120.291C158.861 120.376 159.447 121.007 160.026 121.565C160.289 121.818 160.426 121.925 160.695 121.58C163.055 118.581 166.363 117.331 169.854 116.427C169.906 116.413 169.947 116.354 170.09 116.233C169.105 115.778 168.21 115.161 167.231 114.95C165.078 114.487 163.132 113.555 161.25 112.478C159.776 111.633 158.155 111.801 156.602 111.511C155.436 111.291 154.318 110.969 153.3 110.324C153.083 110.188 152.848 110.091 152.818 109.717C155.325 110.277 157.875 110.008 160.374 110.382C162.842 110.752 164.981 112.031 167.241 112.984C169.152 113.793 171.088 114.542 173.005 115.335C173.353 115.48 173.704 115.5 174.046 115.432C178.628 114.515 183.265 114.596 187.894 114.726C192.196 114.847 196.496 115.072 200.792 115.312C205.285 115.561 209.779 115.745 214.276 115.903C219.899 116.103 225.525 116.326 231.142 116.684C234.585 116.904 238.011 117.39 241.423 117.973C243.626 118.349 245.833 118.713 248.029 119.126C248.211 119.16 248.325 119.132 248.468 119.055C249.814 118.325 251.166 117.606 252.505 116.866C252.853 116.672 253.238 116.542 253.323 116C253.379 115.646 254.957 115.274 255.248 115.496C255.53 115.711 255.47 116.083 255.356 116.306C254.913 117.181 254.903 118.088 254.872 119.047C254.843 119.943 254.503 120.841 254.223 121.711C254.023 122.33 253.387 122.304 252.992 122.124C251.64 121.511 250.203 121.784 248.818 121.628C246.089 121.319 243.379 120.884 240.661 120.501C237.844 120.103 235.03 119.708 232.204 119.395C229.111 119.053 226.004 118.94 222.907 118.668C221.304 118.527 219.693 118.559 218.089 118.478C215.971 118.371 213.847 118.262 211.725 118.195C205.875 118.009 200.026 117.786 194.178 117.562C190.215 117.412 186.253 117.364 182.3 117.477C177.824 117.606 173.408 118.317 169.2 120.01C167.262 120.789 165.359 121.665 163.755 123.052C162.159 124.432 161.405 126.386 160.625 128.292C159.941 129.963 159.797 131.773 159.461 133.533C159.358 134.067 159.834 134.444 159.83 134.935C159.809 137.511 160.705 139.932 161.03 142.449C161.214 143.875 161.444 145.299 161.564 146.733C161.918 151.012 162.179 155.299 162.57 159.575C162.952 163.753 163.297 167.93 163.531 172.12C163.92 179.061 163.703 186.004 163.649 192.946C163.62 196.644 163.188 200.338 163.386 204.044C163.61 208.269 163.55 212.512 164.094 216.718C164.26 218.005 164.511 219.279 164.958 220.493C166.38 219.741 167.885 220.03 169.328 220.131C172.44 220.35 175.553 220.491 178.673 220.485C179.336 220.485 179.292 219.998 179.334 219.632C179.414 218.952 179.439 218.268 179.555 217.586C179.619 217.214 179.814 217.172 180.062 217.147C180.423 217.109 180.338 217.424 180.383 217.625C180.489 218.104 180.613 218.578 180.685 219.063C180.895 220.477 180.89 220.52 182.313 220.457C186.358 220.279 190.406 220.147 194.442 219.838C197.736 219.585 201.028 219.306 204.322 219.061C207.908 218.796 211.495 218.537 215.079 218.262C220 217.884 224.909 217.366 229.822 216.886C231.413 216.73 232.993 216.488 234.583 216.318C234.995 216.275 235.123 216.128 235.119 215.707C235.099 212.988 235.622 210.316 235.839 207.619C236.049 204.997 236.113 202.365 236.051 199.731C235.999 197.498 236.051 195.275 236.43 193.064C236.633 191.886 237.036 191.433 238.378 191.403C241.833 191.324 245.243 190.788 248.665 190.387C252.077 189.987 255.478 189.483 258.882 189.028C259.072 189.002 259.271 189.002 259.463 189.02C259.88 189.062 260.528 188.809 260.596 189.424C260.654 189.958 259.981 190.029 259.596 190.153C257.766 190.737 255.853 190.911 253.965 191.176C251.725 191.492 249.476 191.757 247.222 191.939C244.441 192.165 241.661 192.534 238.86 192.372C238.231 192.337 237.999 192.442 237.96 193.183C237.752 197.271 237.579 201.364 237.167 205.432C236.906 208.013 236.252 210.554 235.767 213.111C235.628 213.846 235.486 214.584 235.312 215.312C235.161 215.939 235.266 216.225 235.991 216.134C237.929 215.889 239.875 215.709 241.816 215.478C244.353 215.175 246.891 214.873 249.423 214.523C252.147 214.147 254.874 213.773 257.58 213.292C259.503 212.951 259.956 212.058 259.596 209.996C259.422 209.003 259.366 207.987 259.267 206.98C259.225 206.543 259.256 206.132 259.689 205.859C260.128 205.582 260.012 205.094 260.006 204.692C259.954 200.571 260.433 196.487 260.863 192.406C261.389 187.401 262.345 182.459 263.333 177.529C264.507 171.671 265.656 165.81 266.871 159.962C267.674 156.098 268.536 152.244 269.453 148.406C269.668 147.504 269.366 147.205 268.633 146.958C267.5 146.574 266.358 146.133 265.755 144.973C265.267 144.035 264.821 143.049 265.006 141.939C265.089 141.443 264.745 141.263 264.478 141.122C263.271 140.492 263.171 139.402 263.341 138.257C263.645 136.204 263.927 134.146 264.432 132.127C264.509 131.814 264.753 131.223 264.294 131.126C263.817 131.025 263.207 131.324 263.155 131.917C262.859 135.237 261.627 138.33 260.987 141.567C260.486 144.097 260.194 146.681 259.265 149.112C259.128 149.474 259.014 149.853 258.813 150.177C258.656 150.429 258.683 150.97 258.124 150.767C257.668 150.601 257.453 150.294 257.522 149.794C257.654 148.86 257.747 147.921 257.919 146.998C258.366 144.607 258.501 142.165 259.068 139.792C259.758 136.892 260.782 134.102 261.815 131.322C262.147 130.426 263.053 130.214 263.921 130.293C264.593 130.355 264.852 130.139 264.985 129.465C265.356 127.588 265.823 125.731 266.208 123.859C266.285 123.485 266.418 123.089 265.914 122.72C265.265 122.247 265.674 121.426 265.695 120.776C265.712 120.267 266.289 120.248 266.685 120.214C267.041 120.184 267.13 120.064 267.216 119.702C267.647 117.843 268.132 115.996 268.616 114.149C268.656 113.994 268.809 113.797 268.641 113.722C267.813 113.352 267.856 112.695 267.799 111.896C267.742 111.05 268.096 111.005 268.61 111.139C269.289 111.315 269.473 111.125 269.577 110.429C269.709 109.545 270.063 108.697 270.283 107.823C270.432 107.233 270.947 106.577 270.012 106.122C269.786 106.011 269.883 103.553 270.063 103.351C270.324 103.059 270.672 103.199 270.976 103.205C271.473 103.213 271.703 103.116 271.916 102.531C273.556 98.0183 275.282 93.535 277.819 89.4434C278.928 87.6596 280.197 86.0183 282.183 85.1799C282.603 85.002 282.611 84.6876 282.647 84.3671C282.785 83.2006 283.118 82.099 283.688 81.0845C283.833 80.8273 283.812 80.588 283.828 80.333C283.895 79.2138 283.711 78.124 283.439 77.0463C283.216 76.1664 281.814 75.0075 280.936 74.8928C280.323 74.8117 280.471 75.674 279.843 75.6462C279.692 75.405 279.79 75.0807 279.777 74.78C279.769 74.6101 279.932 74.3689 279.605 74.3331C279.452 74.3155 279.326 74.3133 279.185 74.4618C278.835 74.8315 277.345 74.8631 276.889 74.4596C276.388 74.0148 276.055 73.4413 276.462 72.7333C276.835 72.0828 276.686 71.3866 276.676 70.6965C276.657 69.2175 278.09 67.9577 279.494 68.2344C280.013 68.3353 280.243 68.721 280.152 69.2609C280.036 69.945 280.47 70.0635 280.974 70.1725C281.651 70.3207 281.489 69.7255 281.601 69.4309C281.839 68.8079 281.787 68.1139 281.286 67.7065C280.5 67.0679 280.578 66.4269 280.891 65.5866C281.243 64.6374 281.04 64.4396 280.065 64.5307L280.069 64.5208ZM94.3626 224.304C95.5465 223.991 95.9546 223.307 95.8559 221.988C95.6971 219.868 95.8249 219.805 93.7535 219.269C90.0454 218.312 86.4376 217.088 82.9964 215.361C82.2419 214.983 81.4375 214.712 80.6558 214.394C80.7177 214.702 80.8552 214.835 81.0137 214.932C81.3425 215.134 81.6715 215.339 82.0178 215.507C84.0605 216.502 86.2151 217.4 85.7081 220.406C85.6716 220.627 85.7219 220.864 85.7335 221.094C85.9366 225.067 85.1262 228.897 84.1318 232.696C84.0177 233.131 84.0255 233.323 84.4083 233.558C86.8689 235.071 89.0875 236.896 91.0586 239.032C91.5383 239.552 92.0396 239.661 92.7725 239.544C93.9332 239.361 95.1346 239.431 96.3203 239.416C96.6547 239.412 96.9622 239.491 96.9585 239.961C96.9566 240.351 96.8134 240.531 96.4287 240.642C95.2989 240.966 94.1576 241.223 93.0125 241.484C91.9874 241.717 91.0783 241.662 90.1923 241.022C88.6778 239.928 87.1339 238.874 85.5903 237.824C84.0796 236.796 82.6601 235.601 80.8899 235.022C79.6986 234.63 79.066 234.838 78.3269 235.807C77.8531 236.428 77.3309 237.013 76.8143 237.597C75.2398 239.372 73.6556 241.142 72.0617 242.932C72.8971 243.298 73.729 243.624 74.5297 244.02C76.1895 244.84 77.6984 245.892 79.0232 247.209C79.1779 247.363 79.3811 247.575 79.2689 247.804C79.176 247.992 78.971 247.923 78.7701 247.832C76.6752 246.881 74.4834 246.123 72.5123 244.921C71.4116 244.249 70.7 244.013 69.543 245.058C67.2044 247.168 64.2913 248.362 61.4033 249.523C59.1481 250.429 57.0145 251.5 55.5444 253.603C54.7977 254.669 54.8093 254.949 55.579 255.954C57.5908 258.578 60.2079 259.375 63.3434 258.811C66.2684 258.285 69.0983 257.403 71.932 256.521C75.8336 255.307 79.7276 254.063 83.7586 253.361C84.6502 253.207 85.9153 252.907 86.366 253.419C87.0933 254.247 87.6989 253.968 88.4359 253.887C91.8443 253.517 95.2564 253.195 98.653 252.709C99.2333 252.626 99.3105 252.392 99.2546 251.864C99.1074 250.462 98.9046 249.05 98.9393 247.648C98.9955 245.329 99.1983 243.011 99.6318 240.721C99.7306 240.201 99.8271 239.572 99.0805 239.522C98.2236 239.465 97.9314 238.898 97.7632 238.217C97.2447 236.123 97.0707 233.972 96.7728 231.84C96.5619 230.343 96.5 228.818 96.1287 227.337C95.4671 227.533 95.0824 228.349 94.2929 227.944C94.6567 227.298 95.2446 226.987 95.7649 226.623C96.4537 226.139 95.9681 225.529 95.9449 225.023C95.9256 224.598 95.2949 224.746 95.0571 224.851C94.4032 225.142 94.3548 224.816 94.3686 224.313H94.3626V224.304ZM266.589 138.138C266.854 137.656 267.229 137.571 267.685 137.591C269.662 137.682 271.589 138.071 273.502 138.562C273.97 138.682 274.517 138.941 274.57 138.071C274.581 137.879 274.727 137.77 274.908 137.826C275.169 137.903 274.997 138.083 274.961 138.217C274.8 138.783 275.049 139.018 275.566 139.196C276.5 139.517 277.435 139.871 278.061 140.737C278.392 141.196 278.545 140.844 278.75 140.577C279.713 139.315 280.086 137.792 280.535 136.315C281.379 133.539 282.057 130.713 282.971 127.956C284.149 124.396 285.402 120.855 285.845 117.07C285.723 117.056 285.595 117.028 285.47 117.03C282.593 117.093 280.537 115.505 278.908 113.356C276.988 110.821 277.479 108.149 278.8 105.458C280.203 102.604 282.388 101.158 286.118 101.785C286.868 101.912 287.505 102.329 288.288 102.57C288.176 101.789 288.429 101.135 288.485 100.45C288.669 98.2416 288.932 96.0386 289.083 93.8276C289.238 91.5496 289.88 89.1983 287.559 87.4206C286.551 86.6493 285.083 85.888 283.864 86.3327C282.365 86.8807 281.398 88.0731 280.555 89.3626C279.715 90.646 279.112 92.056 278.497 93.4679C277.204 96.4342 276.131 99.4794 275.04 102.523C274.85 103.051 274.991 103.243 275.537 103.187C276.03 103.138 276.314 103.454 276.222 103.901C276.018 104.878 275.804 105.859 275.322 106.751C275.092 107.178 274.906 107.15 274.634 106.778C274.519 106.624 274.703 106.181 274.216 106.32C273.891 106.413 273.836 106.636 273.775 106.887C273.436 108.248 273.13 109.616 272.748 110.963C272.639 111.345 272.719 111.489 273.02 111.63C273.595 111.899 273.746 112.377 273.488 112.923C273.229 113.469 273.366 114.426 272.314 114.254C271.931 114.19 271.879 114.414 271.8 114.752C271.399 116.461 270.951 118.155 270.511 119.888C270.862 119.985 271.229 120.066 271.581 120.19C272.028 120.348 272.386 120.754 272.034 121.132C271.291 121.926 271.222 123.336 269.885 123.59C269.583 123.647 269.581 123.955 269.525 124.218C269.024 126.601 268.505 128.982 268.003 131.365C267.527 133.62 267.061 135.878 266.591 138.134L266.589 138.138ZM35.0286 155.012C33.1834 155.636 33.1756 155.679 31.7036 155.384C27.7883 154.601 25.3781 151.795 25.6043 147.417C25.6818 145.906 25.2118 144.959 23.9333 144.364C23.6682 144.239 23.467 144.099 23.471 143.81C23.4767 143.46 23.7939 143.464 24.0339 143.387C25.6006 142.883 26.4422 141.719 26.5504 140.051C26.6238 138.927 26.1113 137.962 25.8906 136.92C25.7572 136.287 25.4709 135.631 26.2488 135.075C26.7032 134.749 26.7013 134.25 26.0147 133.893C23.8173 132.747 21.4902 131.869 19.3954 130.515C18.2734 129.789 17.138 129.085 15.9542 128.336C15.8476 131.5 15.4375 134.533 15.7141 137.587C15.7316 137.775 15.8613 138.123 15.5247 138.136C15.0894 138.152 15.0469 137.674 15.0141 137.414C14.635 134.419 14.3409 131.415 14.7334 128.393C14.8147 127.76 14.7025 127.335 14.1765 126.874C11.9694 124.946 10.064 122.755 8.85893 119.996C8.34051 118.812 7.81053 117.621 7.02131 116.581C6.5648 115.982 5.97094 115.634 5.26104 115.885C4.42347 116.184 3.62459 116.597 3.14877 117.463C2.14678 119.286 2.41755 121.286 2.70191 123.135C3.32478 127.191 4.64592 131.108 6.17211 134.877C8.92081 141.658 13.1724 147.35 19.2482 151.429C20.637 152.363 21.6315 153.537 22.0781 155.104C22.5019 156.587 23.0607 158.001 23.6586 159.405C24.0048 160.219 24.4574 160.953 25.2968 161.376C25.7072 161.582 25.9662 161.683 26.3472 161.289C27.0282 160.585 27.8736 160.113 28.7574 159.695C30.4172 158.91 32.0361 158.038 33.5913 157.047C34.3129 156.587 34.9164 156.039 35.0326 155.012H35.0286ZM28.3939 136.459C28.889 139.321 28.3552 141.803 25.9506 143.584C25.5715 143.865 25.5309 144.004 25.8619 144.294C27.1538 145.427 27.4636 146.936 27.5523 148.59C27.6201 149.843 28.0011 150.992 29.1115 151.799C31.0092 153.178 33.04 152.814 35.0867 152.4C35.1776 152.383 35.2336 152.212 35.3189 152.127C37.0228 150.389 38.7911 148.726 40.8878 147.484C41.2707 147.257 41.3578 147.077 41.2844 146.62C40.7137 143.056 40.0152 139.507 40.0987 135.866C40.1159 135.101 39.6499 135.465 39.3171 135.564C36.6456 136.351 33.9204 136.721 31.1445 136.574C30.2197 136.527 29.305 136.311 28.3939 136.459ZM279.377 51.7003C279.438 52.424 279.232 52.9461 279.104 53.486C278.516 55.9679 277.791 58.4061 276.953 60.8107C276.839 61.1372 276.738 61.3171 277.167 61.4634C279.928 62.3967 282.531 63.7849 285.388 64.4457C286.176 64.6275 286.686 64.3131 286.735 63.5063C286.882 61.0541 287.549 58.7205 288.288 56.4108C288.557 55.5724 288.36 55.2363 287.601 54.8624C284.996 53.5828 282.191 52.877 279.378 51.7003H279.377ZM279.181 110.079C279.154 112.545 281.005 114.849 283.338 115.771C285.156 116.488 286.162 115.913 286.427 114.293C286.514 113.763 286.332 113.71 285.901 113.653C285.023 113.536 284.122 113.47 283.303 113.075C282.026 112.458 281.17 111.434 280.764 110.067C280.576 109.44 280.912 108.849 281.454 108.582C282.119 108.254 282.195 108.966 282.404 109.355C283.166 110.783 284.151 111.841 285.833 112.183C286.681 112.355 286.835 112.082 286.932 111.388C287.253 109.104 287.53 106.81 287.965 104.55C288.124 103.731 287.942 103.367 287.238 103.181C286.866 103.082 286.481 103.015 286.098 102.996C281.852 102.756 279.607 106.409 279.183 110.081L279.181 110.079ZM122.428 131.411C122.559 131.092 122.422 130.897 122.234 130.689C119.873 128.047 117.372 125.553 114.783 123.135C112.199 120.72 109.466 118.474 107.011 115.915C106.315 115.187 105.62 114.455 104.802 113.858C103.384 112.824 103.152 112.8 101.752 113.826C101.253 114.192 100.796 114.299 100.156 114.151C98.9392 113.87 97.8057 113.316 96.5637 113.121C93.7551 112.679 90.9273 112.624 88.1283 112.966C84.3736 113.423 81.9344 115.78 80.3483 119.174C79.8995 120.135 79.4373 121.088 78.9807 122.045C79.2148 121.986 79.296 121.851 79.3754 121.717C80.3852 119.994 81.329 118.217 82.5826 116.668C83.9927 114.926 85.9 113.987 88.0799 113.674C90.6042 113.312 93.1422 113.312 95.6549 113.738C98.0748 114.145 100.442 114.809 102.82 115.426C104.91 115.97 106.895 116.441 108.58 118.181C110.686 120.358 113.151 122.181 115.282 124.369C117.613 126.762 119.867 129.241 122.424 131.411H122.428ZM82.9792 225.375C83.3873 224.193 83.2632 223.06 83.4064 221.96C83.5033 221.216 83.3892 220.447 83.4567 219.698C83.5226 218.97 83.0004 218.984 82.6001 218.936C82.0235 218.867 82.2903 219.377 82.2747 219.625C82.2303 220.378 82.2535 221.135 82.2322 221.889C82.2247 222.179 82.2575 222.625 82.0178 222.706C80.8012 223.119 81.3871 224.157 81.0409 224.984C81.8512 224.774 82.5304 224.436 82.9773 225.375H82.9792ZM286.88 80.774C286.87 80.7484 286.803 80.6296 286.783 80.503C286.46 78.4048 285.34 76.645 284.365 74.8494C283.887 73.9714 283.207 73.0637 282.032 72.9608C281.738 72.9352 281.35 72.4921 281.152 73.0755C280.992 73.548 281.446 73.6094 281.692 73.7203C283.114 74.357 283.994 75.5513 284.791 76.823C285.576 78.0748 285.729 79.5618 286.147 80.9481C286.203 81.134 286.062 81.4858 286.458 81.381C286.692 81.3197 286.99 81.2587 286.88 80.774ZM271.183 141.202C270.904 141.111 270.659 141.174 270.529 141.447C270.394 141.729 270.562 141.947 270.759 142.133C271.515 142.843 272.361 143.42 273.276 143.891C273.597 144.057 273.68 143.964 273.806 143.567C274.136 142.525 273.577 142.038 272.823 141.686C272.31 141.447 271.732 141.358 271.185 141.202H271.183ZM288.806 86.2736C288.866 85.3164 288.907 84.6738 288.944 84.031C288.959 83.7422 288.907 83.5703 288.634 83.8748C288.425 84.108 288.245 83.9045 288.039 83.8629C287.402 83.7345 286.768 83.7738 286.147 84.0032C285.988 84.0626 285.818 84.116 285.818 84.2981C285.818 84.4799 285.982 84.547 286.145 84.6064C287.062 84.9448 287.998 85.2451 288.806 86.2755V86.2736ZM277.189 72.0927C276.361 73.2714 276.529 74.2404 278.05 74.4992C278.226 74.5289 278.489 74.6101 278.557 74.3887C278.603 74.2401 278.483 73.8822 278.402 73.8723C277.45 73.7378 277.378 72.933 277.189 72.0946V72.0927ZM273.473 140.688C273.97 141.694 274.651 141.819 275.423 141.765C274.848 141.449 274.274 141.13 273.473 140.688Z" fill="black"/>
<path d="M219.435 12.7862C220.664 14.8013 221.861 16.6228 222.917 18.5271C225.459 23.111 227.331 27.9895 228.02 33.2083C228.355 35.7493 229.157 38.152 229.517 40.6595C229.999 44.0235 230.465 47.3892 230.119 50.8143C230.024 51.7476 230.076 52.7383 230.283 53.6499C230.587 54.9909 230.295 56.2385 230.057 57.5162C230.022 57.7041 230.03 57.8325 229.782 57.9373C228.256 58.5878 226.644 58.847 225.029 59.0745C223.613 59.2742 223.399 59.1122 223.072 57.629C222.778 56.296 222.532 54.9512 222.205 53.6205C222.134 55.141 222.383 56.6341 222.739 58.0856C222.942 58.9102 222.708 59.1831 222.01 59.3336C221.801 59.3789 221.609 59.5055 221.286 59.6518C222.453 60.2569 223.575 60.7435 224.515 61.5663C224.782 61.7995 225.283 61.7046 225.699 61.495C226.412 61.1369 228.068 61.9954 228.279 62.7861C228.308 62.8951 228.291 63.0632 228.223 63.1443C228.105 63.2865 227.915 63.2469 227.782 63.1561C225.604 61.6315 223.555 62.9385 221.569 63.5891C217.079 65.0585 213.435 67.9695 210.001 71.1751C207.887 73.1486 205.752 75.0963 203.771 77.2143C203.353 77.6594 202.877 78.0824 202.583 78.6045C202.078 79.5004 201.355 79.5381 200.467 79.3895C201.268 76.6073 203.403 74.8612 205.224 72.8697C205.102 72.7966 205.055 72.7589 205.003 72.7371C204.595 72.5592 203.852 72.579 204.044 71.9502C204.144 71.6198 204.81 71.9563 205.191 72.1243C205.626 72.316 205.949 72.217 206.293 71.8907C208.195 70.0852 210.187 68.3887 212.249 66.7771C215.017 64.6115 218.074 63.0552 221.557 62.1931C220.447 61.325 219.277 60.8838 218.004 60.6426C217.51 60.5496 216.851 60.7295 216.663 59.8774C216.572 59.4601 216.166 59.8298 215.944 59.9365C215.073 60.3518 214.197 60.7158 213.234 60.8739C212.509 60.9947 212.34 60.7237 212.439 60.0534C212.491 59.7032 212.448 59.3374 212.448 58.9163C212.123 59.1892 212.27 59.4818 212.267 59.7269C212.251 60.9947 211.562 61.6155 210.286 61.4711C209.754 61.41 209.185 61.1746 208.818 61.9714C209.133 58.4022 209.388 54.9829 209.259 51.5441C209.27 54.279 208.773 56.9801 208.744 59.7151C208.734 60.5656 208.686 61.4295 208.522 62.2602C208.342 63.1718 207.562 63.6149 206.829 64.0124C204.742 65.1454 202.51 65.901 200.144 66.5988C200.902 63.6565 201.575 60.7634 201.338 57.7476C201.25 60.4745 200.662 63.1028 199.877 65.6933C199.585 66.6563 197.776 67.6509 196.844 67.3822C196.446 67.2675 196.674 67.0816 196.732 66.8739C196.948 66.1106 197.432 65.4399 197.455 64.5779C196.798 66.3598 196.161 68.1395 193.801 67.9337C194.409 64.2338 195.475 60.4924 195.96 56.5986C194.304 58.3409 192.364 59.6221 190.163 60.3263C188.623 60.8186 187.896 61.5759 187.64 63.251C187.308 65.4304 186.056 67.3209 185.222 69.3459C185.056 69.7491 184.553 70.2376 185.033 70.6766C185.542 71.1393 186.122 70.9655 186.733 70.6805C188.629 69.8006 190.223 68.4283 192.022 67.3979C192.186 67.303 192.339 67.1822 192.509 67.1052C192.792 66.9768 193.113 66.6247 193.372 66.8541C193.637 67.0873 193.509 67.5305 193.43 67.8822C193.403 68.0069 193.308 68.1196 193.298 68.2423C193.281 68.4481 192.999 68.6676 193.285 68.8574C193.529 69.0194 193.552 68.6554 193.718 68.6261C193.869 68.5983 194.024 68.5963 194.219 68.6714C192.412 69.8993 190.819 71.4281 188.809 72.324C188.516 72.4544 188.213 72.5611 187.936 72.7173C186.434 73.5579 184.928 73.1803 183.449 72.6898C182.835 72.486 182.596 71.8987 182.743 71.2581C182.801 71.0029 182.828 70.746 182.874 70.4926C182.952 70.0635 183.462 69.6245 183.147 69.2548C182.884 68.9443 182.252 69.4526 182 69.3139C181.172 68.8532 180.257 68.7823 179.398 68.4915C179.099 68.3887 178.781 68.3174 178.505 68.1711C177.356 67.5659 176.485 67.7123 175.775 68.9363C175.276 69.7986 174.518 69.2606 173.912 68.9797C173.584 68.8277 173.216 68.5213 173.179 68.1097C173.007 66.239 171.893 65.7646 170.247 65.8256C169.413 65.8572 168.792 65.2128 168.218 64.6332C165.554 61.9359 164.908 58.7658 166.007 55.1311C166.96 51.9731 167.903 48.803 168.309 45.5105C168.458 44.3101 168.295 43.082 168.529 41.8797C168.575 41.6426 168.572 41.4014 168.224 41.2646C167.272 40.8889 166.984 39.9377 167.036 39.1012C167.142 37.3868 166.651 35.8008 166.365 34.1675C165.972 31.9188 166.1 29.6704 166.349 27.416C166.514 25.921 166.804 24.4516 167.144 22.8816C165.206 22.8123 163.544 23.5283 161.989 24.5587C159.403 26.269 157.966 28.8004 157.082 31.7488C155.662 36.4851 154.85 41.3103 154.542 46.262C154.221 51.4134 153.927 56.567 153.608 61.7203C153.227 67.8902 152.613 74.0305 151.313 80.0797C151.101 81.0666 150.805 82.0376 150.511 83.0025C150.393 83.3923 150.234 83.7997 149.735 84.0112C149.659 82.166 150.004 80.4318 150.257 78.6857C150.569 76.5261 150.9 74.3647 151.118 72.1952C151.418 69.1992 151.625 66.1937 151.865 63.1916C151.967 61.9142 151.963 60.6308 152.051 59.3492C152.325 55.3845 152.432 51.4076 152.7 47.4426C153.093 41.6503 153.588 35.8758 155.565 30.3507C157.059 26.1802 159.397 22.9014 163.811 21.6831C165.009 21.3531 166.274 20.9534 167.226 22.5218C167.947 20.2575 168.661 18.2187 169.572 16.249C171.001 13.152 173.061 10.5912 175.651 8.48119C180.313 4.68227 185.619 2.19269 191.38 0.719456C196.005 -0.463031 200.599 -0.121162 205.139 1.25718C207.669 2.02655 210.141 2.92436 212.205 4.71199C212.632 5.08166 213.017 5.51682 213.265 5.96764C214.257 7.76326 216.188 8.578 217.342 10.1918C217.868 10.9273 218.367 11.9539 219.089 12.1989C219.795 12.4383 220.768 11.843 221.627 11.6273C227.41 10.1758 233.233 8.91028 239.107 7.93132C241.91 7.46484 244.74 7.13448 247.572 6.83382C253.143 6.24466 258.526 7.00603 263.656 9.13393C267.689 10.8069 270.517 13.7811 271.059 18.4775C271.483 22.1461 271.252 25.8322 271.283 29.5104C271.333 35.4075 270.604 41.2451 269.937 47.0927C269.39 51.8939 268.854 56.6916 268.15 61.4733C267.285 67.3525 266.122 73.1704 264.857 78.9723C263.815 83.752 262.84 88.5417 261.269 93.1848C259.846 97.3971 258.306 101.562 256.577 105.653C255.967 107.095 255.561 108.632 254.661 109.939C254.501 110.172 254.402 110.583 254.056 110.447C253.658 110.289 253.869 109.909 253.934 109.603C255.054 104.409 256.698 99.3765 258.422 94.3714C260.449 88.4804 261.728 82.3855 263.138 76.3264C264.126 72.0805 265.126 67.835 265.786 63.5258C266.432 59.3058 267.082 55.0838 267.407 50.8162C267.618 48.0477 268.082 45.299 268.297 42.5324C268.436 40.7387 268.546 38.9412 268.749 37.1555C269.21 33.1035 269.117 29.0257 269.351 24.9641C269.423 23.7222 269.614 22.488 269.699 21.246C270.032 16.3774 266.492 12.2168 262.513 10.8305C258.205 9.33139 253.778 8.6058 249.23 8.90645C246.131 9.11189 243.054 9.55696 239.972 9.97807C236.215 10.4925 232.505 11.2676 228.759 11.835C226.395 12.1929 224.037 12.5747 221.679 12.9741C220.961 13.0968 220.282 12.8418 219.428 12.7942L219.435 12.7862ZM182.646 34.4582C182.112 35.5637 181.795 36.582 181.021 37.3197C180.433 37.8811 179.683 37.7644 179.002 37.6795C178.588 37.628 178.769 37.1098 178.812 36.8331C179.143 34.6994 179.197 32.5239 179.677 30.412C179.735 30.1589 179.832 29.8861 179.431 29.7695C178.835 32.1603 178.211 34.539 178.023 37.0091C177.971 37.6913 177.7 38.0769 176.967 38.1322C175.884 38.2153 174.806 38.3757 173.729 38.5319C172.556 38.7019 172.125 39.1763 172.03 40.3214C171.98 40.9304 172.46 41.3202 172.619 41.8522C173.303 44.1699 173.642 46.5626 174.16 48.9158C174.951 52.5208 176.299 55.7126 179.806 57.4568C181.789 58.4434 183.772 59.4007 186.054 58.9479C189.743 58.2163 192.822 56.4542 194.964 53.2032C195.397 52.5447 195.865 52.2875 196.567 52.9757C196.548 52.0128 196.916 51.2057 196.753 50.3395C196.049 46.6042 195.852 42.8053 195.416 39.0361C195.246 37.559 194.869 36.0698 194.198 34.7764C193.836 34.0764 193.308 33.5166 193.469 32.5834C193.121 33.0482 193.741 33.7441 192.912 33.9617C191.528 34.3256 190.171 34.7883 188.782 35.1225C188.041 35.3004 187.325 35.3519 186.855 34.385C186.323 33.2914 185.567 32.3124 184.909 31.2823C185.414 32.7971 186.176 34.1633 187.049 35.4864C185.381 36.0027 183.781 36.3426 182.64 34.4582H182.646ZM175.088 55.4356C176.021 58.9163 176.936 62.3887 177.549 65.9345C177.473 62.2542 176.667 58.7482 175.088 55.4356ZM205.084 4.90177C205.421 4.80305 205.984 5.15898 206.17 4.41549C206.256 4.0634 206.324 3.7768 206.003 3.54931C205.442 3.15376 204.806 2.93618 204.135 2.93618C203.595 2.93618 203.274 3.30585 203.179 3.84006C203.078 4.40558 203.343 4.63499 203.889 4.75736C204.268 4.84458 204.636 4.88995 205.086 4.89986L205.084 4.90177ZM206.173 28.0033C207.508 32.5597 208.371 37.2405 209.711 41.7947C208.665 37.1612 208.121 32.3955 206.173 28.0033ZM171.531 56.1852C171.297 56.7251 171.692 57.275 171.584 57.7948C171.185 59.7349 171.63 61.6216 171.833 63.5239C171.86 63.783 171.928 64.0242 172.21 63.9629C172.495 63.9015 172.288 63.6466 172.297 63.4766C172.425 61.0027 172.133 58.5741 171.531 56.1871V56.1852ZM199.521 4.90593C199.309 5.08964 198.86 4.97302 198.608 5.33502C198.45 5.56251 198.614 5.73824 198.767 5.82131C199.467 6.19705 200.171 6.58077 200.904 6.87727C201.148 6.97632 201.597 6.94085 201.514 6.42453C201.432 5.92227 200.125 4.88803 199.521 4.90593ZM203.065 41.9014C202.85 45.639 202.75 49.3826 202.305 53.1023C203.185 49.4161 203.295 45.6706 203.065 41.9014ZM196.417 4.90593C196.212 4.97686 195.948 5.11137 196.051 5.48902C196.293 6.3929 196.868 7.02776 197.684 7.42714C197.904 7.53577 198.105 7.49455 198.154 7.1562C198.229 6.62614 197.013 4.92158 196.419 4.90593H196.417ZM172.939 31.5827C173.597 29.281 174.255 26.9789 174.913 24.6791C173.688 26.815 173.168 29.1563 172.939 31.5827ZM211.857 20.5105C210.883 18.7526 209.912 16.9925 208.939 15.2346C209.51 17.2356 210.682 18.897 211.857 20.5105ZM193.509 6.84181C193.505 6.46 193.242 6.04081 192.691 5.90246C192.376 5.82323 192.24 6.0309 192.312 6.383C192.43 6.97216 192.534 7.61884 193.2 7.7476C193.492 7.80479 193.496 7.33225 193.509 6.84181ZM200.684 4.40942C201.158 5.15099 201.871 5.35259 202.589 5.45739C202.858 5.49701 203.022 5.2478 202.744 4.94523C202.2 4.35606 201.574 4.10876 200.684 4.40942ZM179.646 66.0965C179.599 64.8035 179.474 63.4983 178.845 62.3273C178.764 62.3494 178.681 62.3711 178.599 62.3909C178.948 63.6248 179.298 64.8607 179.646 66.0965ZM187.929 6.04496C186.828 6.77056 186.085 7.82652 185.499 9.01316L187.929 6.04496ZM189.424 7.65846C189.726 7.10284 190.265 6.67982 190.25 5.9162C189.292 6.62231 189.24 6.72902 189.424 7.65846ZM191.186 6.82999C191.124 6.65202 191.314 6.29194 190.946 6.32357C190.629 6.35137 190.472 6.67567 190.47 6.97632C190.47 7.21755 190.524 7.56357 190.867 7.53577C191.295 7.50031 191.157 7.11275 191.186 6.82999Z" fill="black"/>
<path d="M231.126 112.974C230.855 113.336 230.701 113.935 230.045 113.413C229.915 113.31 229.567 113.443 229.341 113.526C226.292 114.639 223.141 115.037 219.926 114.833C218.671 114.752 217.408 114.542 216.222 114.052C215.824 113.888 215.242 113.724 215.915 113.144C215.977 113.091 216.05 112.938 216.046 112.935C215.211 112.333 215.922 111.252 215.342 110.571C215.158 110.356 215.305 110.198 215.499 110.135C215.914 109.996 216.303 109.812 216.791 110.016C217.611 110.358 218.474 110.589 219.315 110.878C219.886 111.074 220.248 111.058 220.398 110.289C220.791 108.287 221.298 106.312 221.72 104.316C222.433 100.951 223.192 97.5908 223.791 94.2034C224.211 91.8342 224.488 89.4376 224.66 87.0251C224.991 82.3737 225.292 77.7208 225.192 73.0576C225.128 70.113 224.871 67.1646 223.441 64.4949C223.197 64.0399 223.252 63.8325 223.784 63.8146C223.904 63.8108 224.016 63.7098 224.138 63.6721C225.191 63.3478 225.978 63.6862 226.498 64.6866C226.615 64.916 226.666 65.2383 226.985 65.2128C227.298 65.1869 227.289 64.8607 227.379 64.6233C227.731 63.7057 228.377 63.5101 229.211 64.038C229.733 64.3683 230.148 64.7837 230.488 65.3294C230.999 66.148 230.878 66.8758 230.347 67.572C229.925 68.1215 229.02 68.1593 228.03 67.6787C228.888 67.5995 229.515 67.2595 229.639 66.4486C229.745 65.7646 229.49 65.1652 228.77 64.7501C228.693 65.555 228.248 65.9208 227.509 65.8416C227.022 65.7901 226.908 65.8793 227.041 66.4231C227.366 67.7538 227.586 69.1222 227.509 70.4948C227.459 71.3767 227.896 71.5645 228.569 71.6121C229.393 71.6693 230.217 71.7208 231.043 71.7642C231.374 71.7821 231.681 71.8138 231.801 72.3198C230.509 71.8987 229.211 72.393 227.975 71.9562C227.731 71.869 227.54 71.9978 227.549 72.3099C227.554 72.4406 227.54 72.5732 227.538 72.7055C227.47 76.7498 227.441 80.7938 227.325 84.8358C227.244 87.6497 226.783 90.4342 226.323 93.1988C225.544 97.8735 224.437 102.483 223.085 107.024C222.718 108.262 222.352 109.507 221.737 110.652C221.48 111.131 221.497 111.437 222.133 111.495C224.468 111.705 226.782 111.566 229.08 111.105C229.354 111.05 229.461 110.973 229.468 110.684C229.505 109.559 230.293 109.25 231.186 109.122C232.556 108.924 233.989 110.014 234.271 111.43C234.445 112.302 233.391 113.682 232.275 114.006C231.894 114.117 231.498 114.18 231.418 113.567C231.391 113.358 231.221 113.168 231.117 112.97C231.533 112.82 231.716 113.514 232.151 113.273C232.993 112.81 233.289 111.883 232.91 111.032C232.405 109.905 231.842 110.83 231.252 110.961C231.809 111.689 231.964 112.379 231.117 112.976L231.126 112.974ZM222.11 113.901C223.352 113.791 224.592 113.678 225.834 113.573C226.352 113.53 226.416 113.198 226.383 112.755C226.343 112.203 225.975 112.462 225.749 112.484C223.582 112.703 221.421 112.875 219.274 112.298C218.843 112.181 218.816 112.527 218.841 112.844C218.868 113.198 218.673 113.7 219.333 113.666C220.265 113.619 221.17 113.973 222.112 113.9L222.11 113.901ZM227.894 113.267C228.685 113.087 229.38 112.927 230.072 112.769C230.689 112.628 230.413 112.043 230.579 111.679C230.631 111.566 230.587 111.281 230.379 111.329C229.65 111.499 228.89 111.629 228.229 111.958C227.88 112.132 228.035 112.747 227.894 113.265V113.267ZM218.183 113.413C218.114 113.063 218.106 112.725 218.137 112.379C218.205 111.655 217.487 111.969 217.18 111.718C217.068 111.625 216.787 111.315 216.53 111.669C216.077 112.286 216.371 113.124 217.116 113.265C217.451 113.328 217.793 113.36 218.183 113.413Z" fill="black"/>
<path d="M116.228 185.051C119.491 184.889 123.553 185.047 127.586 185.322C133.78 185.743 139.976 185.767 146.172 185.933C149.421 186.02 152.667 186.044 155.917 186.05C157.075 186.052 157.48 186.435 157.803 187.579C157.992 188.247 157.731 188.332 157.172 188.431C151.516 189.431 145.829 188.706 140.158 188.783C133.662 188.872 127.194 188.103 120.695 188.148C116.011 188.182 111.325 187.944 106.642 187.79C105.653 187.757 104.672 187.549 103.684 187.438C103.15 187.379 102.829 187.055 102.813 186.558C102.8 186.072 103.231 185.795 103.632 185.704C104.502 185.506 105.386 185.352 106.274 185.267C109.321 184.972 112.379 185.065 116.228 185.053V185.051Z" fill="black"/>
<path d="M62.7108 49.5289C65.9895 50.8124 68.626 52.9125 70.9978 55.3922C72.1872 56.6382 73.1351 58.0738 73.9186 59.6183C74.0771 59.9307 74.1158 60.3026 74.2415 60.6346C74.4371 61.1548 74.0308 61.3487 73.7502 61.5781C73.342 61.9104 73.2008 61.4771 73.017 61.2439C70.1658 57.6111 66.6165 54.7455 63.0399 51.6409C67.9103 61.2854 73.9611 70.0715 78.0387 80.141C77.3405 80.056 77.1564 79.7336 76.9476 79.4135C73.4348 74.0107 69.9008 68.626 66.7749 62.9683C65.326 60.3461 63.7247 57.807 62.3164 55.1589C61.4323 53.4978 60.5928 51.807 60.3934 49.8711C60.3337 49.2934 60.2678 48.7992 61.0591 49.1749C61.3801 49.3273 61.4632 49.074 61.6085 48.9493C62.3492 48.3107 63.2043 47.8678 64.0631 47.4327C65.5776 46.6655 67.0149 46.8809 68.4094 47.7867C70.4849 49.1353 71.9397 51.107 73.4561 53.0173C74.1002 53.8301 74.7271 54.6586 75.3575 55.4832C75.4988 55.6692 75.82 55.8136 75.5085 56.1219C75.2822 56.3456 75.0694 56.3178 74.8159 56.1558C73.613 55.3883 72.5838 54.3937 71.4966 53.478C69.8602 52.0997 68.2178 50.7351 66.4518 49.527C65.2448 48.7004 64.0534 48.5541 62.713 49.527L62.7108 49.5289Z" fill="black"/>
<path d="M179.408 206.466C178.744 201.273 178.658 196.072 178.636 190.865C178.613 185.01 178.543 179.154 178.41 173.301C178.267 166.971 178.112 160.639 177.806 154.317C177.421 146.337 176.916 138.364 177.069 130.368C177.1 128.8 177.267 127.24 177.657 125.715C177.713 125.498 177.775 125.243 177.922 125.097C178.228 124.788 178.512 124.234 178.99 124.41C179.398 124.56 179.17 125.106 179.17 125.468C179.186 129.518 179.05 133.576 179.213 137.62C179.501 144.777 179.561 151.938 179.677 159.096C179.803 166.89 179.64 174.687 179.795 182.481C179.919 188.751 179.864 195.016 179.744 201.283C179.712 203.013 179.524 204.74 179.406 206.468L179.408 206.466Z" fill="black"/>
<path d="M116.691 34.0844C113.955 34.5687 111.383 35.2806 108.884 36.2675C103.305 38.4705 98.3028 41.7017 93.4996 45.2891C88.9133 48.7161 84.5379 52.408 80.2613 56.2286C78.909 57.437 77.5201 58.6057 76.176 59.8218C75.7753 60.1838 75.4118 60.2985 74.9843 59.9585C74.4949 59.5687 74.8583 59.1674 75.0518 58.839C75.6478 57.8265 76.3922 56.9267 77.1951 56.0724C83.4547 49.4043 90.6834 43.9977 98.38 39.2377C102.651 36.5957 107.191 34.4917 112.178 33.6572C113.963 33.3585 115.764 32.9652 117.607 33.3249C118.28 33.4575 118.426 33.7342 118.24 34.377C118.068 34.9803 117.917 35.5912 117.568 36.1072C117.369 36.404 117.052 36.6513 116.656 36.4692C116.288 36.3011 116.478 35.9768 116.503 35.696C116.545 35.1857 116.464 34.6656 116.692 34.0844H116.691Z" fill="black"/>
<path d="M151.778 91.4703C151.699 91.769 151.855 92.1052 151.551 92.2298C151.327 92.3208 151.132 92.1329 150.946 92.0004C149.093 90.6754 147.801 88.8184 146.524 86.9774C142.404 81.0388 138.798 74.7583 134.941 68.6458C132.411 64.6332 129.461 60.9451 126.805 57.0357C124.674 53.8991 122.794 50.5948 120.919 47.2943C120.792 47.0687 120.625 46.8195 120.623 46.5783C120.619 46.1354 120.594 45.5718 120.975 45.3207C121.426 45.022 121.728 45.5086 122 45.8131C123.801 47.8301 125.144 50.1794 126.55 52.4754C129.237 56.8615 132.498 60.8403 135.197 65.2108C138.317 70.2632 141.28 75.4149 144.381 80.4793C146.453 83.8629 148.812 87.0506 151.145 90.2524C151.425 90.6358 151.772 90.9977 151.78 91.4703H151.778Z" fill="black"/>
<path d="M142.63 94.1066C144.868 95.7539 146.667 97.5 148.977 98.4809C149.42 98.6688 149.851 98.9256 149.733 99.4439C149.611 99.9797 149.045 100.004 148.611 99.9717C147.282 99.873 146.091 99.3528 144.998 98.5895C144.506 98.2454 144.023 97.8895 143.485 97.5987C144.355 98.987 145.605 99.9896 146.845 100.982C147.98 101.89 149.178 102.717 150.362 103.557C150.555 103.694 150.785 103.761 150.706 104.051C150.634 104.312 150.412 104.352 150.172 104.374C149.271 104.459 148.422 104.144 147.52 104.056C149.472 105.466 151.195 107.188 153.36 108.273C153.128 108.936 152.557 108.748 152.135 108.661C149.095 108.03 146.511 106.533 144.379 104.235C143.936 103.757 143.501 103.215 144.059 102.507C144.323 102.173 144.052 101.979 143.849 101.765C142.506 100.357 141.75 98.7576 142.218 96.7268C142.373 96.0504 141.736 95.7756 141.392 95.3839C140.825 94.7414 140.309 94.1321 140.278 93.1809C140.249 92.2911 140.547 91.9036 141.427 91.9116C143.328 91.9291 145.156 92.4119 146.994 92.8094C149.644 93.3806 152.279 93.9976 155.002 94.1244C155.737 94.158 156.89 94.049 156.853 95.1565C156.822 96.098 155.706 95.9418 155.045 96.0009C152.691 96.2086 150.398 95.6709 148.112 95.1862C146.619 94.8699 145.145 94.4625 143.659 94.1165C143.421 94.0612 143.16 94.1085 142.624 94.1085L142.63 94.1066Z" fill="black"/>
<path d="M76.6925 61.0599C76.7041 60.5972 76.971 60.4905 77.1722 60.3518C81.1569 57.6031 85.337 55.2184 89.6739 53.0866C93.883 51.0159 98.2006 49.25 102.605 47.6998C106.687 46.2639 110.824 45.0163 115.089 44.2846C116.861 43.9798 118.662 43.9581 120.461 44.0552C120.834 44.0747 121.254 44.1482 121.244 44.5712C121.235 44.9766 120.817 45.1112 120.441 45.115C116.084 45.1466 111.952 46.3866 107.837 47.6483C102.555 49.2679 97.423 51.3166 92.4051 53.6579C88.8441 55.319 85.3254 57.0673 81.8458 58.9003C80.3969 59.6636 78.8839 60.3046 77.3907 60.9806C77.2013 61.0659 76.9616 61.0321 76.6925 61.0599Z" fill="black"/>
<path d="M164.982 75.6283C165.005 76.0379 165.336 76.1188 165.616 76.2574C167.336 77.1156 169.067 77.9479 170.382 79.449C170.804 79.9295 170.982 79.894 172.402 79.5241C172.551 79.894 172.232 80.0918 172.077 80.3864C172.622 80.6535 173.003 80.0107 173.576 80.1589C173.276 80.7957 173.025 81.4047 172.208 81.4325C171.905 81.4424 171.572 81.4385 171.481 81.1024C171.367 80.6791 171.023 80.7701 170.899 80.8925C170.696 81.0883 170.895 81.3337 171.055 81.5315C171.613 82.2156 172.626 82.437 173.41 82.0376C174.369 81.5491 174.795 80.6612 174.549 79.6704C174.528 79.5816 174.545 79.4806 174.545 79.3838C175.191 79.6844 175.369 79.9413 175.369 80.5624C175.363 82.6488 172.986 84.3038 171.081 83.6217C169.928 83.2083 169.597 81.9408 169.775 80.3883C169.818 80.0225 169.885 79.9375 169.469 79.8247C168.614 79.5934 167.779 79.2691 166.963 78.9189C166.396 78.6758 166.102 78.755 165.752 79.3323C163.918 82.3619 161.792 85.1266 158.86 87.1695C157.471 88.1363 156.005 88.5239 154.192 88.3421C156.592 86.5979 158.587 84.6045 160.376 82.3897C161.541 80.9481 162.556 79.3994 163.603 77.8728C163.833 77.5386 163.873 77.2776 163.521 76.983C163.175 76.6923 162.862 76.3523 162.57 76.0041C161.922 75.2328 162.028 74.2324 162.895 73.7477C163.808 73.2375 164.697 72.6502 165.784 72.3438C165.67 72.7729 165.343 72.9033 165.086 73.0911C164.558 73.479 164.132 73.9356 163.864 74.5644C163.699 74.95 163.552 75.5574 163.761 75.6481C164.096 75.7945 164.603 76.097 165.011 75.6481L164.986 75.6264L164.982 75.6283Z" fill="black"/>
<path d="M201.879 110.018C201.823 110.251 201.689 110.285 201.564 110.283C199.183 110.259 196.801 110.384 194.418 110.188C192.377 110.02 190.347 109.844 188.319 109.533C184.108 108.887 179.953 108.026 175.853 106.834C172.86 105.964 170.051 104.761 167.415 103.065C165.405 101.77 164.057 99.889 163.01 97.8541C161.945 95.7795 160.368 94.6424 158.325 93.8635C156.931 93.3315 155.617 92.5819 154.447 91.6189C154.298 91.4962 153.996 91.348 154.147 91.0809C154.269 90.8655 154.53 90.901 154.753 90.994C157.225 92.034 159.697 93.0704 162.167 94.1123C163.099 94.506 163.689 95.2159 164.128 96.1495C164.652 97.2627 165.283 98.3266 165.92 99.3807C166.757 100.767 167.883 101.839 169.239 102.733C172.75 105.048 176.644 106.334 180.646 107.326C186.52 108.784 192.519 109.243 198.538 109.549C199.641 109.604 200.819 109.498 201.877 110.02L201.879 110.018Z" fill="black"/>
<path d="M271.453 53.0866C271.995 48.449 271.686 43.5568 272.624 38.777C273.46 34.5192 275.065 30.5663 277.35 26.9099C277.58 26.5422 277.835 25.7648 278.442 26.0792C279.118 26.4275 279.162 27.1473 278.87 27.8691C277.82 30.4577 276.732 33.0323 275.752 35.6487C274.722 38.3894 274.162 41.249 273.752 44.1577C273.301 47.3496 272.928 50.5571 272.256 53.7135C272.194 54.0081 272.384 54.5835 271.788 54.4749C271.308 54.3876 271.494 53.8972 271.458 53.5611C271.446 53.4643 271.458 53.3633 271.458 53.0866H271.453Z" fill="black"/>
<path d="M258.731 66.0691C259.526 67.4752 259.402 68.9286 259.137 70.3169C257.586 78.401 254.847 86.1094 251.973 93.7743C250.535 97.6087 249.28 101.509 248.621 105.576C248.549 106.023 248.611 106.492 248.549 106.949C248.359 105.208 248.713 103.508 248.903 101.791C249.679 94.7788 252.512 88.3756 254.555 81.7392C255.785 77.7444 257.244 73.8209 258.01 69.6858C258.234 68.4756 258.49 67.2733 258.731 66.0671V66.0691Z" fill="black"/>
<path d="M296.784 39.9655C295.247 38.3856 293.678 36.8369 292.18 35.2173C290.124 32.9946 288.07 30.774 285.828 28.7391C283.499 26.623 280.684 25.4424 277.86 24.2519C277.286 24.0107 276.893 24.0465 276.309 24.2995C274.951 24.8906 273.537 25.4443 271.993 25.0727C271.819 25.0312 271.546 25.1418 271.5 24.9005C271.448 24.6318 271.622 24.3903 271.862 24.2756C272.438 23.9989 273.032 23.7615 273.609 23.4886C274.16 23.2295 274.79 23.0477 275.22 22.6461C275.729 22.1697 276.193 22.1816 276.781 22.3062C282.398 23.5046 286.692 26.7792 290.327 31.1695C292.562 33.8706 294.659 36.6807 296.8 39.4572C296.872 39.5521 296.931 39.6591 297 39.7597C296.928 39.8291 296.856 39.8962 296.784 39.9655Z" fill="black"/>
<path d="M187.2 102.734C186.109 103.061 185.029 103.439 183.925 103.705C180.685 104.487 177.423 104.706 174.141 103.97C173.955 103.929 173.762 103.881 173.601 103.787C173.213 103.559 172.742 103.271 172.872 102.774C172.973 102.388 173.475 102.39 173.866 102.392C175.574 102.396 177.284 102.436 178.99 102.385C183.43 102.25 187.739 101.404 191.902 99.8097C192.281 99.6634 192.635 99.3768 192.989 99.8848C193.345 100.397 192.964 100.708 192.699 100.988C191.443 102.323 189.867 103.213 188.328 104.139C187.449 104.666 186.534 105.129 185.623 105.598C185.404 105.711 185.134 106.076 184.905 105.695C184.743 105.426 184.753 105.084 185.016 104.785C185.666 104.048 186.497 103.543 187.202 102.731L187.2 102.734Z" fill="black"/>
<path d="M153.068 171.851C153 169.419 153.07 166.99 153.277 164.57C153.424 162.853 153.635 161.141 153.888 159.436C153.94 159.088 153.898 158.497 154.461 158.432C155.041 158.364 155.857 159.185 155.968 159.869C156.183 161.208 156.041 162.555 155.913 163.88C155.598 167.127 155.176 170.364 154.811 173.607C154.66 174.942 154.542 176.279 154.41 177.616C154.376 177.974 154.264 178.268 153.849 178.28C153.439 178.292 153.329 178.023 153.256 177.659C152.867 175.731 153.19 173.783 153.07 171.851H153.068Z" fill="black"/>
<path d="M93.5483 47.7097C94.359 46.7247 95.4751 46.2582 96.4964 45.7243C102.58 42.5385 108.843 39.7936 115.482 38.0316C116.691 37.7111 117.919 37.5175 119.157 37.9325C119.595 38.0789 119.968 38.3063 120.229 38.706C120.405 38.9747 120.471 39.2914 120.302 39.5403C120.111 39.8234 119.759 39.7796 119.515 39.6115C118.213 38.7179 116.867 39.1093 115.526 39.4476C111.34 40.5017 107.36 42.1487 103.404 43.8632C100.506 45.1191 97.6549 46.4876 94.6994 47.5969C94.3668 47.7215 94.0128 47.9646 93.5483 47.7116V47.7097Z" fill="black"/>
<path d="M262.459 40.001C262.403 36.5107 262.449 33.2674 262.184 30.0302C261.985 27.5783 261.946 25.1143 261.772 22.6602C261.584 20.0418 261.333 17.4276 261.085 14.8131C261.02 14.1112 260.917 13.4428 261.548 12.9146C261.948 12.5785 262.163 12.5766 262.391 13.1124C262.935 14.386 263.134 15.7407 263.316 17.0934C263.917 21.5509 263.548 25.9961 263.155 30.4478C262.904 33.2933 262.787 36.1529 262.604 39.0044C262.588 39.2575 262.532 39.5086 262.459 40.0029V40.001Z" fill="black"/>
<path d="M206.883 102.472C209.021 101.7 210.916 100.783 213.116 101.048C212.984 101.728 212.4 101.928 211.932 102.167C209.715 103.298 207.475 104.382 205.247 105.491C204.879 105.673 204.479 105.819 204.214 106.211C204.475 106.698 205.119 106.375 205.446 106.814C204.491 107.265 203.593 107.069 202.736 106.66C201.873 106.249 201.763 105.416 202.49 104.785C203.424 103.974 204.587 103.561 205.665 102.999C205.933 102.859 206.256 102.843 206.274 102.38C206.355 100.251 207.057 98.2276 207.332 96.1274C207.464 95.1248 207.649 94.1302 207.819 93.1318C207.858 92.91 207.92 92.6867 208.007 92.4809C208.098 92.2634 208.266 92.0656 208.516 92.1094C208.731 92.1487 208.732 92.386 208.791 92.5777C209.27 94.1561 208.819 95.6747 208.491 97.1895C208.115 98.9199 207.552 100.601 206.887 102.468L206.883 102.472Z" fill="black"/>
<path d="M165.007 75.6501C166.165 74.0564 167.256 72.3972 168.91 71.262C171.042 69.7986 173.442 69.591 175.887 69.8542C176.835 69.9568 177.798 69.8817 178.744 70.137C179.239 70.2712 179.721 70.3821 180.185 70.6492C179.855 71.0859 179.414 70.9239 179.025 70.9377C176.791 71.007 174.551 71.0367 172.396 71.7467C170.46 72.3854 169.222 73.8723 168.137 75.5277C167.812 76.022 168.369 76.0002 168.512 76.0555C169.4 76.4076 170.27 76.7872 171.127 77.2144C172.154 77.7246 173.007 78.4246 173.661 79.4333C171.059 77.4537 167.881 76.8901 164.983 75.6306C164.981 75.6306 165.007 75.6523 165.007 75.6523V75.6501Z" fill="black"/>
<path d="M86.3896 83.9994C84.1863 81.8775 74.5011 63.0513 74.6036 61.141C75.1046 61.0896 75.2186 61.5267 75.414 61.8312C78.3911 66.4803 80.9441 71.3668 83.2403 76.3977C84.1263 78.3397 84.9873 80.2934 85.8558 82.2453C86.0899 82.7712 86.3683 83.2856 86.3915 84.0013L86.3896 83.9994Z" fill="black"/>
<path d="M86.2599 66.1918C86.7706 67.3762 87.134 68.274 87.5441 69.152C87.7569 69.6069 87.7182 70.0795 87.3584 70.2948C86.9368 70.5482 86.6293 70.0616 86.4687 69.7472C85.6023 68.0426 84.6757 66.3598 84.0663 64.5364C83.9463 64.1786 83.7084 63.6622 84.3507 63.3657C85.0276 63.0533 85.0142 63.7038 85.2307 63.9629C86.1496 65.0744 87.3662 65.7665 88.521 66.5614C87.9135 65.3393 87.1653 64.2201 86.6602 62.9721C86.5152 62.6123 86.1865 62.1296 86.7281 61.8529C87.2269 61.5979 87.3837 62.1455 87.575 62.4401C88.6585 64.1153 89.8036 65.7585 90.4187 67.7005C90.5096 67.987 90.6528 68.282 90.3412 68.4954C90.0724 68.6813 89.8733 68.3925 89.6605 68.2957C88.5348 67.7775 87.4881 67.1113 86.2618 66.1918H86.2599Z" fill="black"/>
<path d="M116.95 63.6683C117.482 65.4936 118.432 67.1094 118.994 68.9839C118.643 68.8951 118.391 68.7606 118.174 68.4756C116.844 66.7276 115.904 64.7757 115.244 62.6775C115.147 62.3673 115.014 61.9657 115.265 61.7442C115.561 61.4813 115.925 61.7324 116.24 61.8864C117.644 62.5746 118.697 63.7316 119.971 64.831C119.6 63.4351 118.844 62.3571 118.364 61.1589C118.184 60.71 117.878 60.3026 117.859 59.7962C117.848 59.4997 117.565 59.0863 118.012 58.9441C118.381 58.8252 118.436 59.2665 118.561 59.4978C119.654 61.5206 120.585 63.6207 121.314 65.8061C121.428 66.1461 121.993 66.5199 121.432 67.0065C120.15 65.632 118.445 64.831 116.954 63.6664L116.95 63.6683Z" fill="black"/>
<path d="M207.872 89.821C208.025 89.0657 208.185 88.3123 208.33 87.5548C208.443 86.9675 208.516 86.3506 208.255 85.8087C207.845 84.9604 208.116 84.2048 208.462 83.4693C209.566 81.126 211.034 79.0377 212.831 77.1945C213.284 76.7299 214.056 76.1031 214.412 76.4312C214.866 76.8523 214.108 77.4696 213.81 77.9639C212.576 80.0186 211.154 81.9545 210.073 84.108C209.294 85.6585 209.003 87.3787 208.383 88.9826C208.27 89.2734 208.175 89.5718 208.075 89.8667C208.009 89.8507 207.941 89.837 207.876 89.821H207.872Z" fill="black"/>
<path d="M112.721 67.5167C111.923 65.3572 110.899 63.597 110.396 61.6196C111.901 64.0974 112.828 66.8621 114.321 69.6187C112.628 68.7644 111.139 68.0308 109.69 66.7374C109.953 67.4119 110.124 67.8902 110.325 68.3532C110.53 68.8257 110.787 69.2727 110.979 69.7513C111.17 70.2296 111.758 70.93 111.259 71.1869C110.696 71.4757 110.408 70.5463 110.18 70.1172C109.495 68.8296 108.945 67.463 108.381 66.1125C108.177 65.6262 108.038 65.108 107.634 64.7559C107.301 64.4651 107.493 64.23 107.663 64.0044C107.88 63.7197 108.073 63.876 108.307 64.0459C109.744 65.0843 111.147 66.1678 112.719 67.5167H112.721Z" fill="black"/>
<path d="M105.719 63.3954C107.634 66.0374 109.201 68.8395 109.847 72.1323C108.226 70.5265 106.412 69.2133 104.462 67.572C105.164 69.4408 106.031 70.9358 106.408 72.6285C104.779 70.6667 104.268 68.1196 103.075 65.8774C105.059 66.4033 106.381 67.9893 108.097 69.158C107.483 67.0915 106.066 65.47 105.721 63.3974L105.719 63.3954Z" fill="black"/>
<path d="M200.935 83.6076C198.453 83.6274 197.012 82.0475 196.985 80.165C196.966 78.824 198.629 77.1095 199.939 77.0878C200.111 77.0859 200.347 76.9929 200.432 77.2479C200.537 77.5623 200.297 77.6278 200.092 77.7898C198.643 78.931 198.484 79.8662 199.324 81.6005C199.645 82.267 201.132 82.9948 201.784 82.7731C202.19 82.6367 202.247 82.1325 202.392 81.7529C202.628 81.1359 202.653 80.3883 203.372 80.0739C203.529 80.0046 203.659 79.7595 203.873 79.9455C204.053 80.1036 204.136 80.3113 204.123 80.5583C204.028 82.3124 202.672 83.6076 200.935 83.6057V83.6076Z" fill="black"/>
<path d="M93.6838 77.0246C93.6954 78.6719 93.2813 79.1582 92.1712 79.0477C91.759 79.0061 91.5155 78.7866 91.3277 78.4898C90.1401 76.6309 89.0528 74.7187 88.2368 72.6464C87.9986 72.0432 88.1749 71.7703 88.6778 71.6141C89.4978 71.3588 90.7204 70.906 91.057 71.701C91.6296 73.0496 92.9234 73.8327 93.3219 75.2567C93.5 75.8894 93.74 76.4926 93.6819 77.0226L93.6838 77.0246ZM92.3859 77.8709C93.1131 77.877 93.1034 77.8789 92.939 77.1926C92.7147 76.2651 92.2793 75.4484 91.6874 74.7228C91.5174 74.5132 91.3627 74.0701 90.9504 74.4439C90.6373 74.7286 90.3316 74.9679 90.6604 75.49C91.0376 76.0871 91.3373 76.738 91.6277 77.3843C91.7999 77.7661 92.024 77.954 92.3859 77.869V77.8709ZM90.0897 74.4992C90.5442 73.8327 90.6835 73.1566 90.9292 72.5275C91.082 72.138 90.9217 71.8633 90.4901 71.9246C89.8963 72.0077 89.2365 71.6713 88.7221 72.2013C88.6949 72.2291 88.8209 72.425 88.8865 72.5336C89.2697 73.1665 89.6585 73.7953 90.0897 74.4992Z" fill="black"/>
<path d="M167.773 83.2696C167.717 85.8247 166.883 87.8989 164.8 89.3645C163.827 90.0485 162.902 90.8118 162.171 91.7828C162.041 91.955 161.863 92.2298 161.631 92.0755C161.38 91.9116 161.554 91.5892 161.656 91.415C162.252 90.4044 162.854 89.3645 163.757 88.6267C165.372 87.3059 166.067 85.6467 165.873 83.5642C165.817 82.9533 166.026 82.443 166.413 81.9705C166.626 81.7114 166.775 81.4542 167.167 81.5334C167.527 81.6066 167.533 81.9011 167.645 82.1679C167.808 82.5536 167.74 82.9434 167.775 83.2677L167.773 83.2696Z" fill="black"/>
<path d="M130.581 75.3593C129.662 76.2494 128.647 76.8504 127.637 77.4437C124.826 79.0949 121.909 80.511 118.755 81.3455C118.279 81.4721 117.526 81.6775 117.368 81.2327C117.145 80.6116 117.958 80.4714 118.373 80.2953C122.31 78.6262 126.18 76.7971 130.202 75.3398C130.283 75.3101 130.386 75.3475 130.581 75.3593Z" fill="black"/>
<path d="M253.75 198.765C254.911 200.814 254.416 202.914 254.114 205.001C253.984 205.896 253.81 206.786 253.648 207.676C253.572 208.086 253.34 208.489 252.95 208.493C252.578 208.495 252.35 208.139 252.216 207.716C251.996 207.016 251.959 206.247 252 205.596C252.147 203.217 252.029 200.814 252.505 198.461C252.58 198.091 252.719 197.789 253.191 197.773C252.526 200.363 253.203 203.007 252.702 205.588C253.282 204.172 253.41 202.663 253.632 201.182C253.688 200.802 253.443 200.377 253.337 199.972C253.212 199.497 253.197 199.056 253.754 198.767L253.75 198.765Z" fill="black"/>
<path d="M96.8197 63.7574C96.6378 62.806 96.8737 61.835 96.6046 60.9177C96.5371 60.6841 96.4346 60.2828 96.7459 60.1247C97.0634 59.9624 97.2722 60.2767 97.4657 60.4863C98.3013 61.3921 99.127 62.3037 99.9571 63.2133C100.025 63.1561 100.092 63.1009 100.16 63.0433C99.6843 61.242 99.2105 59.4403 98.7229 57.5932C99.5624 57.7734 99.6571 58.4891 99.8505 59.0566C100.29 60.34 100.653 61.6513 101.038 62.9545C101.116 63.2175 101.416 63.5379 101.114 63.7574C100.822 63.9709 100.456 63.8622 100.139 63.6447C99.5527 63.243 98.9589 62.8574 98.4829 62.3117C98.1832 61.9676 97.8776 61.6295 97.4328 61.133C97.2297 62.4877 97.5913 63.5338 97.8951 64.5977C97.9723 64.8687 98.367 65.2067 97.9723 65.4719C97.5525 65.7547 97.3438 65.2898 97.1175 65.0565C95.7305 63.6229 94.6182 61.9835 93.601 60.2748L93.8135 60.0969C94.8154 61.3171 95.8177 62.5372 96.8197 63.7574Z" fill="black"/>
<path d="M98.7304 70.5757C99.4577 69.1679 99.8562 69.144 100.612 70.3721C101.019 71.0326 101.417 71.7048 101.746 72.409C102.063 73.0892 102.342 73.8209 101.622 74.4557C100.999 75.0053 99.7246 75.1558 99.1308 74.6021C97.7188 73.2809 96.825 71.6415 96.6587 69.6542C96.5968 68.9046 97.0784 68.3986 97.626 68.0701C97.9488 67.8746 98.4635 67.8171 98.8601 68.2679C97.6413 68.1474 97.2469 68.711 97.5253 69.9529C97.8794 71.5348 98.7304 72.7965 99.8021 73.9455C100.104 74.2698 100.446 74.4656 100.814 74.242C101.241 73.9809 101.027 73.5637 100.895 73.1902C100.677 72.577 100.469 71.9601 100.272 71.3393C100.034 70.5916 99.8118 69.8421 98.7345 70.5757H98.7304Z" fill="black"/>
<path d="M94.2544 69.1066C94.0512 69.1935 93.8306 69.2529 93.6471 69.3695C93.2852 69.6008 92.5736 69.5711 92.6664 70.1664C92.792 70.9613 93.6065 71.3648 94.3415 71.1945C94.6084 71.1335 94.8888 71.1393 95.1732 71.1137C95.0882 71.8217 94.0087 71.7207 94.175 72.4169C94.3047 72.9627 94.7691 73.4154 95.0282 73.9394C95.3666 74.6276 95.8192 75.2605 95.8464 76.097C95.8617 76.5577 96.183 76.7357 96.6571 76.4846C96.9761 76.3165 97.3396 76.2373 97.7228 76.1031C97.684 76.6983 97.208 76.7692 96.9333 76.9948C96.4111 77.4239 96.0689 77.6571 95.477 76.7456C94.6856 75.5254 93.6818 74.4279 92.9621 73.1346C92.5695 72.4307 92.2214 71.699 91.8307 70.9929C91.4882 70.374 91.6857 69.9408 92.2426 69.6306C92.8599 69.2864 93.5215 69.0848 94.2544 69.1066Z" fill="black"/>
<path d="M180.766 71.7128C180.957 72.1639 180.911 72.4071 180.849 72.67C180.515 74.0621 181.199 74.6791 182.578 74.7682C184.923 74.9206 187.05 74.2679 189.118 73.3167C191.101 72.4052 192.803 71.0128 194.575 69.7472C195.13 69.3497 195.658 68.905 196.537 68.5925C195.699 69.7887 194.782 70.5265 193.782 71.169C190.987 72.9646 188.169 74.6989 184.865 75.3772C183.778 75.6008 182.687 75.5098 181.605 75.4603C180.973 75.4328 180.708 74.78 180.522 74.2244C180.255 73.4253 180.149 72.6167 180.766 71.7089V71.7128Z" fill="black"/>
<path d="M104.934 72.9349C104.914 73.2256 104.967 73.4394 104.717 73.5263C104.444 73.6212 104.191 73.5816 104.019 73.3522C103.727 72.9627 103.419 72.5751 103.202 72.1419C102.448 70.637 101.725 69.1165 101.005 67.5937C100.897 67.3662 100.864 67.0953 100.829 66.8403C100.794 66.593 100.899 66.3697 101.113 66.2607C101.369 66.1323 101.618 66.2055 101.794 66.4429C102.046 66.779 102.338 67.0953 102.52 67.4672C103.307 69.0868 104.166 70.6709 104.773 72.3754C104.849 72.5869 104.897 72.8084 104.934 72.9349Z" fill="black"/>
<path d="M183.929 119.219C183.955 119.72 183.723 119.996 183.334 120.139C182.559 120.425 181.748 120.615 181.052 121.112C180.882 121.232 180.495 121.288 180.441 121.106C180.048 119.791 178.93 120.36 178.177 120.269C176.696 120.089 175.189 120.131 173.582 119.702C175.673 119.083 177.599 119.625 179.528 119.723C180.118 119.753 180.631 119.89 181.222 119.472C182.021 118.907 183.015 119.273 183.927 119.221L183.929 119.219Z" fill="black"/>
<path d="M116.474 69.7156C114.751 67.1921 113.221 64.5936 112.35 61.6056C113.203 61.4989 113.524 61.8746 113.788 62.5133C114.604 64.4888 115.484 66.4387 116.352 68.3925C116.54 68.8139 116.584 69.235 116.472 69.7175L116.474 69.7156Z" fill="black"/>
<path d="M129.351 80.511C127.31 81.7251 125.33 83.0124 123.15 83.9201C122.933 84.0112 122.695 84.0783 122.513 83.9044C122.285 83.6869 122.604 83.4929 122.596 83.2932C122.583 82.8405 122.791 82.536 123.146 82.3382C125.074 81.2625 127.153 80.6947 129.349 80.511H129.351Z" fill="black"/>
<path d="M126.183 86.7679C126.113 86.3864 126.19 86.1528 126.773 86.0541C127.765 85.886 128.726 85.5202 129.703 85.2512C129.939 85.186 130.26 85.0732 130.361 85.4074C130.454 85.718 130.701 86.1014 130.285 86.3841C129.436 86.9618 128.622 87.6085 127.719 88.0772C126.902 88.5002 126.204 87.8852 126.184 86.7698L126.183 86.7679Z" fill="black"/>
<path d="M94.3124 66.0355C93.943 67.149 93.0685 67.3921 92.2988 67.7263C91.8869 67.9043 91.6487 67.471 91.4843 67.1825C90.5964 65.6262 90.0183 63.9255 89.3607 62.2644C89.1188 61.6493 89.6951 61.2816 90.0705 60.9157C90.4536 60.5419 90.8324 60.1266 91.4206 60.1029C91.4612 60.1029 91.5618 60.2592 91.5446 60.3087C91.3568 60.8148 90.8674 61.0145 90.4671 61.234C89.697 61.6551 89.7958 61.9519 90.0958 62.7823C90.6315 64.2635 91.5193 64.2872 92.6719 63.9491C92.7494 64.313 92.5097 64.2479 92.4091 64.2951C91.0821 64.9281 90.9777 65.4917 91.9409 66.6227C92.1694 66.8918 92.4032 66.8285 92.6201 66.7512C93.146 66.5614 93.653 66.3202 94.3105 66.0393L94.3124 66.0355Z" fill="black"/>
<path d="M203.684 108.291C203.963 108.274 204.166 108.406 204.334 108.542C204.934 109.033 205.518 109.545 206.106 110.053C206.367 110.281 206.514 110.481 206.266 110.878C206.051 111.222 205.819 111.343 205.483 111.264C204.61 111.054 203.796 110.678 202.987 110.285C202.533 110.063 202.5 109.628 202.624 109.276C202.796 108.794 203.227 108.499 203.682 108.291H203.684Z" fill="black"/>
<path d="M126.018 66.1282C125.237 66.4547 124.734 66.5138 124.163 66.0355C122.198 64.3862 121.113 62.3334 121.117 59.7013C121.117 58.9319 121.904 58.2281 122.616 58.4495C122.877 58.5306 123.078 58.6751 123.08 58.9914C123.084 59.3751 122.792 59.2623 122.594 59.2802C121.962 59.3355 121.739 59.6876 121.726 60.3243C121.672 62.7072 123.562 65.3888 126.02 66.1282H126.018Z" fill="black"/>
<path d="M246.353 208.159C246.887 207.858 247.015 207.354 247.088 206.776C247.377 204.522 247.247 202.258 247.27 199.997C247.274 199.539 247.286 199.096 247.64 198.696C248.011 199.04 248.11 199.473 248.033 199.92C247.677 201.975 247.914 204.046 247.868 206.106C247.854 206.676 247.777 207.229 247.576 207.728C247.373 208.23 246.999 208.667 246.386 208.133L246.355 208.157L246.353 208.159Z" fill="black"/>
<path d="M208.324 74.3174C208.945 74.1768 209.294 74.6002 209.522 75.136C209.812 75.8162 210.071 76.5143 210.292 77.2204C210.352 77.414 210.493 77.7719 210.12 77.8671C209.833 77.938 209.51 78.14 209.255 77.7623C208.694 76.9335 208.067 76.1466 207.576 75.2785C207.168 74.5586 207.442 74.2362 208.326 74.3152L208.324 74.3174Z" fill="black"/>
<path d="M76.3539 51.1169C76.3867 51.2891 76.2958 51.3284 76.2029 51.3542C76.0154 51.4038 75.907 51.2632 75.791 51.1545C74.9613 50.3791 74.1312 49.604 73.3033 48.825C72.7367 48.2908 72.1679 47.7569 71.6107 47.2112C71.3516 46.9582 71.0828 46.6278 71.315 46.2738C71.6013 45.8348 71.8816 46.2521 72.1116 46.4163C73.7909 47.6148 75.0288 49.2481 76.2611 50.8836C76.317 50.9587 76.3345 51.0635 76.3558 51.1169H76.3539Z" fill="black"/>
<path d="M241.098 195.894C240.179 195.906 239.494 195.277 239.547 194.506C239.589 193.873 239.626 193.175 240.523 193.165C241.307 193.155 242.081 193.996 242.046 194.846C242.019 195.53 241.566 195.787 241.1 195.896L241.098 195.894Z" fill="black"/>
<path d="M232.022 71.6419C232.678 70.0577 232.194 68.365 232.546 66.7454C232.891 65.1594 233.134 63.5498 233.423 61.95C234.159 62.9111 233.295 69.2251 232.022 71.6438V71.6419Z" fill="black"/>
<path d="M246.385 208.135C245.891 208.013 245.95 207.502 245.95 207.225C245.955 204.214 246.05 201.204 246.539 198.224C246.553 198.142 246.656 198.077 246.768 197.949C247.464 198.997 246.83 200.029 246.795 201.024C246.713 203.405 246.286 205.768 246.352 208.161L246.385 208.135Z" fill="black"/>
<path d="M164.632 117.056C162.765 118.31 160.712 119.223 158.563 119.915C158.252 120.016 157.9 119.9 157.859 119.619C157.817 119.324 158.186 119.162 158.449 119.075C160.119 118.515 161.796 117.977 163.471 117.434C163.858 117.307 164.245 117.182 164.632 117.056Z" fill="black"/>
<path d="M214.15 113.004C212.812 113.231 212.595 112.256 212.317 111.53C212.015 110.745 212.346 109.996 213.075 109.628C213.949 109.187 214.462 109.871 215.04 110.536C214.4 110.801 213.576 110.621 213.276 111.331C212.967 112.062 213.553 112.48 214.152 113.004H214.15Z" fill="black"/>
<path d="M125.624 65.276C125.637 64.2792 125.542 63.2884 125.418 62.2957C125.277 61.1586 125.084 60.963 123.985 61.0598C123.718 61.0835 123.281 61.2656 123.227 60.9196C123.172 60.5774 123.5 60.3026 123.91 60.2371C124.447 60.1502 124.981 60.1384 125.275 60.6742C126.024 62.0426 126.324 63.5021 125.962 65.0604C125.931 65.1968 125.836 65.284 125.622 65.2779L125.624 65.276Z" fill="black"/>
<path d="M232.991 61.2499C232.817 61.8628 232.492 61.9321 232.179 61.8254C231.099 61.4595 229.993 61.4317 228.875 61.4554C228.592 61.4615 228.209 61.4794 228.19 61.0975C228.171 60.71 228.639 60.7355 228.838 60.7176C229.718 60.6349 230.625 60.5378 231.471 60.9116C231.939 61.1193 232.391 61.3369 232.991 61.2499Z" fill="black"/>
<path d="M238.687 211.655C239.475 211.248 240.388 211.487 240.779 212.145C240.974 212.478 241.009 212.843 240.78 213.164C240.417 213.674 239.868 213.569 239.363 213.522C238.866 213.475 238.407 213.265 238.212 212.768C238.096 212.476 238.086 212.06 238.523 211.972C239.146 211.847 238.699 212.318 238.767 212.502C238.875 212.794 239.04 213.037 239.343 213.095C239.598 213.144 239.769 212.933 239.866 212.727C240.013 212.412 240.024 212.08 239.732 211.829C239.434 211.572 239.102 211.418 238.687 211.655Z" fill="black"/>
<path d="M112.499 75.6938C112.25 75.6877 112.01 75.7353 111.892 75.3794C111.749 74.9541 112.046 74.8235 112.285 74.7327C113.027 74.4477 113.788 74.2126 114.544 73.9672C114.702 73.9158 114.863 73.9455 114.969 74.0998C115.095 74.2838 114.964 74.4024 114.853 74.5091C114.186 75.1439 113.406 75.5551 112.499 75.6938Z" fill="black"/>
<path d="M274.759 73.9317C275.164 72.1697 275.011 70.2891 275.831 68.6161C275.926 68.636 276.021 68.6535 276.115 68.6733C275.76 70.4472 275.404 72.2192 275.048 73.9931C274.951 73.9733 274.854 73.9516 274.758 73.9317H274.759Z" fill="black"/>
<path d="M200.065 79.2748C200.094 79.2946 200.233 79.3461 200.233 79.3994C200.233 80.2458 200.827 80.3647 201.446 80.4455C201.697 80.4771 201.771 80.6116 201.724 80.841C201.676 81.0803 201.56 81.2762 201.301 81.3018C200.749 81.3554 200.399 81.0072 199.997 80.6829C199.566 80.3369 199.726 79.9295 199.703 79.5301C199.691 79.3342 199.815 79.2413 200.067 79.2748H200.065Z" fill="black"/>
<path d="M215.004 68.3669C215.874 67.1806 217.13 66.6445 218.472 66.2569C217.315 66.9608 216.16 67.6631 215.004 68.3669Z" fill="black"/>
<path d="M275.042 75.3714C276.717 75.1577 277.965 75.6858 279.197 76.291C277.901 76.004 276.607 75.7174 275.042 75.3714Z" fill="black"/>
<path d="M280.067 64.5185C280.268 66.2154 279.572 66.8007 277.781 66.2905C279.063 66.3499 280.003 65.9799 280.067 64.5204V64.5185Z" fill="black"/>
<path d="M152.677 92.0202C152.304 91.9116 152.267 91.6445 152.195 91.4566C152.075 91.1422 151.801 90.8416 151.973 90.4639C151.994 90.4166 152.147 90.3831 152.205 90.4125C152.607 90.6144 152.613 91.0275 152.671 91.4013C152.702 91.5892 152.677 91.7851 152.677 92.0202Z" fill="black"/>
<path d="M231.448 63.6801C231.443 63.073 231.525 62.6618 231.964 62.4816C232.161 62.4008 232.333 62.5983 232.359 62.7983C232.436 63.4389 231.906 63.4389 231.449 63.6801H231.448Z" fill="black"/>
<path d="M94.3665 224.303C94.1383 223.991 93.9389 223.651 93.6761 223.372C93.3761 223.056 92.9448 222.842 92.5694 223.125C92.2544 223.362 92.0703 223.746 92.2753 224.238C92.6913 225.231 93.2814 226.16 93.5058 227.461C92.9216 226.37 92.436 225.47 91.9584 224.565C91.6237 223.93 91.4284 223.269 91.9894 222.672C92.3741 222.261 92.881 222.344 93.3182 222.583C93.9739 222.943 94.5212 223.41 94.3627 224.303H94.3665Z" fill="black"/>
<path d="M286.653 57.783C286.338 56.1238 285.756 57.5993 285.222 57.5418C285.158 56.7705 285.092 55.9855 285.009 54.979C285.731 55.6136 285.507 56.2347 285.584 56.7724C286.002 56.9347 286.157 55.8609 286.741 56.5769C287.1 57.0178 287.135 57.3006 286.656 57.7811L286.653 57.783Z" fill="black"/>
<path d="M281.355 55.8037C280.827 55.9085 280.274 55.8925 280.198 55.4279C280.09 54.7417 280.351 54.0435 280.688 53.4285C280.734 53.3435 281.146 53.2524 281.131 53.6521C281.123 53.8419 281.088 54.0435 281.017 54.2177C280.775 54.803 280.669 55.3506 281.357 55.8018L281.355 55.8037Z" fill="black"/>
<path d="M282.553 55.1688C282.938 55.495 282.499 56.2842 283.056 56.2366C283.81 56.1714 283.576 55.3548 283.678 54.7714C284.479 55.2321 284.034 55.7778 283.798 56.1871C283.514 56.6794 282.937 56.7191 282.533 56.4226C282.065 56.0804 282.247 55.6018 282.551 55.1688H282.553Z" fill="black"/>
<path d="M281.187 60.4684C280.489 60.34 279.643 60.2489 279.475 59.6202C279.264 58.8313 279.75 58.0341 280.28 57.2529C280.394 57.884 280.113 58.3012 279.974 58.7441C279.781 59.3553 279.717 59.8556 280.539 59.9978C280.762 60.0355 281.015 60.1502 281.185 60.4684H281.187Z" fill="black"/>
<path d="M282.984 60.5854C282.665 60.3301 282.769 59.9902 282.619 59.7528C282.356 59.8477 282.499 60.4566 282.098 60.255C281.735 60.071 281.992 59.7074 282.146 59.5035C282.363 59.2208 282.667 59.0093 283.025 59.3492C283.475 59.7745 283.17 60.1719 282.984 60.5854Z" fill="black"/>
<path d="M280.551 59.4738C280.23 58.7323 280.363 58.0993 281.006 57.4053C281.286 58.323 280.798 58.8687 280.551 59.4738Z" fill="black"/>
<path d="M285.344 107.957C284.924 107.684 284.721 108.717 284.346 108.113C284.141 107.787 284.023 107.324 284.056 106.941C284.094 106.496 284.236 105.914 284.854 105.972C285.423 106.023 286.077 106.254 286.075 106.917C286.075 107.172 286.305 108.208 285.342 107.955L285.344 107.957Z" fill="black"/>
<path d="M178.191 43.1692C178.288 43.7999 177.99 44.2884 177.831 44.8047C177.518 45.8249 177.767 46.2106 178.79 46.2304C179.142 46.2365 179.495 46.2304 179.934 46.2304C179.659 47.3397 178.779 47.5435 177.976 47.7589C177.419 47.9094 176.738 47.9448 176.394 47.3576C175.957 46.616 175.908 45.7617 176.458 45.0418C176.963 44.3814 177.164 43.3986 178.193 43.1654L178.191 43.1692Z" fill="black"/>
<path d="M186.733 42.4017C186.321 42.4078 185.428 40.9917 185.418 40.2722C185.412 39.7182 185.903 39.5207 186.256 39.5128C187.313 39.485 188.076 40.1198 188.072 40.8812C188.068 41.7691 187.523 42.3899 186.733 42.4017Z" fill="black"/>
<path d="M181.481 55.1215C180.996 55.1215 180.609 55.1391 180.224 55.1174C179.787 55.0918 179.479 54.7417 179.445 54.3956C179.404 54.002 179.839 53.8202 180.191 53.7748C180.603 53.7212 181.035 53.7074 181.443 53.7688C182.319 53.9033 183.189 54.0911 184.056 54.2749C184.273 54.3206 184.514 54.4391 184.453 54.7298C184.399 54.9829 184.147 54.9356 183.967 54.9238C183.095 54.8701 182.257 55.2637 181.48 55.1215H181.481Z" fill="black"/>
<path d="M175.75 41.5694C175.947 42.0915 175.756 42.5899 175.528 43.112C175.332 43.5548 175.005 43.5667 174.773 43.3315C174.301 42.8468 173.92 42.2855 173.936 41.5279C173.951 40.8397 174.572 40.6122 174.905 40.185C175.065 39.9777 175.756 39.9064 175.75 40.64C175.75 40.9327 175.75 41.2253 175.75 41.5694Z" fill="black"/>
</svg>
