<svg width="256" height="256" viewBox="0 0 256 256" fill="none" xmlns="http://www.w3.org/2000/svg">
<path d="M213.395 158.707V161.054C213.032 161.994 212.755 162.98 212.29 163.867C211.39 165.579 210.459 167.283 209.402 168.9C208.05 170.97 206.615 172.993 205.11 174.956C204.059 176.328 202.815 177.55 201.689 178.865C200.163 180.644 198.534 182.323 196.597 183.648C194.95 184.774 193.784 186.246 193.071 188.077C192.793 188.788 192.67 189.56 192.488 190.263C193.546 189.893 194.498 189.306 195.463 189.284C196.956 189.25 198.494 189.459 199.944 189.83C201.354 190.191 202.673 190.901 204.04 191.435C206.121 192.246 207.643 193.647 208.654 195.637C210.12 198.518 210.658 201.609 210.743 204.799C210.77 205.757 210.71 206.724 210.594 207.674C210.475 208.638 210.324 209.617 210.027 210.537C209.705 211.537 209.197 212.478 208.77 213.445C208.283 214.548 207.623 215.468 206.454 215.973C205.607 216.338 204.832 216.872 203.984 217.233C203.403 217.479 202.723 217.893 202.175 217.12C202.008 216.883 201.87 216.628 201.706 216.363C200.403 216.7 199.097 217.046 197.789 217.378C194.884 218.114 191.938 218.541 188.938 218.574C185.544 218.61 182.152 218.646 178.76 218.731C177.657 218.758 176.558 218.939 175.458 219.058C173.838 219.234 172.224 219.485 170.6 219.576C169.418 219.642 168.225 219.463 167.037 219.464C165.752 219.465 164.465 219.526 163.181 219.608C162.458 219.653 161.742 219.794 161.021 219.893H159.554C159.331 219.844 159.11 219.774 158.886 219.749C157.594 219.614 156.317 219.507 155.284 218.533C154.703 217.984 154.117 217.362 153.241 217.255C152.364 217.148 151.484 217.054 150.605 216.958C149.719 216.861 148.833 216.749 147.944 216.68C146.978 216.605 146.001 216.468 145.045 216.546C142.97 216.716 140.905 216.992 138.839 217.249C136.565 217.532 134.3 217.902 132.021 218.125C129.866 218.334 127.698 218.445 125.532 218.518C124.184 218.563 122.831 218.446 121.482 218.427C117.332 218.37 113.181 218.377 109.035 218.254C107.268 218.201 105.505 217.922 103.75 217.676C101.789 217.4 99.8313 217.463 97.9168 217.865C94.5041 218.584 91.0816 219.182 87.6014 219.463C86.689 219.536 85.7866 219.746 84.8785 219.893H81.0641C80.9202 219.844 80.7809 219.769 80.6327 219.75C79.9197 219.656 79.2053 219.542 78.4892 219.499C77.0852 219.414 75.6782 219.345 74.2714 219.317C72.4843 219.282 70.6916 219.366 68.9091 219.266C67.4404 219.184 65.9822 218.747 64.5208 218.76C62.4935 218.779 60.573 218.33 58.6333 217.894C56.682 217.457 54.7324 217.391 52.7693 217.83C51.2994 218.158 50.0142 217.425 49.8352 216.034C49.5652 213.932 49.3716 211.816 49.2469 209.701C49.1793 208.571 49.2791 207.424 49.3846 206.292C49.4962 205.1 49.6854 203.913 49.8776 202.73C50.155 201.025 50.9811 199.551 51.8787 198.112C52.8001 196.634 53.8023 195.226 55.3544 194.332C56.267 193.807 57.2118 193.297 58.3121 193.561C59.0808 193.746 59.8114 193.948 60.636 193.966C62.8161 194.014 65.008 194.167 67.0488 195.081C68.5467 195.751 70.0988 195.65 71.6481 195.374C72.2556 195.266 72.8366 195.009 73.4292 194.818C73.0992 194.165 72.9112 193.361 72.4094 192.889C71.0467 191.605 69.619 190.365 68.0918 189.286C65.784 187.656 63.4544 186.026 60.9821 184.67C57.2087 182.6 53.3211 180.734 49.4522 178.843C48.2594 178.259 47.1209 177.668 46.4814 176.45C46.2157 175.945 46.0587 175.383 45.8518 174.848C45.8518 174.554 45.8518 174.261 45.8518 173.968C46.1939 172.431 46.5812 170.903 46.8673 169.355C47.2764 167.14 47.5905 164.91 48.4267 162.793C49.4522 160.194 50.8782 157.847 52.7944 155.822C53.6951 154.872 54.6442 153.946 55.9091 153.449C57.0343 153.007 58.1889 152.854 59.3904 152.981C61.4121 153.193 63.4352 153.381 65.4555 153.6C67.5314 153.823 69.6015 154.112 71.6803 154.294C73.1623 154.423 74.5252 154.891 75.7912 155.598C77.0691 156.312 78.2633 157.172 79.6571 158.074C79.7495 157.251 79.8154 156.616 79.8948 155.982C80.134 154.076 80.3305 152.163 80.6356 150.268C80.8586 148.886 81.0859 147.476 81.5674 146.175C82.0632 144.834 82.8877 143.617 83.5303 142.328C84.057 141.271 84.5102 140.18 85.0267 139.118C85.8307 137.46 86.6317 135.799 87.4885 134.169C88.2618 132.699 89.0672 131.242 89.9343 129.827C90.9787 128.12 92.1949 126.514 93.1663 124.769C94.2005 122.912 94.9121 120.93 95.3582 118.803C95.804 116.672 96.787 114.658 97.4664 112.571C97.7598 111.67 97.9917 110.722 98.0516 109.782C98.1237 108.652 97.977 107.51 97.9357 106.373C97.9108 105.69 98.1398 105.125 98.7016 104.685C99.0185 104.435 99.3677 104.14 99.5217 103.787C100.107 102.45 100.999 101.393 102.214 100.609C104.806 98.9367 107.41 97.2817 110.007 95.6151C111.38 94.7333 112.79 93.9015 114.108 92.942C115.251 92.1102 116.272 91.1125 117.375 90.2234C117.852 89.8389 118.556 89.6498 118.883 89.1802C119.639 88.0946 120.229 86.8916 120.875 85.7531C119.144 85.8162 117.5 85.9601 115.86 85.9146C114.007 85.8631 112.134 85.7752 110.312 85.4611C108.137 85.0871 106.687 83.7724 106.413 81.4649C106.232 79.9479 106.102 78.4235 106.021 76.8991C105.995 76.3916 105.876 76.1185 105.384 75.9426C104.893 75.7665 104.435 75.4892 103.98 75.2251C103.027 74.6721 102.814 74.2099 103.22 73.1757C103.818 71.6542 104.509 70.1696 105.144 68.6628C105.218 68.4852 105.246 68.252 105.204 68.0657C104.796 66.2639 104.406 64.4565 103.926 62.6726C103.754 62.0373 103.942 61.7863 104.466 61.6837C104.539 61.3478 104.693 61.0337 104.654 60.7462C104.567 60.1183 105.257 59.3965 104.426 58.8435C104.341 58.7876 104.378 58.4619 104.438 58.2903C105.081 56.4492 105.292 54.5271 105.591 52.6142C105.764 51.502 105.83 50.2213 107.18 49.6872C107.273 49.6505 107.297 49.4172 107.334 49.2719C107.647 48.0028 108.159 46.8307 109.3 46.1103C111.511 44.7137 113.97 43.9287 116.552 43.7115C119.367 43.474 122.183 43.7924 124.913 44.4935C128.069 45.3049 131.188 46.2599 134.304 47.218C136.911 48.019 139.565 48.7438 141.927 50.1582C142.914 50.7494 143.808 51.5153 144.678 52.278C144.935 52.5039 144.992 52.9837 145.086 53.3608C145.189 53.7671 145.282 54.1898 145.279 54.605C145.277 55.0421 145.112 55.4764 145.093 55.9151C145.008 57.8619 145.03 59.8175 144.858 61.7557C144.706 63.4956 144.459 65.243 144.043 66.9359C143.824 67.8265 143.937 68.494 144.377 69.2143C144.523 69.4535 144.565 69.7557 144.709 70.2004C144.329 70.0271 144.188 69.9627 144.021 69.8878C143.968 70.9061 143.991 71.8846 143.268 72.69C143.035 72.9496 142.935 73.3516 142.837 73.7067C142.724 74.1205 142.713 74.5605 142.601 74.9743C142.341 75.9308 142.768 76.723 143.154 77.5315C143.293 77.8235 143.481 78.1066 143.55 78.4147C143.666 78.9428 143.705 79.4885 143.78 80.0533C143.868 80.0593 143.962 80.0768 144.054 80.0695C146.38 79.8642 148.252 80.636 149.668 82.5446C149.964 82.9452 150.225 83.4982 150.979 83.4688C152.718 83.3984 154.462 83.4306 156.202 83.4527C157.043 83.4629 157.891 83.488 158.721 83.6096C159.532 83.7286 160.285 83.9002 161.057 83.3794C161.38 83.1623 161.906 83.1211 162.314 83.1784C163.73 83.3749 165.143 83.6082 166.539 83.9104C167.603 84.1408 168.579 84.603 169.038 85.6929C169.204 86.0862 169.174 86.56 169.319 86.9665C170.107 89.1819 170.991 91.3678 171.709 93.6052C172.368 95.6546 172.948 97.719 174.479 99.3282C174.785 99.6497 175.14 100.059 175.53 100.137C176.513 100.332 176.902 100.969 177.003 101.827C177.188 103.398 177.223 104.99 177.474 106.549C177.741 108.218 178.175 109.859 178.567 111.505C178.605 111.667 178.832 111.854 179.007 111.901C180.32 112.252 181.5 113.008 182.079 114.115C182.789 115.471 183.059 117.064 183.451 118.574C183.624 119.241 183.528 119.984 183.729 120.638C184.313 122.537 185.015 124.397 185.616 126.291C186.039 127.625 186.645 128.982 186.671 130.337C186.699 131.746 187.787 132.927 187.325 134.367C187.236 134.646 187.208 134.944 187.152 135.234C187.102 135.519 187.198 135.839 187.364 136.118C187.698 136.68 187.639 137.205 187.344 137.756C187.271 137.894 187.253 138.147 187.333 138.268C188.078 139.441 188.9 140.569 189.599 141.767C190.27 142.916 190.835 144.128 191.425 145.322C192.07 146.629 192.761 147.92 193.302 149.27C193.745 150.373 194.491 150.8 195.612 150.812C196.237 150.818 196.863 150.889 197.485 150.959C199.552 151.191 201.618 151.43 203.682 151.676C204.868 151.817 206.091 151.835 207.225 152.159C208.98 152.661 210.507 153.642 211.5 155.231C212.2 156.351 212.768 157.552 213.395 158.717V158.707Z" fill="white"/>
<path d="M62.5023 220.605C62.3335 220.328 62.0621 220.463 61.8436 220.466C59.6927 220.484 57.6343 220.01 55.6216 219.304C55.2473 219.174 54.9157 219.149 54.5122 219.269C52.8575 219.766 51.2333 219.363 49.6854 218.833C48.619 218.468 47.5597 218.293 46.4888 218.434C45.3986 218.578 44.3042 218.568 43.2169 218.628C41.5503 218.722 39.8795 218.958 38.1628 218.819C38.2216 218.468 38.4563 218.452 38.694 218.408C41.6032 217.877 44.5081 217.328 47.4203 216.822C47.8076 216.754 47.8076 216.684 47.7124 216.348C46.5739 212.378 46.8555 208.415 47.7842 204.453C48.3196 202.162 48.9269 199.896 50.0612 197.821C51.6998 194.824 54.2117 192.889 57.4892 191.947C58.3416 191.702 59.2056 191.767 60.0786 191.863C60.5377 191.913 60.6477 192.425 61.0658 192.475C61.6689 192.547 61.396 193.056 61.4987 193.353C64.6472 193.304 67.7692 193.338 70.8017 194.344C70.1972 192.968 68.8504 192.531 67.7119 191.869C63.9679 189.692 60.2649 187.447 56.7335 184.939C54.0209 183.011 51.2333 181.171 48.8068 178.863C48.5 178.571 48.217 177.933 47.5832 178.472C47.5583 178.492 47.1167 178.43 46.9318 178.062C46.0031 176.215 45.7068 174.215 45.3489 172.223C44.9599 170.05 44.6754 167.86 44.5183 165.662C44.335 163.093 43.9769 160.527 44.3158 157.938C44.5536 156.124 45.3268 154.568 46.298 153.047C47.7152 150.827 49.533 149.071 51.6178 147.457C53.1201 146.293 54.5577 146.604 56.0923 146.78C60.1651 147.247 64.0719 148.434 67.9304 149.734C71.3122 150.872 74.622 152.225 77.7307 154.009C78.3103 154.342 78.8604 154.726 79.44 155.096C79.0629 152.753 79.6218 150.561 80.2322 148.402C81.0891 145.378 82.5267 142.579 83.7635 139.702C84.8155 137.256 85.9599 134.851 87.1762 132.491C88.2838 130.34 89.4193 128.195 90.6239 126.09C92.6148 122.61 94.2593 118.977 94.8932 114.969C95.4198 111.639 96.4424 108.442 97.4181 105.229C97.6734 104.39 98.15 103.818 98.973 103.532C99.6097 103.31 100.038 103.059 100.079 102.196C100.131 101.124 100.929 100.38 101.901 99.9488C103.702 99.1507 105.138 97.8171 106.75 96.7431C108.809 95.37 110.934 94.1054 113.116 92.9389C113.581 92.691 113.87 92.4034 114.09 91.8841C114.521 90.8646 115.356 90.1134 116.267 89.5073C117.164 88.9102 118.029 88.2399 119.092 87.9258C119.298 87.8642 119.457 87.703 119.539 87.3493C119.017 87.6883 118.423 87.6032 117.999 88.0036C117.933 88.0652 117.817 88.1342 117.743 88.1166C117.083 87.9583 116.586 88.4542 115.98 88.5348C114.394 88.746 112.746 88.8062 111.257 89.3153C110.293 89.6439 109.473 89.4898 108.621 89.3665C107.562 89.2141 107.042 88.3278 106.631 87.4242C106.389 86.893 106.309 86.3149 106.278 85.7398C106.219 84.6308 105.453 83.7651 105.283 82.6809C105.01 80.9439 104.918 79.2156 105.173 77.4772C105.22 77.1529 105.154 77.1207 104.846 77.0707C103.273 76.8185 102.262 75.3218 102.651 73.7799C103.088 72.0429 103.669 70.3483 104.491 68.7493C104.684 68.3721 104.705 68.0716 104.498 67.6812C104.049 66.8319 103.671 65.9456 103.253 65.0799C103.078 64.7206 103.081 64.3465 103.088 63.9652C103.091 63.795 103.163 63.5849 103.091 63.4588C102.346 62.1547 103.078 60.9266 103.345 59.7191C103.878 57.3132 104.325 54.8807 105.154 52.5466C105.216 52.3719 105.242 52.2707 104.965 52.1124C104.129 51.634 103.583 50.8167 103.577 49.8676C103.57 48.6865 103.17 47.5935 103.044 46.4462C102.94 45.5045 102.804 44.5523 103.112 43.6411C103.396 42.8006 103.191 41.9143 103.509 41.0693C103.844 40.1832 104.42 39.652 105.289 39.4408C105.59 39.3676 105.829 39.2941 106.03 39.0609C106.414 38.6133 106.847 38.2921 107.484 38.2071C107.915 38.1497 108.137 37.6216 108.619 37.4895C109.388 37.2783 110.113 37.4191 110.811 37.6612C111.198 37.7946 111.36 37.6832 111.449 37.381C111.753 36.357 112.462 36.0299 113.475 36.0047C113.894 35.9945 114.306 35.6717 114.718 35.4871C115.584 35.0997 116.322 35.4342 116.989 35.9448C117.384 36.2456 117.71 36.3437 118.233 36.2264C119.423 35.9609 120.702 35.6191 121.838 35.6968C123.692 35.8244 125.66 35.346 127.425 36.3217C127.699 36.4729 128.076 36.5594 128.226 36.7926C128.777 37.6524 129.447 37.2402 129.955 36.9026C130.952 36.2425 131.885 36.4172 132.828 36.8939C133.182 37.0728 133.449 37.221 133.886 37.0847C135.208 36.6753 136.339 37.2049 137.36 37.9913C137.709 38.2599 138.044 38.4021 138.48 38.3919C139.703 38.3625 140.843 38.5972 141.717 39.5494C141.913 39.762 142.153 39.7284 142.395 39.7094C143.54 39.6243 144.492 40.0232 145.24 40.8787C145.668 41.3672 146.267 41.5917 146.77 41.9657C148.566 43.2993 149.459 45.0906 149.575 47.3017C149.597 47.7345 149.779 48.151 149.721 48.5971C149.69 48.8348 149.788 48.927 150.043 48.9522C150.499 48.9946 150.656 49.3189 150.589 49.7325C150.294 51.5548 150.014 53.3798 149.671 55.1931C149.386 56.7042 149.024 58.2006 148.691 59.703C148.503 60.548 148.096 61.2214 147.391 61.7835C146.71 62.3234 146.487 63.2213 146.223 64.0149C145.907 64.9626 145.783 65.9721 145.535 66.9447C145.459 67.2455 145.438 67.3747 145.8 67.4304C146.223 67.4963 146.339 67.8002 146.361 68.2299C146.4 69.0119 146.347 69.7147 145.633 70.2163C145.495 70.3132 145.363 70.4877 145.214 70.4659C144.476 70.3602 144.411 70.884 144.295 71.3856C143.922 72.9979 143.541 74.6088 143.168 76.2214C143.123 76.4193 142.995 76.6687 143.277 76.7905C144.47 77.3084 144.365 78.2326 144.032 79.2846C145.206 79.2318 146.333 79.3007 147.477 79.5266C148.866 79.8011 149.401 80.7414 149.845 81.8593C149.94 82.1016 149.958 82.373 150.018 82.6297C150.07 82.8482 150.175 82.9099 150.432 82.8997C154.159 82.7529 157.883 82.7383 161.61 82.9113C163.692 83.0082 165.724 83.4702 167.788 83.6873C168.675 83.7812 169.079 84.512 169.487 85.134C171.572 88.3176 172.594 91.918 173.451 95.5755C173.473 95.6693 173.495 95.7838 173.461 95.8658C173.184 96.5217 173.564 96.6817 174.098 96.8635C174.815 97.1086 174.956 97.8626 175.236 98.4597C175.417 98.8425 175.552 99.0201 176.032 98.8485C176.661 98.6212 177.122 98.9732 177.359 99.5468C177.931 100.936 178.234 102.399 178.448 103.879C178.774 106.124 178.813 108.404 179.313 110.629C179.445 111.216 179.591 111.548 180.286 111.549C181.415 111.552 181.978 112.386 182.392 113.282C183.063 114.736 183.329 116.325 183.798 117.846C184.632 120.546 185.38 123.273 186.102 126.005C186.752 128.468 187.346 130.949 187.897 133.436C188.031 134.04 188.21 134.771 187.54 135.265C187.32 135.427 187.403 135.575 187.487 135.764C188.512 138.073 189.403 140.529 191.052 142.414C192.51 144.082 192.899 146.057 193.619 147.959C193.806 148.452 194.021 148.49 194.379 148.277C195 147.91 195.695 147.69 196.26 147.21C197.858 145.855 199.749 145.972 201.64 146.244C204.637 146.673 207.579 147.382 210.488 148.211C211.572 148.519 212.662 148.849 213.662 149.429C214.253 149.772 214.335 150.046 213.775 150.478C214.062 150.705 214.352 150.856 214.527 151.179C216.002 153.916 217.204 156.744 217.763 159.831C217.884 160.495 217.705 161.192 218.031 161.82V162.992C217.718 163.259 217.934 163.626 217.86 163.94C217.356 166.099 216.411 168.056 215.173 169.882C213.934 171.707 212.483 173.366 211.091 175.069C209.028 177.594 206.715 179.883 204.287 182.056C201.842 184.243 199.023 185.969 196.611 188.259C199.607 188.847 202.516 189.545 205.233 190.86C207.748 192.078 209.741 193.809 210.755 196.516C211.427 198.308 211.836 200.147 212.036 202.049C212.345 205.017 212.162 207.934 211.332 210.807C210.987 211.996 210.311 213.046 209.909 214.194C209.564 215.182 208.989 215.856 208.191 216.439C207.671 216.817 207.102 217.115 206.418 217.495C207.241 217.564 207.918 217.576 208.579 217.684C211.115 218.1 213.654 218.43 216.231 218.409C216.405 218.409 216.706 218.328 216.678 218.613C216.659 218.802 216.637 219.118 216.295 219.152C216.131 219.169 215.968 219.282 215.809 219.273C213.616 219.159 211.445 219.54 209.26 219.564C207.269 219.586 205.276 219.485 203.288 219.469C199.068 219.435 194.852 219.301 190.634 219.29C189.718 219.287 188.803 219.524 187.889 219.392C186.711 219.223 185.534 219.097 184.341 219.131C182.662 219.179 180.983 219.165 179.3 219.244C176.85 219.36 174.396 219.464 171.944 219.539C169.075 219.627 166.211 219.875 163.337 219.868C162.555 219.865 161.767 219.804 160.992 219.879C159.236 220.051 157.556 219.498 155.831 219.411C155.74 219.407 155.649 219.358 155.564 219.32C154.219 218.713 152.806 218.318 151.336 218.267C148.758 218.177 146.188 218.389 143.613 218.512C141.257 218.625 138.892 218.6 136.531 218.687C134.292 218.769 132.042 218.691 129.813 218.883C128.381 219.006 126.948 218.981 125.518 219.087C122.573 219.306 119.612 219.376 116.659 219.361C115.204 219.354 113.743 219.319 112.284 219.275C111.093 219.238 109.882 219.273 108.716 219.071C107.478 218.857 106.262 218.929 105.047 219.036C102.925 219.222 100.797 219.231 98.6929 219.068C97.3534 218.964 96.0681 219.025 94.7772 219.254C92.3813 219.68 89.987 220.092 87.5618 220.34C86.7858 220.419 85.9701 220.261 85.2218 220.598H75.9864C75.8705 220.355 75.646 220.456 75.4701 220.456C71.3431 220.45 67.216 220.451 63.0889 220.46C62.9394 220.46 62.7384 220.378 62.6459 220.598H62.4992L62.5023 220.605ZM171.109 200.562C170.972 200.596 170.835 200.631 170.697 200.664C170.215 200.657 169.839 200.962 169.412 201.116C166.911 202.017 164.421 202.952 161.915 203.844C161.459 204.005 161.258 204.192 161.289 204.705C161.334 205.453 161.248 206.203 161.192 206.953C160.997 209.624 160.294 212.14 159.069 214.511C158.886 214.866 158.847 215.164 158.969 215.515C159.251 216.327 159.286 217.17 159.243 218.015C159.22 218.497 159.098 218.568 158.602 218.499C158.054 217.95 158.227 217.111 157.79 216.459C157.38 216.785 157.074 217.205 156.632 217.46C156.396 217.596 156.404 217.858 156.507 218.041C156.685 218.359 156.783 218.665 156.591 219.015C157.302 218.832 157.958 218.663 158.612 218.496C158.547 218.676 158.288 218.72 158.287 218.99C161.303 218.854 164.314 218.706 167.326 218.585C170.077 218.477 172.827 218.38 175.578 218.292C178.599 218.195 181.624 218.21 184.648 218.142C188.561 218.054 192.466 218.17 196.355 217.426C199.024 216.916 201.386 216.068 203.123 213.882C203.298 213.662 203.65 213.509 203.895 213.634C204.203 213.792 204.316 214.15 204.231 214.517C204.072 215.201 203.718 215.768 203.145 216.175C202.909 216.343 202.67 216.49 202.479 216.837C203.976 216.606 205.424 216.477 206.656 215.625C207.118 215.305 207.643 215.088 207.957 214.527C209.614 211.565 210.208 208.364 210.271 205.017C210.312 202.827 210.013 200.685 209.533 198.556C208.959 196.009 207.756 193.867 205.557 192.386C203.967 191.315 202.17 190.67 200.399 189.963C198.784 189.319 197.349 190.12 195.833 190.317C196.238 190.641 196.713 190.596 197.149 190.693C198.841 191.071 200.551 191.422 202.068 192.29C206.091 194.591 208.216 198.187 208.61 202.71C208.904 206.075 208.494 209.423 207.159 212.585C206.9 213.198 206.612 213.811 206.201 214.36C205.974 214.662 205.754 214.523 205.575 214.427C205.381 214.323 205.185 214.102 205.381 213.849C205.61 213.556 205.559 213.201 205.651 212.88C206.707 209.249 207.13 205.554 206.916 201.768C206.741 198.681 205.163 196.426 202.956 194.475C201.462 193.154 199.627 192.521 197.761 192.063C196.534 191.761 195.427 190.798 194.032 191.266C193.968 191.288 193.855 191.197 193.779 191.14C193.462 190.905 193.164 190.982 192.833 191.134C189.552 192.636 186.279 194.158 182.978 195.615C180.054 196.904 177.094 198.109 174.114 199.265C173.1 199.658 172.029 199.953 171.106 200.565L171.109 200.562ZM118.826 90.6899C118.34 91.1066 118.013 91.4337 117.643 91.6992C115.772 93.0491 113.751 94.1698 111.815 95.42C108.951 97.2684 106.119 99.1699 103.14 100.832C102.482 101.199 101.85 101.551 101.331 102.129C100.864 102.647 100.562 103.279 100.065 103.762C99.6744 104.14 99.3663 104.522 99.4191 105.143C99.4542 105.561 99.2959 105.995 99.2181 106.422C98.938 107.937 98.3217 109.359 97.9827 110.857C97.3946 113.457 96.8795 116.072 96.2471 118.662C95.3509 122.334 93.4304 125.569 91.6609 128.85C89.2284 133.359 87.1629 138.035 85.0841 142.708C84.2594 144.561 83.5419 146.464 82.2318 148.06C81.9765 148.371 81.6361 148.786 81.667 149.122C81.7492 150.002 81.6421 150.855 81.5657 151.719C81.4498 153.032 81.4705 154.37 80.9409 155.608C80.7897 155.963 81.0317 155.953 81.199 156.041C84.0907 157.564 86.9472 159.145 89.7786 160.781C93.8353 163.124 97.776 165.648 101.673 168.241C105.236 170.614 108.754 173.053 112.287 175.471C112.421 175.562 112.55 175.639 112.683 175.57C112.84 175.488 112.799 175.313 112.743 175.182C112.551 174.733 112.619 174.259 112.655 173.808C112.707 173.183 112.824 172.461 113.518 172.28C113.898 172.182 114.048 171.987 114.202 171.742C114.951 170.551 115.766 169.412 116.778 168.428C118.113 167.129 119.614 166.086 121.476 165.731C122.256 165.583 123.054 165.829 123.841 165.926C125.839 166.171 127.921 165.925 129.793 166.931C129.895 166.987 130.074 166.918 130.212 166.886C132.648 166.321 135.084 165.765 137.515 165.182C139.684 164.665 141.873 164.217 143.931 163.318C144.11 163.24 144.295 163.306 144.223 162.922C144.071 162.113 144.385 161.422 145.112 160.956C147.228 159.6 149.44 158.435 151.827 157.643C152.258 157.499 152.36 157.376 152.391 156.951C152.433 156.359 152.713 155.874 153.333 155.626C153.999 155.357 154.667 155.071 155.285 154.71C158.041 153.101 160.9 151.723 163.95 150.772C164.474 150.61 164.478 150.396 164.254 149.963C163.734 148.959 163.413 147.878 163.131 146.786C163.018 146.348 162.992 145.938 163.385 145.585C164.07 144.967 164.418 144.127 164.855 143.337C165.135 142.831 165.063 142.495 164.78 142.048C163.852 140.578 163.105 139.019 162.662 137.328C162.539 136.858 162.762 136.417 163.039 136.228C163.367 136.003 163.607 136.471 163.792 136.737C164.669 138.004 165.498 139.304 166.008 140.773C166.274 141.537 166.605 142.291 166.033 143.099C165.382 144.018 164.556 144.842 164.946 146.205C165.282 147.375 165.376 148.614 165.557 149.828C165.598 150.105 165.727 150.12 165.951 150.103C166.346 150.074 166.054 149.894 166.023 149.79C165.815 149.068 166.236 148.82 166.827 148.622C168.557 148.042 170.342 148.135 172.108 148.221C173.52 148.289 174.953 148.366 176.304 148.906C176.53 148.996 176.765 149.071 176.727 149.313C176.677 149.63 176.368 149.545 176.191 149.465C175.904 149.336 175.618 149.379 175.33 149.366C173.259 149.266 171.205 149.537 169.144 149.665C168.865 149.682 168.417 149.732 168.389 149.948C168.277 150.824 167.54 151.009 166.96 151.229C162.367 152.983 158.09 155.508 153.321 156.827C153.168 156.87 152.939 156.755 153.01 157.135C153.193 158.111 152.754 158.84 151.923 159.33C150.08 160.413 148.231 161.487 146.378 162.552C145.519 163.046 145.52 163.023 146.279 163.611C146.566 163.834 146.836 164.095 147.056 164.384C147.876 165.455 148.614 166.582 149.28 167.759C149.52 168.183 149.618 168.868 150.074 168.957C150.68 169.076 150.978 169.387 151.183 169.863C151.34 170.228 151.522 170.187 151.795 170.025C153.863 168.805 155.937 167.594 158.004 166.371C161.962 164.029 165.931 161.708 170.028 159.615C172.757 158.22 175.536 156.934 178.344 155.709C181.307 154.417 184.233 153.038 187.168 151.681C189.026 150.822 190.873 149.941 192.717 149.053C192.849 148.99 193.216 148.977 192.984 148.645C192 147.24 191.63 145.542 190.559 144.131C188.486 141.395 186.868 138.355 185.647 135.124C185.39 134.444 185.223 133.692 184.82 133.111C183.922 131.819 183.397 130.393 183.008 128.898C182.493 126.919 182.075 124.91 181.479 122.956C180.568 119.966 179.388 117.058 178.708 113.995C178.14 111.439 177.569 108.891 177.418 106.259C177.32 104.551 177.154 102.836 176.598 101.188C176.463 100.786 176.285 100.526 175.88 100.41C175.376 100.266 174.87 100.047 174.73 99.5086C174.57 98.8866 174.187 98.6212 173.615 98.4744C172.807 98.2661 172.006 98.0314 171.208 97.7863C167.753 96.7196 164.46 95.2702 161.311 93.5038C158.246 91.7843 155.325 89.8508 152.806 87.3771C152.391 86.9694 151.993 86.7067 151.408 86.7655C151.061 86.8006 150.762 86.6949 150.541 86.4192C149.888 87.7132 149.272 89.0261 148.578 90.2952C147.286 92.6573 145.866 94.9532 144.659 97.3566C143.519 99.6262 142.244 101.777 140.487 103.642C140.577 103.323 140.671 102.998 140.796 102.563C139.165 103.141 137.716 102.907 136.39 101.995C135.633 101.475 134.909 100.911 134.25 100.257C133.158 99.1727 131.744 99.296 131.173 100.481C131.919 100.637 132.253 100.996 132.105 101.56C131.938 102.195 131.437 102.807 130.864 102.692C129.906 102.502 129.735 103.072 129.448 103.662C129.378 103.804 129.311 103.989 129.112 103.976C128.917 103.643 129.232 103.383 129.215 103.061C129.131 101.51 129.694 100.201 130.679 99.0099C131.811 97.6382 133.874 97.3535 135.271 98.4832C136.194 99.2299 137.059 100.051 138.013 100.756C138.732 101.287 139.241 102.138 140.244 102.27C140.706 102.331 141.054 102.368 141.265 101.805C141.483 101.222 141.775 100.671 141.987 100.078C142.516 98.605 142.972 97.0982 143.713 95.7103C145.541 92.2847 147.265 88.796 149.64 85.6915C149.731 85.5727 149.977 85.3966 149.712 85.2132C148.671 84.4959 148.443 83.3764 148.202 82.2497C148.101 81.7756 147.941 81.3092 147.397 81.1347C146.321 80.7884 145.237 80.5096 144.062 80.6417C144.251 81.0041 144.041 81.6436 144.646 81.604C145.354 81.5585 145.237 81.9811 145.142 82.3362C144.892 83.2706 144.608 84.1773 144.47 85.156C144.185 87.1763 142.912 88.7564 141.695 90.3201C140.016 92.4798 137.828 94.0437 135.522 95.4477C133.347 96.7711 131.228 98.203 128.75 98.9454C128.405 99.0481 128.235 99.274 128.411 99.6745C128.685 100.297 128.713 100.986 128.596 101.62C128.343 102.971 128.569 104.245 128.896 105.546C129.385 107.487 129.615 109.473 129.813 111.467C130.089 114.25 130.292 117.039 130.355 119.83C130.434 123.337 130.375 126.845 130.12 130.353C130.011 131.851 129.705 133.333 129.747 134.85C129.759 135.278 129.677 135.76 129.611 136.214C129.325 138.192 129.062 140.174 128.756 142.149C128.506 143.761 128.405 145.425 127.331 146.841C127.985 146.71 128.551 146.468 129.373 146.619C127.821 147.256 126.462 147.804 125.113 148.377C124.942 148.449 124.658 148.411 124.655 148.745C124.645 149.798 124.225 150.756 123.94 151.747C123.797 152.248 123.506 152.823 123.802 153.278C124.139 153.795 123.951 154.156 123.75 154.586C123.054 156.069 122.249 157.492 121.373 158.874C120.902 159.616 120.707 160.651 119.461 160.672C120.653 161.592 120.901 161.397 120.146 162.906C119.969 163.262 120.243 163.344 120.506 163.44C121.345 163.745 121.95 164.29 122.311 165.197C122.139 165.172 122.039 165.188 122.005 165.147C121.31 164.308 120.306 164.007 119.348 163.642C118.186 163.197 118.133 163.112 118.6 162.034C118.301 161.946 117.999 161.864 117.701 161.767C115.01 160.893 112.498 159.662 110.067 158.209C107.02 156.389 104.41 154.066 101.922 151.579C101.684 151.342 101.288 151.063 101.614 150.664C101.901 150.312 102.34 150.262 102.774 150.388C102.934 150.434 103.087 150.516 103.234 150.596C104.991 151.559 106.448 152.937 108.047 154.116C111.505 156.664 115.287 158.626 119.121 160.517C119.708 158.61 120.682 156.923 121.546 155.186C121.911 154.452 122.592 153.903 122.853 153.148C123.205 152.131 123.396 151.057 123.623 149.999C123.832 149.033 123.899 148.107 124.995 147.521C125.991 146.989 126.185 145.752 126.39 144.721C126.993 141.681 127.431 138.609 128.057 135.575C128.293 134.429 128.145 133.087 129.253 132.227C129.288 132.199 129.223 132.054 129.218 131.963C129.068 129.516 128.886 127.071 128.783 124.623C128.689 122.371 128.71 120.116 128.647 117.862C128.574 115.26 128.427 112.661 128.292 110.063C128.257 109.39 128.28 108.696 128.151 108.036C127.706 105.759 127.294 103.477 126.946 101.162C126.69 101.662 126.176 101.731 125.658 101.304C125.208 100.933 124.812 100.499 124.375 100.112C124.149 99.9106 123.932 99.6878 123.563 99.9474C121.977 101.065 120.384 102.153 118.365 102.39C117.729 102.465 117.195 102.428 116.638 102.111C116.338 101.94 116.636 101.501 116.232 101.422C115.87 101.35 115.729 101.076 115.899 100.769C116.053 100.493 116.305 100.452 116.638 100.637C116.901 100.784 117.277 100.822 117.325 100.314C117.406 99.4588 117.757 98.6961 118.204 97.9845C118.742 97.1276 119.133 96.3266 118.987 95.1983C118.804 93.7695 118.673 92.3081 118.822 90.6972L118.826 90.6899ZM133.845 73.692C134.133 74.0369 134.055 74.2936 133.861 74.5531C133.44 75.1166 133.038 75.6961 132.529 76.1889C132.343 76.3695 132.301 76.8126 131.888 76.5559C131.445 76.2814 131.82 75.9983 131.935 75.7547C132.502 74.5384 133.365 73.4118 133.022 71.9329C132.987 71.7803 132.985 71.5193 133.204 71.5236C133.46 71.5295 133.738 71.6409 133.84 71.9211C133.898 72.0751 133.901 72.2586 133.887 72.4243C133.863 72.7384 133.984 72.8571 134.301 72.8543C135.371 72.841 136.449 72.8823 137.499 72.6592C138.252 72.4992 138.936 72.2043 139.493 71.5852C140.668 70.2779 141.295 68.7346 141.486 67.0371C141.753 64.6649 139.41 62.7577 137.055 63.2785C135.965 63.5205 135.064 64.078 134.132 64.6281C132.475 65.6083 132.303 67.4129 131.653 68.9548C131.641 68.9811 131.688 69.0427 131.72 69.0735C131.835 69.1807 132.064 69.2584 131.813 69.4476C131.603 69.6062 131.365 69.7704 131.1 69.6588C130.413 69.3698 129.982 68.2709 130.319 67.5506C130.852 66.4137 131.298 65.2267 132.001 64.1823C132.586 63.3135 133.249 62.4247 134.332 62.2002C135.435 61.9726 136.606 61.5635 137.693 61.8861C138.809 62.2163 138.884 61.7247 139.008 60.8974C139.146 59.9656 139.396 59.0502 139.465 58.1039C139.499 57.6375 139.32 57.4042 138.856 57.2764C138.152 57.0814 137.439 56.9126 136.717 56.8744C136.081 56.8408 135.817 56.603 135.943 55.9825C136.028 55.5615 135.812 55.268 135.585 54.9613C135.318 54.6005 135.024 54.9879 134.713 54.9056C133.623 54.6166 132.505 54.4273 131.395 54.222C129.549 53.8802 127.702 53.5514 125.855 53.22C125.595 53.1731 125.321 53.2215 125.503 52.7578C125.663 52.3513 125.516 52.0315 124.953 51.9874C122.881 51.8246 120.816 51.5797 118.741 51.4446C116.969 51.3287 115.196 51.4446 113.421 51.5518C111.291 51.6809 109.193 52.083 107.063 52.1636C106.901 52.1695 106.771 52.2048 106.724 52.3719C106.449 53.3682 105.904 54.3834 105.97 55.3574C106.074 56.9112 105.667 58.3725 105.544 59.8748C105.446 61.066 105.337 61.0719 106.48 61.0982C106.786 61.1055 107.058 61.1833 107.138 61.4445C107.256 61.8332 106.053 63.0656 105.603 62.985C105.081 62.8911 105.094 63.2036 105.009 63.5323C104.781 64.4023 105.073 65.234 105.16 66.0807C105.186 66.3403 105.324 66.4446 105.552 66.2772C106.006 65.9442 106.427 66.2303 106.718 66.4621C107.006 66.6908 106.894 67.1737 106.739 67.4889C105.939 69.1044 105.104 70.702 104.272 72.3013C104.208 72.426 104.079 72.5198 103.977 72.6253C103.285 73.3414 103.376 74.2362 104.239 74.7278C105.411 75.3953 106.812 75.2766 108.024 75.8267C107.996 76.3195 107.672 76.6701 107.196 76.8638C106.897 76.9856 106.786 77.194 106.784 77.4699C106.781 78.2635 106.835 79.0542 106.963 79.8348C108.597 79.4005 110.223 79.4681 111.956 79.6513C111.618 80.0929 111.25 80.31 110.848 80.4466C110.257 80.6462 109.652 80.7768 109.012 80.7649C108.335 80.7531 107.578 80.9439 107.14 81.3459C106.781 81.6761 107.303 82.3597 107.475 82.8745C107.946 84.2918 107.953 84.2904 109.34 83.9808C109.526 83.9398 109.711 83.8841 109.899 83.8445C110.283 83.7637 110.662 83.8414 110.905 84.1289C111.395 84.7099 111.869 84.9109 112.443 84.261C112.591 84.0922 112.664 84.2389 112.786 84.3212C112.98 84.4518 112.821 84.7673 113.084 84.8465C113.299 84.7026 113.182 84.4738 113.255 84.3124C113.337 84.1349 113.311 83.8298 113.624 83.8561C113.869 83.8782 114.171 83.9675 114.206 84.2185C114.304 84.8934 114.944 85.0254 115.336 85.3774C115.703 85.7076 116.637 85.3833 116.907 84.9491C117.007 84.7908 117.121 84.6777 117.318 84.726C117.548 84.7834 117.407 84.9505 117.415 85.0783C117.435 85.4187 117.544 85.5654 117.963 85.6152C119.051 85.7429 119.821 85.0209 120.748 84.732C122.908 84.0585 124.909 83.0594 126.817 81.8344C126.882 82.1058 126.869 82.4182 127.017 82.6062C127.457 83.168 127.103 83.4351 126.773 83.8841C126.128 84.7614 125.469 85.6607 125.52 86.8828C125.616 89.1935 125.634 91.5072 125.679 93.8193C125.683 94.0188 125.686 94.2037 125.855 94.3474C126.605 94.99 127.076 95.8438 127.591 96.6639C127.743 96.9076 127.878 96.9854 128.175 96.8121C130.749 95.3069 133.311 93.7811 135.802 92.138C138.698 90.2277 141.337 88.0521 143.242 85.0987C143.355 84.9228 143.633 84.7716 143.425 84.4928C143.101 84.0585 142.959 83.5304 142.691 82.9701C141.738 84.0469 140.833 85.0534 139.955 86.0831C139.796 86.2696 139.705 86.4808 139.48 86.2241C139.147 85.8396 138.692 85.6386 138.293 85.354C137.548 84.8216 137.46 83.8047 138.161 83.4086C138.565 83.1799 138.736 82.9523 138.741 82.5254C138.741 82.4126 138.804 82.2907 138.865 82.1895C139.461 81.2079 139.928 80.1486 140.702 79.2773C140.906 79.0469 140.988 78.774 140.805 78.419C140.319 77.4786 139.941 76.4824 139.437 75.5537C139.077 74.8876 138.622 74.1395 138.669 73.4836C138.738 72.5198 138.419 72.9745 138.017 73.1022C136.709 73.5175 135.391 73.9238 133.843 73.692H133.845ZM61.4121 193.483C59.8174 195.028 58.3826 196.369 57.1327 197.896C54.1865 201.492 52.8252 205.675 52.7108 210.259C52.6667 212.026 53.1083 213.782 53.3415 215.541C53.3709 215.76 53.478 215.761 53.6233 215.768C54.5535 215.809 55.3705 216.26 56.2376 216.52C57.891 217.017 59.5417 217.527 61.2434 217.808C63.3151 218.149 65.4202 218.175 67.5109 218.236C70.5758 218.326 73.6404 218.384 76.7039 218.533C79.1906 218.653 81.676 218.522 84.1596 218.405C85.6312 218.334 87.1055 218.248 88.5714 218.103C90.6824 217.894 92.7864 217.61 94.8974 217.39C95.9347 217.281 96.0859 217.224 95.898 216.258C95.788 215.692 95.9904 215.07 95.5196 214.541C92.6074 211.266 91.5524 207.267 91.2736 203.037C91.1475 201.127 91.4528 199.209 92.1231 197.385C92.2744 196.973 92.239 196.746 91.7858 196.564C90.6383 196.102 89.5103 195.596 88.382 195.091C87.9271 194.887 87.5033 194.812 86.9868 194.925C83.8735 195.609 80.7119 195.961 77.5461 196.287C76.4749 196.397 75.3864 196.444 74.2773 196.772C74.713 196.928 74.9638 197.202 75.1913 197.523C76.1257 198.838 76.6906 200.321 77.1542 201.846C77.273 202.236 77.433 202.297 77.7601 202.133C78.3221 201.85 78.928 201.697 79.5324 201.558C81.4309 201.119 83.3528 200.798 85.282 200.538C86.626 200.358 87.9726 200.138 89.3356 200.242C89.7568 200.274 90.26 200.238 90.4184 200.822C90.6239 201.577 90.4082 201.779 89.4515 201.85C88.1767 201.944 86.9017 202.049 85.6342 202.249C84.1099 202.488 82.5708 202.641 81.045 202.88C80.0738 203.032 79.1084 203.222 78.1299 203.345C77.8262 203.383 77.565 203.453 77.6809 204.002C78.2619 206.737 78.2164 209.491 77.571 212.211C77.3451 213.166 76.9665 214.092 76.4164 214.923C76.249 215.177 76.0039 215.41 75.6915 215.291C75.4113 215.185 75.5332 214.868 75.564 214.646C75.7062 213.644 75.8558 212.644 76.029 211.646C76.3884 209.567 76.4045 207.476 76.1037 205.399C75.7531 202.98 75.0342 200.65 74.201 198.354C74.022 197.859 74.0337 197.119 73.6964 196.906C73.306 196.661 72.6268 196.878 72.0722 196.885C71.8302 196.89 71.5865 196.862 71.3459 196.869C70.118 196.9 69.0118 196.359 67.8439 196.108C65.9486 195.7 64.0134 195.455 62.1678 194.815C61.6191 194.626 61.1789 194.407 61.415 193.485L61.4121 193.483ZM112.5 188.754C113.445 188.909 114.25 188.611 115.061 188.42C117.77 187.782 120.444 187.009 123.169 186.434C125.114 186.023 127.038 185.446 128.747 184.441C130.567 183.37 132.262 182.079 133.987 180.85C135.368 179.868 136.625 178.681 138.089 177.855C142.047 175.622 146.001 173.382 149.936 171.108C150.341 170.875 150.34 170.675 150.127 170.392C149.59 169.673 149.024 168.978 148.478 168.266C148.297 168.03 148.112 168.001 147.884 168.178C147.231 168.687 146.505 169.081 145.784 169.478C143.983 170.471 142.053 171.155 140.093 171.748C139.575 171.905 138.996 171.982 138.529 171.504C137.391 170.338 136.135 169.282 135.187 167.939C135.039 167.731 134.895 167.656 134.641 167.713C133.635 167.946 132.627 168.178 131.615 168.381C130.759 168.551 129.787 168.875 129.056 168.397C128.289 167.894 127.501 167.879 126.696 167.728C126.047 167.606 125.393 167.704 124.734 167.584C123.211 167.307 121.766 167.36 120.432 168.432C118.494 169.993 116.577 171.569 114.885 173.395C114.541 173.768 114.231 173.897 113.779 173.689C113.66 173.635 113.533 173.481 113.414 173.678C113.346 173.792 113.364 173.918 113.468 174.009C114.344 174.779 114.595 175.931 115.224 176.892C116.292 175.825 117.327 174.754 118.405 173.73C119.193 172.98 120.014 172.26 120.931 171.661C121.389 171.363 121.895 171.522 122.184 171.787C122.598 172.167 122.03 172.398 121.819 172.635C120.3 174.349 118.665 175.951 117.045 177.568C116.313 178.3 116.342 178.262 117.159 178.909C117.66 179.305 117.968 179.297 118.437 178.852C119.1 178.222 119.853 177.682 120.588 177.131C121.517 176.434 122.516 175.845 123.554 175.326C123.745 175.231 123.98 175.156 124.139 175.342C124.336 175.575 124.039 175.665 123.938 175.8C123.468 176.425 122.865 176.909 122.252 177.387C121.225 178.19 120.116 178.866 119.006 179.541C118.575 179.804 118.552 179.843 118.811 179.999C119.878 180.634 120.937 181.283 122.18 181.723C121.944 181.284 121.713 180.85 122.189 180.496C123.544 179.487 125.019 178.684 126.611 178.114C127.108 177.936 127.444 178.253 127.715 178.612C127.984 178.969 127.733 179.289 127.511 179.504C126.169 180.813 124.535 181.57 122.677 181.993C124.253 182.797 125.945 183.228 127.71 183.584C127.393 183.96 127.118 184.534 126.942 184.579C126.043 184.814 125.296 185.424 124.376 185.562C120.742 186.108 117.195 187.017 113.681 188.075C113.279 188.196 112.837 188.295 112.5 188.753V188.754ZM59.3317 193.313C55.6258 193.831 53.0628 195.581 51.6206 198.897C50.7315 200.939 50.243 203.093 49.7589 205.246C49.3702 206.975 49.1514 208.74 49.2014 210.505C49.26 212.553 49.5769 214.582 50.0216 216.589C50.1081 216.979 50.2899 217.134 50.6009 217.225C51.1072 217.372 51.6206 217.494 52.1312 217.627C52.5595 217.739 52.9836 217.432 52.903 217.17C52.7458 216.66 52.7928 216.141 52.6432 215.636C51.8171 212.859 51.0441 210.083 51.49 207.113C51.8392 204.784 52.4232 202.542 53.4266 200.416C54.7545 197.601 56.7835 195.351 59.3317 193.314V193.313ZM117.633 101.522C117.941 101.589 118.188 101.9 118.466 101.568C119.447 100.405 120.732 99.5895 121.851 98.5844C123.279 97.3037 124.141 97.3639 125.36 98.8236C125.872 99.4354 126.417 100.021 126.816 100.795C126.916 100.191 126.845 99.6262 127.159 99.1742C127.393 98.8369 127.265 98.652 127.018 98.4377C126.408 97.9081 125.855 97.2992 125.509 96.5848C125.025 95.5828 124.13 94.852 123.896 93.6683C123.461 91.4631 122.931 89.2741 122.532 87.0236C122.284 87.1 122.249 87.2965 122.199 87.4285C121.834 88.4203 121.512 89.4296 121.135 90.4171C120.868 91.1168 120.836 91.7874 120.948 92.5385C121.08 93.4217 121.058 94.3488 120.961 95.241C120.903 95.7691 120.924 96.3631 120.523 96.8268C120.094 97.3257 119.797 97.911 119.47 98.4818C118.895 99.4882 118.456 100.578 117.633 101.52V101.522ZM135.957 167.489C136.833 168.731 137.684 169.936 138.531 171.143C138.724 171.419 138.927 171.299 139.163 171.211C140.127 170.854 141.094 170.505 142.067 170.178C143.93 169.551 145.764 168.855 147.562 168.061C148.019 167.86 148.021 167.693 147.708 167.343C147.154 166.729 146.66 166.063 146.116 165.441C145.266 164.474 145.259 164.484 144.138 165.049C141.579 166.339 138.755 166.717 135.957 167.489ZM148.281 203.437C137.849 207.23 127.574 211.32 116.945 214.809C117.438 214.929 117.828 214.942 118.194 214.853C119.35 214.571 120.512 214.3 121.644 213.936C125.594 212.67 129.464 211.185 133.315 209.648C136.603 208.334 139.889 207.016 143.164 205.669C144.885 204.96 146.576 204.184 148.283 203.437H148.281ZM159.034 171.022C168.944 166.478 178.961 162.163 188.52 156.887C178.702 161.623 168.667 165.904 159.034 171.022ZM62.8353 156.829C63.4836 157.405 87.3698 170.945 87.8861 171.005C87.7526 170.904 87.6631 170.825 87.5649 170.765C83.1136 168.083 78.6668 165.397 74.2098 162.726C70.746 160.651 67.2335 158.66 63.6114 156.873C63.3767 156.757 63.1141 156.522 62.8353 156.827V156.829ZM111.125 187.697C109.655 187.205 108.207 187.237 106.791 187.359C104.73 187.537 102.675 187.817 100.64 188.213C99.7918 188.377 98.9349 188.507 98.1178 188.803C97.977 188.854 97.8376 188.941 97.8654 189.112C97.8919 189.275 98.0517 189.239 98.1619 189.224C99.3369 189.077 100.525 188.989 101.686 188.762C104.406 188.228 107.149 187.956 109.912 187.801C110.283 187.78 110.351 187.848 110.312 188.235C110.198 189.403 110.481 190.534 110.735 191.668C110.849 191.002 110.575 190.354 110.707 189.68C110.832 189.038 110.528 188.317 111.128 187.697H111.125ZM142.091 81.8477C143.805 79.3683 143.912 78.7036 142.925 77.527C142.392 78.4073 142.2 79.3095 142.734 80.288C142.248 80.3013 142.269 79.9038 142.108 79.8187C141.158 80.476 141.459 81.1757 142.091 81.8491V81.8477ZM140.978 83.9132C140.974 83.7843 139.892 82.678 139.798 82.6707C139.728 82.6648 138.886 83.9045 138.887 84.0102C138.898 84.5236 139.545 85.0503 140.162 84.8728C140.547 84.7628 140.897 84.3667 140.978 83.9132ZM167.813 94.1698C167.549 93.115 167.101 92.1702 166.603 91.2446C166.513 91.0786 166.38 90.9788 166.187 91.0436C166.018 91.1007 166.022 91.2768 166.017 91.4102C165.985 92.3288 166.3 93.1444 166.815 93.8854C166.873 93.966 167.043 94.1362 167.176 93.9968C167.528 93.6315 167.471 94.2198 167.81 94.1713L167.813 94.1698ZM182.192 115.955C181.929 115.028 181.74 114.247 181.479 113.49C181.347 113.109 181.095 112.793 180.628 112.689C180.266 112.608 180.1 112.679 180.053 113.046C180.018 113.323 180.854 114.664 181.067 114.579C181.768 114.294 181.577 114.971 181.769 115.192C181.907 115.351 181.819 115.667 182.192 115.955ZM89.8037 194.038C90.703 194.393 91.4364 194.683 92.2772 195.015C91.9956 194.25 91.7873 193.622 91.7901 192.94C90.9524 192.962 90.571 193.693 89.8037 194.038ZM169.704 89.12C169.525 88.6241 169.403 88.2427 169.249 87.8746C169.016 87.3171 168.962 86.6569 168.304 86.3414C168.098 86.2431 167.941 86.0921 167.734 86.2872C167.53 86.4794 167.615 86.6626 167.754 86.8608C168.21 87.5034 168.656 88.1534 169.104 88.8002C169.224 88.9749 169.418 89.01 169.704 89.12ZM167.763 84.6997C167.709 84.6409 167.656 84.5824 167.602 84.525C166.44 85.1077 165.363 85.8235 164.387 86.6935C164.285 86.7845 164.039 86.8814 164.194 87.0867C164.331 87.2687 164.527 87.2481 164.706 87.1073C165.724 86.3047 166.743 85.5021 167.761 84.7012L167.763 84.6997ZM140.993 81.2388C140.475 81.7728 140.417 82.3441 140.816 82.9523C140.938 83.1372 141.048 83.328 141.172 83.5276C141.712 82.7783 141.653 82.0153 140.993 81.2388ZM154.286 204.897C152.53 205.381 150.774 205.864 149.018 206.348C149.034 206.407 149.051 206.467 149.067 206.526C150.878 206.234 152.608 205.657 154.285 204.897H154.286ZM94.2975 192.933C93.0547 193.213 92.8788 193.512 93.0739 194.865C93.4728 194.236 93.8514 193.637 94.2975 192.933ZM163.819 89.4883C164.459 89.4782 164.21 88.9147 164.447 88.6682C164.675 88.4335 164.466 88.2399 164.298 88.0595C164.08 87.8277 163.9 88.0066 163.725 88.1078C163.499 88.2413 163.485 88.4143 163.62 88.6521C163.759 88.8986 163.838 89.1802 163.819 89.4869V89.4883ZM157.773 85.1179C157.352 85.2499 157.14 85.5521 157.099 85.8617C157.062 86.1376 157.36 86.3474 157.646 86.2827C157.903 86.2241 158.293 86.1829 158.288 85.8162C158.284 85.4964 157.776 85.5007 157.773 85.1179ZM161.673 86.9004C161.311 86.9841 160.772 86.9004 160.68 87.3228C160.614 87.6236 161.145 87.716 161.407 87.7542C161.76 87.8056 161.986 87.5048 162.053 87.1438C162.123 86.7624 161.814 86.9781 161.675 86.899L161.673 86.9004ZM70.8031 158.139C70.2648 158.588 69.9521 159.606 70.2148 160.037C70.6139 159.48 71.0275 158.947 70.8031 158.139ZM161.669 89.0086C160.91 89.5294 160.156 90.0591 159.582 90.7911C160.377 90.3128 161.11 89.7626 161.669 89.0086ZM145.762 68.6452C145.744 68.4425 145.636 68.2989 145.448 68.3122C145.059 68.3399 145.1 68.6862 145.007 68.9489C144.892 69.2715 145.274 69.2935 145.291 69.2892C145.618 69.207 145.56 68.8315 145.762 68.6466V68.6452ZM130.228 102.035C130.52 101.969 130.745 101.91 130.974 101.871C131.113 101.847 131.285 101.879 131.263 101.657C131.249 101.525 131.313 101.335 131.117 101.302C130.987 101.28 130.793 101.281 130.717 101.359C130.539 101.538 130.415 101.769 130.23 102.037L130.228 102.035Z" fill="black"/>
<path d="M171.11 200.562C172.46 200.324 173.802 200.028 175.159 199.863C177.682 199.558 180.212 199.272 182.759 199.638C183.029 199.676 183.307 199.639 183.235 200.064C183.172 200.434 183.116 200.802 182.641 200.805C181.673 200.811 180.725 201.003 179.767 201.109C178.026 201.3 176.286 201.517 174.54 201.675C173.457 201.775 172.367 201.805 171.28 201.831C170.992 201.838 170.599 202.014 170.425 201.647C170.25 201.282 170.472 200.956 170.696 200.665C170.834 200.631 170.97 200.596 171.108 200.562H171.11Z" fill="black"/>
<path d="M99.682 146.471C100.116 144.763 100.262 143.155 100.586 141.577C100.982 139.648 101.478 137.746 101.969 135.843C103 131.854 104.085 127.878 105.16 123.901C105.678 121.985 106.219 120.076 106.77 118.17C106.856 117.874 106.792 117.391 107.358 117.465C107.933 117.54 108.369 117.735 108.386 118.427C108.424 119.915 108.099 121.35 107.742 122.77C106.68 127.001 105.64 131.238 104.293 135.393C103.532 137.743 102.858 140.121 102.144 142.488C101.701 143.958 101.533 145.501 100.954 146.935C100.861 147.162 100.977 147.291 101.108 147.447C101.523 147.938 101.79 148.516 101.902 149.138C101.954 149.435 102.131 149.948 101.727 150.033C101.387 150.103 100.897 149.985 100.653 149.589C100.479 149.304 100.239 148.999 100.219 148.689C100.176 148.074 99.343 148.014 99.3914 147.381C99.3914 147.372 99.2565 147.323 99.2124 147.347C98.7225 147.605 98.429 147.272 98.1604 146.97C97.7132 146.467 97.4138 145.847 96.8958 145.387C96.7022 145.215 96.7169 144.869 96.9179 144.656C97.1248 144.438 97.4197 144.473 97.6662 144.599C98.4657 145.01 99.2155 145.486 99.6789 146.471H99.682Z" fill="black"/>
<path d="M136.53 138.816C136.53 139.91 136.521 140.717 136.537 141.522C136.54 141.688 136.413 141.935 136.696 142.009C136.867 142.055 137.08 142.07 136.895 142.312C136.738 142.516 136.527 142.558 136.347 142.328C136.057 141.961 135.877 141.522 135.818 141.079C135.6 139.399 135.581 137.706 135.626 136.015C135.667 134.46 135.594 132.9 135.802 131.351C136.078 129.291 136.121 127.212 136.355 125.147C136.489 123.973 136.564 122.787 136.684 121.609C136.788 120.582 136.975 119.569 137.287 118.583C137.341 118.411 137.391 118.178 137.619 118.145C137.849 118.112 137.972 118.269 138.026 118.48C138.128 118.866 138.403 118.888 138.748 118.88C142.023 118.817 145.293 118.966 148.563 119.098C151.226 119.206 153.889 119.344 156.552 119.472C157.155 119.501 157.756 119.548 158.358 119.576C158.501 119.583 158.683 119.549 158.704 119.726C158.723 119.893 158.626 120.041 158.419 120.081C158.022 120.157 157.625 120.331 157.232 120.321C154.702 120.257 152.172 120.152 149.642 120.063C149.471 120.057 149.3 120.037 149.13 120.044C146.69 120.146 144.256 119.918 141.82 119.847C140.694 119.815 139.535 119.903 138.414 119.64C138.119 119.571 138.025 119.671 137.994 119.953C137.777 122 137.538 124.042 137.397 126.097C137.264 128.056 137.026 130.007 136.841 131.961C136.779 132.611 136.721 133.273 136.709 133.915C136.677 135.647 136.389 137.369 136.528 138.814L136.53 138.816Z" fill="black"/>
<path d="M102.817 147.533C102.271 147.546 102.12 147.257 102.427 146.75C103.354 145.215 104.478 143.821 105.59 142.426C107.335 140.234 109.133 138.086 110.922 135.928C112.455 134.078 114.005 132.243 115.55 130.402C115.628 130.309 115.703 130.207 115.801 130.144C115.968 130.036 116.128 129.797 116.36 130.017C116.569 130.215 116.354 130.391 116.269 130.532C115.159 132.372 113.879 134.097 112.604 135.823C110.872 138.166 109.104 140.484 107.329 142.794C106.297 144.137 105.226 145.447 104.163 146.763C103.821 147.185 103.414 147.53 102.817 147.535V147.533Z" fill="black"/>
<path d="M163.381 121.003C163.913 118.61 164.207 116.235 164.823 113.923C165.978 109.592 167.769 105.558 170.417 101.925C171.001 101.124 171.629 100.358 172.355 99.676C172.625 99.4221 172.917 99.2137 173.239 99.0407C173.477 98.9115 173.765 98.7707 173.976 98.9997C174.185 99.2256 173.865 99.3944 173.764 99.5484C172.709 101.142 171.586 102.691 170.564 104.303C167.857 108.574 165.847 113.156 164.533 118.041C164.339 118.762 164.154 119.486 163.919 120.195C163.827 120.474 163.824 120.842 163.384 121.003H163.381Z" fill="black"/>
<path d="M157.054 134.758C157.054 133.29 157.054 131.983 157.054 130.678C157.054 128.346 157.153 126.018 157.36 123.697C157.408 123.154 157.594 122.623 157.737 122.092C157.769 121.967 157.79 121.769 157.986 121.784C158.211 121.801 158.216 121.994 158.224 122.167C158.228 122.264 158.225 122.362 158.225 122.46C158.233 125.356 158.274 128.255 158.067 131.147C157.983 132.3 157.816 133.449 157.633 134.59C157.553 135.086 157.594 135.472 158.021 135.782C158.165 135.886 158.391 136.043 158.192 136.247C158.017 136.424 157.907 136.178 157.781 136.09C157.762 136.077 157.747 136.038 157.731 136.04C156.557 136.063 156.613 134.79 155.892 134.278C155.081 133.701 154.39 132.914 153.755 132.102C153.296 131.517 152.731 131.011 152.377 130.343C152.257 130.117 152.13 129.882 152.52 129.705C152.862 129.549 152.922 129.674 153.105 129.941C154.251 131.611 155.542 133.167 157.054 134.759V134.758Z" fill="black"/>
<path d="M174.333 118.038C174.433 119.422 173.966 120.669 173.554 121.911C172.691 124.519 171.469 126.976 170.298 129.454C169.75 130.616 169.204 131.779 168.545 132.894C170.366 128.081 171.93 123.181 173.784 118.385C173.852 118.21 173.995 118.054 174.331 118.038H174.333Z" fill="black"/>
<path d="M98.2044 150.533C98.7401 150.541 99.4251 150.431 99.4822 150.899C99.5277 151.279 98.806 151.142 98.4362 151.21C95.9627 151.667 93.4892 152.124 91.0361 152.681C90.5007 152.803 89.9593 152.92 89.4136 152.979C89.1597 153.007 88.8708 152.892 88.7622 152.612C88.6359 152.283 88.8796 152.128 89.1289 152.012C90.1396 151.543 91.2312 151.327 92.314 151.157C94.2916 150.846 96.287 150.654 98.2029 150.53L98.2044 150.533Z" fill="black"/>
<path d="M107.707 117.493C106.72 116.562 106.231 115.425 105.61 114.39C104.437 112.431 103.263 110.468 102.381 108.351C102.283 108.116 102.059 107.801 102.33 107.637C102.572 107.49 102.813 107.76 102.984 107.978C104.142 109.456 104.98 111.128 105.872 112.764C106.45 113.825 106.959 114.924 107.472 116.018C107.669 116.438 107.92 116.872 107.707 117.494V117.493Z" fill="black"/>
<path d="M132.19 133.21C132.052 131.759 132.181 130.321 132.448 128.902C132.66 127.78 132.554 126.643 132.715 125.522C133.103 122.85 132.987 120.148 133.169 117.463C133.185 117.231 133.16 116.875 133.459 116.875C133.842 116.875 133.742 117.253 133.741 117.499C133.729 119.542 133.851 121.59 133.59 123.624C133.238 126.383 133.293 129.197 132.459 131.898C132.331 132.309 132.299 132.774 132.189 133.21H132.19Z" fill="black"/>
<path d="M144.79 144.222C143.187 144.012 141.335 144.16 139.542 143.654C139.094 143.528 138.952 143.309 139.025 142.881C139.106 142.406 139.488 142.582 139.716 142.605C140.943 142.737 142.165 142.906 143.386 143.079C144.907 143.295 146.436 143.349 147.969 143.359C148.164 143.359 148.361 143.351 148.553 143.372C148.717 143.392 148.792 143.534 148.818 143.678C148.856 143.874 148.707 143.898 148.557 143.942C148.179 144.053 147.796 144.077 147.404 144.088C146.605 144.112 145.806 144.168 144.79 144.222Z" fill="black"/>
<path d="M169.346 140.638C169.679 140.284 177.665 136.828 178.69 136.559C177.669 137.931 171.576 141.101 169.346 140.638Z" fill="black"/>
<path d="M90.5698 147.68C90.7897 147.093 90.9718 146.935 91.8152 146.892C94.3813 146.764 96.7711 147.438 99.0467 148.578C99.2124 148.66 99.4971 148.735 99.393 148.952C99.2901 149.166 99.0365 149.053 98.8251 148.981C96.975 148.344 95.0531 148.074 93.1151 147.887C92.2672 147.805 91.4352 147.529 90.5681 147.681L90.5698 147.68Z" fill="black"/>
<path d="M169.642 147.734C169.246 147.761 168.938 147.225 169.082 146.836C169.336 146.151 169.987 145.852 170.499 145.44C171.214 144.864 172.002 144.38 172.766 143.868C172.923 143.764 173.112 143.705 173.291 143.638C173.571 143.532 173.665 143.795 173.812 143.927C174.003 144.1 173.827 144.242 173.711 144.349C172.477 145.492 171.247 146.643 169.861 147.607C169.782 147.661 169.695 147.703 169.642 147.734Z" fill="black"/>
<path d="M181.484 139.344C181.042 140.161 180.364 140.472 179.738 140.786C178.661 141.327 177.493 141.631 176.313 141.866C175.948 141.938 175.396 141.993 175.297 141.597C175.21 141.254 175.7 141.097 176.063 140.999C177.697 140.557 179.346 140.162 180.888 139.43C181.01 139.372 181.167 139.386 181.484 139.342V139.344Z" fill="black"/>
<path d="M130.339 146.534C131.552 144.308 131.033 141.791 131.605 139.247C131.92 140.046 131.933 140.683 131.911 141.299C131.863 142.723 131.593 144.123 131.401 145.532C131.281 146.418 131.088 146.613 130.339 146.533V146.534Z" fill="black"/>
<path d="M132.947 109.604C132.566 108.174 132.397 106.706 132.135 105.258C132.036 104.716 131.929 104.173 131.857 103.625C131.828 103.401 131.724 103.053 132.004 102.978C132.247 102.914 132.35 103.206 132.434 103.448C132.745 104.337 132.845 105.27 132.975 106.189C133.118 107.192 133.238 108.21 133.151 109.233C133.14 109.365 133.192 109.536 132.944 109.602L132.947 109.604Z" fill="black"/>
<path d="M127.426 147.931C128.017 148.785 127.596 151.55 126.768 152.68C126.917 151.141 126.92 149.583 127.426 147.931Z" fill="black"/>
<path d="M130.402 58.8537C130.848 59.3216 131.351 59.2659 131.916 59.1822C131.606 58.2682 132.027 57.4673 132.267 56.6383C132.36 56.3141 132.484 56.251 132.842 56.4212C133.387 56.6808 133.97 56.8275 134.626 56.7675C135.023 56.7308 135.572 56.9903 135.491 57.5905C135.369 58.4927 135.196 59.3906 134.994 60.2797C134.901 60.6876 134.626 60.8958 134.13 60.8415C133.424 60.7637 132.742 60.8254 132.246 61.4945C131.92 61.9361 131.344 61.9873 130.911 61.7967C129.803 61.3082 128.729 60.7154 128.376 59.414C128.245 58.9314 127.758 58.6702 127.68 58.167C127.61 57.7166 127.313 57.2207 128.123 57.0916C128.43 57.0432 128.685 56.7263 128.993 56.603C130.142 56.1425 131.059 56.873 130.969 58.1215C130.942 58.5088 130.703 58.66 130.402 58.8551V58.8537ZM132.679 59.4551C132.34 59.8189 131.677 60.0742 132.259 60.7535C132.642 60.3883 132.909 59.9936 132.664 59.4389C132.817 59.4918 132.958 59.7544 133.129 59.4697C133.26 59.2543 133.505 59.0767 133.411 58.7788C133.387 58.7025 133.28 58.6261 133.195 58.6012C133.012 58.5484 133.049 58.7157 133.004 58.8155C132.908 59.0341 132.789 59.241 132.679 59.4536V59.4551ZM134.46 60.617C134.51 59.8836 134.244 59.2088 134.32 58.4986C134.436 57.4189 134.312 57.3528 133.261 57.1108C132.837 57.0124 132.736 57.102 132.717 57.482C132.699 57.8252 132.689 58.0689 133.188 58.0525C133.86 58.0307 134.061 58.3137 133.864 58.9829C133.723 59.461 133.459 59.9026 133.245 60.3707C133.613 60.4454 134.004 60.5248 134.461 60.6187L134.46 60.617ZM130.99 61.0617C130.98 60.8431 130.964 60.6523 130.962 60.4615C130.962 60.2591 130.964 60.0773 130.683 60.0552C130.399 60.0332 130.399 60.2093 130.361 60.4146C130.277 60.8666 130.964 61.6294 131.43 61.5282C131.715 61.4665 131.988 61.1878 131.947 60.9192C131.903 60.6303 131.853 60.1579 131.495 60.1154C131.058 60.064 131.33 60.5101 131.239 60.7185C131.194 60.8225 131.22 60.9605 130.989 61.0617H130.99ZM129.246 59.2718C129.803 59.1426 129.872 58.7465 129.764 58.2815C129.709 58.0482 129.507 57.9866 129.304 58.0615C129.15 58.1172 128.976 58.2388 129.112 58.4429C129.288 58.707 129.117 59.0165 129.246 59.2718ZM128.772 57.2267C129.227 57.3514 129.464 57.7884 129.884 57.5187C130.016 57.4336 129.916 57.2252 129.793 57.0842C129.435 56.6765 129.186 56.983 128.773 57.2267H128.772Z" fill="black"/>
<path d="M116.498 61.9904C115.053 61.9537 113.452 62.0416 111.854 62.253C111.466 62.3042 111.166 62.2044 111.149 61.6822C111.116 60.7301 111.32 60.3413 112.23 60.064C114.235 59.4551 116.215 59.4375 118.142 60.3999C118.496 60.576 118.723 60.8488 118.883 61.1629C119.155 61.6969 118.917 62.0153 118.346 61.9932C117.786 61.9726 117.223 61.9887 116.496 61.9887L116.498 61.9904Z" fill="black"/>
<path d="M138.901 65.441C137.783 65.1475 136.999 65.6917 136.185 66.1056C135.955 66.2229 135.93 66.3725 136.059 66.6351C136.26 67.0386 136.383 67.4847 136.511 67.9204C136.605 68.2401 136.455 68.4911 136.182 68.6599C135.843 68.8697 135.71 68.5483 135.528 68.3795C135.444 68.3018 135.406 68.1771 135.338 68.0804C134.753 67.2427 134.743 67.2353 134.113 68.0142C133.987 68.1711 133.899 68.3928 133.689 68.2534C133.519 68.1389 133.576 67.891 133.64 67.7077C134.096 66.3844 135.004 65.4483 136.207 64.7867C136.901 64.4051 137.637 64.2233 138.43 64.4859C138.722 64.5826 138.929 64.7486 139.062 65.0375C139.222 65.3807 139.116 65.4689 138.901 65.441Z" fill="black"/>
<path d="M118.078 65.3867C117.831 65.7152 117.534 65.9221 117.218 65.9648C116.367 66.0776 116.037 66.6572 115.84 67.3702C115.678 67.9614 115.254 68.1991 114.714 68.3577C114.212 68.5042 113.917 68.3473 113.813 67.8471C113.748 67.5404 113.706 67.2294 113.678 66.9184C113.662 66.7307 113.707 66.6029 113.43 66.5062C112.969 66.3433 112.943 65.8709 113.38 65.6801C114.142 65.3457 114.831 64.8218 115.811 65.1783C116.483 65.422 117.278 65.3279 118.076 65.3881L118.078 65.3867Z" fill="black"/>
<path d="M126.731 54.2455C127.3 54.6958 127.202 55.2505 127.129 55.7198C126.884 57.2736 127.16 58.839 126.981 60.3795C126.834 61.6325 127.267 62.5903 128.011 63.5337C128.694 64.4008 129.277 65.3471 129.824 66.3154C130.086 66.779 130.085 67.2322 130.078 67.712C130.07 68.155 129.761 68.2579 129.391 68.2901C128.977 68.3252 128.901 68.0628 128.892 67.7428C128.885 67.5127 128.719 67.2837 128.882 67.0533C129.645 65.975 128.697 65.3734 128.213 64.6414C128.2 64.6208 128.195 64.59 128.178 64.5784C126.31 63.3681 126.397 61.5253 126.552 59.6416C126.608 58.9637 126.564 58.277 126.565 57.5934C126.565 57.033 126.492 56.458 126.587 55.9151C126.681 55.3854 126.694 54.8601 126.733 54.2455H126.731Z" fill="black"/>
<path d="M137.077 87.5136C136.71 86.2696 136.162 85.0987 135.707 83.8943C135.561 83.5098 135.597 83.1505 136.037 82.9274C136.662 82.6105 137.266 82.2511 137.897 81.9489C138.035 81.8828 138.256 81.632 138.4 81.8844C138.502 82.0634 138.325 82.2438 138.148 82.3509C137.651 82.6501 137.174 82.9905 136.65 83.231C136.167 83.4527 136.015 83.6523 136.232 84.2112C136.644 85.2705 136.946 86.3737 137.078 87.5136H137.077Z" fill="black"/>
<path d="M139.57 68.1697C139.413 68.8564 139.382 69.6531 138.682 70.1812C138.537 70.2912 138.378 70.413 138.227 70.3073C138.078 70.2047 138.107 69.9774 138.166 69.8306C138.418 69.2056 138.692 68.5893 138.971 67.9761C139.055 67.7912 139.102 67.5067 139.402 67.5932C139.675 67.671 139.504 67.9263 139.57 68.1697Z" fill="black"/>
<path d="M111.023 73.8107C111.023 73.8842 111.027 73.934 111.023 73.9826C110.977 74.427 111.007 75.0974 110.561 75.1386C110.132 75.1782 110.319 74.4754 110.154 74.1262C110 73.8005 109.931 73.4381 110.151 73.092C110.25 72.938 110.254 72.6988 110.514 72.6974C110.797 72.6974 110.833 72.9394 110.939 73.1228C111.071 73.353 111.001 73.5981 111.024 73.8093L111.023 73.8107Z" fill="black"/>
<path d="M128.37 54.6591C128.741 54.6636 129.049 54.6871 129.055 55.1419C129.061 55.7082 128.644 55.7845 128.238 55.8343C127.871 55.8798 127.705 55.6745 127.74 55.3107C127.778 54.9042 127.93 54.6107 128.371 54.6591H128.37Z" fill="black"/>
<path d="M136.825 58.3329C137.18 58.2786 137.633 58.3417 137.629 58.7129C137.623 59.191 137.125 59.1881 136.726 59.2088C136.371 59.2263 135.997 59.1192 135.997 58.7861C135.997 58.3166 136.433 58.2931 136.825 58.3329Z" fill="black"/>
<path d="M141.172 85.985C141.104 86.6465 139.08 88.0081 137.897 88.0417C139.19 87.5255 140.231 86.8271 141.172 85.985Z" fill="black"/>
<path d="M130.41 54.8601C130.745 55.004 130.889 55.2974 130.95 55.6347C130.974 55.7611 130.952 56.0161 130.776 55.9341C130.478 55.7947 130.202 55.5556 130.104 55.218C130.052 55.0391 130.209 54.9144 130.409 54.8587L130.41 54.8601Z" fill="black"/>
<path d="M135.843 59.8132C136.514 59.5345 137.149 59.7047 137.778 59.9673C137.119 60.1726 136.492 59.8322 135.843 59.8132Z" fill="black"/>
<path d="M136.999 60.6054C136.864 60.6436 136.842 60.6538 136.819 60.6552C136.442 60.6786 136.051 60.7301 135.801 60.353C135.773 60.3105 135.845 60.1285 135.889 60.1197C136.323 60.0465 136.647 60.243 136.999 60.604V60.6054Z" fill="black"/>
<path d="M128.911 61.6837C128.996 61.5678 129.014 61.4312 129.232 61.4974C129.518 61.5825 129.838 61.6441 129.884 61.9639C129.915 62.1796 129.639 62.134 129.482 62.1326C129.183 62.1298 129.006 61.9537 128.911 61.6851V61.6837Z" fill="black"/>
<path d="M129.693 63.0421C129.709 63.2799 129.532 63.3078 129.366 63.2886C129.125 63.2609 128.97 63.0687 128.945 62.8603C128.911 62.5771 129.174 62.6418 129.348 62.6095C129.733 62.5406 129.583 62.8838 129.693 63.0421Z" fill="black"/>
<path d="M183.563 208.524C182.725 209.524 181.647 209.373 180.7 209.436C178.005 209.617 175.3 209.654 172.599 209.769C170.898 209.843 169.2 209.981 167.499 210.045C165.505 210.12 163.518 210.001 161.54 209.719C161.531 209.35 161.82 209.263 162.096 209.178C163.17 208.842 164.291 208.857 165.394 208.738C166.427 208.626 167.461 208.531 168.495 208.445C168.801 208.42 168.748 208.308 168.695 208.07C168.468 207.064 168.269 206.05 168.089 205.035C168.008 204.582 168.045 204.134 168.176 203.671C168.41 202.833 169.038 202.956 169.612 203.034C170.134 203.106 170.228 203.59 170.237 204.015C170.263 205.163 170.246 206.311 170.247 207.46C170.247 208.367 170.259 208.39 171.129 208.291C174.422 207.915 177.728 207.824 181.039 207.852C181.234 207.853 181.43 207.848 181.625 207.852C182.988 207.872 183.447 207.478 183.561 206.075C183.843 202.632 184.738 199.335 185.885 196.096C186.013 195.735 186.18 195.387 186.352 195.045C186.459 194.831 186.46 194.412 186.789 194.504C187.15 194.605 187.307 194.947 187.292 195.373C187.266 196.153 187.082 196.904 186.922 197.655C186.353 200.33 185.79 203.005 185.351 205.704C185.143 206.988 184.911 208.271 184.905 209.58C184.901 210.311 184.987 211.019 185.347 211.675C185.42 211.81 185.571 211.947 185.383 212.124C185.194 212.303 185.068 212.132 184.937 212.058C184.257 211.675 184.139 210.94 183.896 210.3C183.701 209.786 183.582 209.24 183.563 208.527V208.524Z" fill="black"/>
<path d="M190.332 200.676C190.298 199.024 190.454 197.325 190.914 195.662C190.952 195.525 191.023 195.395 191.051 195.257C191.137 194.834 191.509 194.696 191.811 194.726C192.197 194.762 192.119 195.185 192.079 195.447C191.843 197.022 191.952 198.603 191.949 200.18C191.944 203.665 192.399 207.093 193.272 210.466C193.367 210.836 193.526 211.19 193.655 211.551C193.746 211.807 193.953 212.037 193.536 212.264C193.091 212.506 192.996 212.195 192.821 211.948C191.974 210.752 191.57 209.366 191.235 207.977C190.663 205.604 190.278 203.2 190.333 200.676H190.332Z" fill="black"/>
<path d="M176.152 214.36C176.06 214.593 175.85 214.599 175.662 214.586C174.295 214.498 172.938 214.679 171.579 214.756C169.478 214.876 167.382 215.08 165.288 215.287C164.951 215.321 164.757 215.139 164.439 215.098C165.18 214.425 172.938 213.97 176.154 214.36H176.152Z" fill="black"/>
<path d="M174.51 206.925C174.537 207.209 174.484 207.55 174.246 207.625C173.92 207.726 173.834 207.355 173.745 207.117C173.489 206.441 173.224 205.764 173.027 205.07C172.898 204.614 173.202 204.203 173.349 203.788C173.42 203.584 173.665 203.584 173.865 203.613C174.107 203.649 174.148 203.883 174.185 204.045C174.397 204.992 174.283 205.979 174.51 206.926V206.925Z" fill="black"/>
<path d="M70.9853 211.98C71.1174 210.955 71.3068 210.016 71.3139 209.049C71.3331 206.545 70.8239 204.12 70.3427 201.687C70.1799 200.864 70.0023 200.046 69.8395 199.222C69.7736 198.888 69.9526 198.606 70.1035 198.339C70.356 197.893 70.7241 197.906 70.9574 198.373C71.6602 199.78 72.0328 201.297 72.3073 202.827C72.6432 204.699 72.7591 206.592 72.4701 208.489C72.313 209.513 72.2222 210.551 71.6177 211.452C71.4812 211.655 71.3873 211.868 70.9853 211.98Z" fill="black"/>
<path d="M78.6377 211.37C79.0236 210.852 79.656 210.795 80.2016 210.664C81.6262 210.322 83.0641 210.032 84.5091 209.792C84.9625 209.715 85.027 209.582 84.8964 209.202C84.383 207.701 83.906 206.191 83.6903 204.611C83.6685 204.444 83.6244 204.278 83.6157 204.111C83.5965 203.715 83.6052 203.162 83.9736 203.094C84.3521 203.025 84.7395 203.414 84.9286 203.832C85.3453 204.749 85.3733 205.748 85.5127 206.721C85.6314 207.548 85.7078 208.382 85.9365 209.193C85.9981 209.41 86.0114 209.536 86.2902 209.494C86.8109 209.416 87.3495 209.447 87.8174 209.131C88.0625 208.965 88.3633 208.93 88.5202 209.207C88.7124 209.548 88.3353 209.592 88.1504 209.68C87.6766 209.909 87.1954 210.121 86.6701 210.23C86.4324 210.28 86.0569 210.309 86.233 210.785C86.3255 211.035 86.032 211.197 85.9 211.033C85.2 210.161 84.4211 210.82 83.7022 210.902C82.128 211.082 80.5773 211.467 78.984 211.512C78.8754 211.515 78.7389 211.558 78.6362 211.369L78.6377 211.37Z" fill="black"/>
<path d="M90.6518 213.577C90.5345 214.094 90.2586 214.356 89.8803 214.564C86.9796 216.162 83.859 217.161 80.6638 217.947C80.5287 217.981 80.1987 218.323 80.093 217.866C80.0093 217.509 80.3014 217.406 80.5434 217.307C81.698 216.839 82.8571 216.38 84.0176 215.924C85.9395 215.17 87.8145 214.293 89.7892 213.67C90.0621 213.585 90.3055 213.59 90.6518 213.577Z" fill="black"/>
<path d="M88.0094 206.26C88.0094 205.87 88.0094 205.478 88.0094 205.088C88.0094 204.673 88.181 204.338 88.4936 204.073C88.6769 203.917 88.881 203.723 89.1201 203.8C89.3695 203.877 89.2403 204.212 89.3415 204.36C89.8258 205.072 89.5572 205.584 89.0789 206.178C88.8589 206.451 88.916 206.966 88.8926 207.374C88.8691 207.781 88.5949 207.962 88.2839 207.972C87.8349 207.987 88.0388 207.584 88.0181 207.36C87.9845 206.997 88.0094 206.628 88.0094 206.262V206.26Z" fill="black"/>
<path d="M82.3055 208.139C82.2614 208.217 82.2322 208.314 82.1675 208.368C82.0677 208.453 81.9914 208.351 81.9284 208.289C81.6204 207.984 81.3123 207.682 81.0731 207.31C80.9439 207.111 81.007 207.016 81.1362 206.884C81.2843 206.733 81.4559 206.719 81.5617 206.882C81.8229 207.281 82.0488 207.702 82.3055 208.139Z" fill="black"/>
<path d="M144.056 165.961C144.774 166.525 145.073 167.191 145.332 167.941C144.881 168.029 144.85 167.248 144.402 167.572C144.012 167.855 144.595 168.183 144.344 168.574C143.981 167.797 143.254 167.257 143.27 166.183C143.497 166.522 143.666 166.742 143.799 166.981C143.902 167.166 143.946 167.301 144.216 167.147C144.463 167.006 144.445 166.934 144.319 166.717C144.216 166.541 144.009 166.4 144.056 165.961Z" fill="black"/>
<path d="M145.598 167.157C145.984 167.216 146.317 167.553 146.229 167.008C146.173 166.666 146.047 166.355 145.843 166.082C145.683 165.869 145.448 165.633 145.199 165.693C144.887 165.769 145.278 166.075 145.129 166.255C145.083 166.311 145.045 166.372 144.966 166.484C144.713 166.229 144.501 165.959 144.627 165.618C144.709 165.398 144.988 165.32 145.242 165.342C145.648 165.376 146.018 165.518 146.188 165.909C146.332 166.237 146.399 166.6 146.502 166.947C146.581 167.214 146.647 167.511 146.321 167.63C145.99 167.75 145.96 167.382 145.598 167.156V167.157Z" fill="black"/>
<path d="M140.852 169.666C140.349 169.148 140.104 168.588 139.916 168.004C139.854 167.812 139.892 167.586 139.579 167.748C139.426 167.828 139.293 168.071 139.083 167.851C138.983 167.747 139.009 167.619 139.115 167.533C139.3 167.38 139.511 167.258 139.758 167.337C139.887 167.379 140.011 167.448 140.085 167.602C140.386 168.24 140.77 168.844 140.853 169.666H140.852Z" fill="black"/>
<path d="M140.686 167.501C141.444 166.861 141.482 166.868 141.835 167.68C141.902 167.834 141.97 167.988 142.039 168.14C142.108 168.29 142.178 168.439 142.32 168.743C141.785 168.585 141.659 168.208 141.541 167.905C141.378 167.484 141.201 167.226 140.687 167.499L140.686 167.501Z" fill="black"/>
<path d="M142.3 166.752C143.087 167.14 143.107 167.955 143.394 168.627C142.797 168.14 142.723 167.349 142.3 166.752Z" fill="black"/>
<path d="M139.092 169.663C139.3 169.728 139.317 169.888 139.315 170.062C139.31 170.333 139.153 170.457 138.904 170.457C138.745 170.457 138.61 170.344 138.639 170.187C138.686 169.939 138.871 169.776 139.09 169.663H139.092Z" fill="black"/>
</svg>
