<svg width="285" height="292" viewBox="0 0 285 292" fill="none" xmlns="http://www.w3.org/2000/svg">
<g clip-path="url(#clip0_23_1232)">
<path d="M220.744 134.253C221.536 135.313 222.319 136.337 223.072 137.383C223.381 137.811 223.85 138.268 223.434 138.845C222.917 139.561 222.684 140.716 221.394 140.401C221.096 140.329 221.139 140.505 221.036 140.642C220.329 141.584 219.425 142.079 218.415 140.64C217.809 142.18 217.257 143.705 216.53 145.162C215.109 148.005 213.641 150.826 212.406 153.759C210.892 157.353 209.682 161.046 208.778 164.838C208.592 165.616 208.419 166.398 208.212 167.171C208.157 167.379 208.141 167.556 208.338 167.636C208.526 167.711 208.573 167.494 208.663 167.381C208.95 167.018 209.161 166.569 209.742 166.58C210.029 166.587 210.002 166.325 210.04 166.117C210.3 164.685 210.567 163.257 210.84 161.828C210.868 161.678 210.922 161.522 211.005 161.398C211.103 161.253 211.226 161.064 211.446 161.177C211.623 161.269 211.547 161.432 211.522 161.59C211.281 163.129 211.057 164.67 210.815 166.209C210.719 166.818 210.956 167.392 210.972 167.987C211.01 169.375 210.838 170.771 210.418 172.059C209.681 174.316 209.406 176.552 209.688 178.918C209.915 180.827 209.559 182.736 209.299 184.642C208.951 187.213 208.52 189.765 207.998 192.304C207.937 192.604 207.96 192.939 208.022 193.242C208.244 194.354 207.437 195.197 207.277 196.203C206.924 198.401 206.538 200.586 206.376 202.819C206.073 206.986 205.842 211.151 205.709 215.325C205.635 217.654 205.619 219.982 205.618 222.31C205.613 228.484 205.67 234.659 205.593 240.83C205.567 242.864 205.632 244.931 205.136 246.931C204.91 247.84 204.438 248.661 203.586 249.144C203.231 249.344 202.735 249.195 202.406 249.247C201.486 249.395 201.79 248.648 201.754 248.433C201.256 245.509 201.195 242.582 201.458 239.611C201.634 237.62 201.829 235.619 201.908 233.619C201.993 231.486 202.056 229.345 201.977 227.212C201.907 225.264 201.644 223.323 201.483 221.376C201.13 217.115 201.669 212.95 202.436 208.78C202.896 206.28 203.091 203.742 203.296 201.203C203.457 199.196 203.888 197.207 204.251 195.219C204.468 194.018 204.334 192.819 204.344 191.622C204.359 189.196 204.218 186.771 204.313 184.343C204.318 184.204 204.416 183.954 204.202 183.954C203.482 183.954 203.633 183.346 203.6 183.007C203.282 179.808 203.324 176.619 203.869 173.436C204.57 169.356 205.561 165.347 206.735 161.382C207.87 157.546 209.356 153.852 211.16 150.27C212.327 147.95 213.623 145.696 214.718 143.344C215.139 142.441 215.723 141.568 215.756 140.469C213.677 140.941 211.616 140.722 209.556 140.323C209.227 140.258 208.863 140.25 208.538 140.321C208.165 140.401 207.878 140.612 208.145 141.088C208.381 141.513 208.441 141.953 207.919 142.218C207.582 142.389 207.943 142.712 207.664 142.941C207.064 143.43 206.478 143.768 205.731 143.326C205.333 143.092 205.043 143.162 204.689 143.438C203.836 144.104 202.875 144.632 202.034 145.461C202.554 145.483 202.73 145.513 202.389 146.05C202.001 146.661 201.423 146.986 200.927 147.427C199.35 148.832 197.743 150.207 196.146 151.59C195.916 151.789 195.65 152.12 195.347 151.831C195.042 151.54 195.269 151.184 195.497 150.93C196.258 150.086 197.039 149.26 197.791 148.399C196.798 148.991 195.955 149.785 195.043 150.484C194.618 150.81 194.263 151.258 193.574 151.011C193.205 150.878 192.875 151.289 192.539 151.475C192.222 151.65 191.907 151.831 191.612 152.038C191.146 152.365 190.678 152.305 190.251 152.015C190.038 151.872 190.201 150.532 190.426 150.332C190.757 150.037 191.125 149.78 191.445 149.473C191.814 149.119 192.477 149.01 192.425 148.281C192.413 148.112 192.694 148.068 192.847 147.973C195.454 146.356 198.06 144.733 200.676 143.104C199.989 142.534 199.651 141.444 200.032 140.603C200.262 140.092 200.106 139.869 199.766 139.561C199.446 139.273 199.104 138.997 199.145 138.451C199.177 138.03 198.78 138.037 198.507 138.133C196.192 138.947 193.788 138.846 191.412 138.701C188.235 138.508 185.054 138.427 181.877 138.245C179.747 138.122 177.733 137.482 175.845 136.547C173.164 135.215 170.316 134.354 167.508 133.38C165.027 132.52 162.7 131.388 160.704 129.661C159.471 128.593 158.069 127.766 156.756 126.815C155.262 125.731 154.965 124.357 156.068 122.873C157.309 121.2 158.588 119.565 160.361 118.4C160.791 118.116 160.891 117.584 161.203 117.201C161.613 116.7 161.925 116.12 162.487 115.753C162.96 115.443 162.895 115.145 162.445 114.861C161.793 114.45 161.399 113.891 161.369 113.085C161.348 112.547 161.878 112.414 162.054 112.488C162.645 112.738 162.536 112.281 162.453 112.1C162.177 111.505 162.676 110.536 161.6 110.299C161.518 110.282 161.537 109.866 161.485 109.64C160.852 106.812 160.453 103.95 160.094 101.076C159.866 99.2381 159.455 97.4218 159.111 95.5976C159.012 95.0682 158.861 94.5485 158.744 94.0208C158.718 93.8994 158.688 93.7277 158.749 93.649C158.908 93.4473 159.294 93.4032 159.102 92.992C158.787 92.318 158.672 91.5477 158.129 90.9837C157.979 90.8293 157.742 90.7977 157.62 90.8812C156.564 91.5996 155.517 90.9994 154.583 90.7174C151.884 89.9014 149.12 89.6067 146.346 89.2698C143.608 88.9356 140.879 88.5828 138.115 88.6569C137.875 88.6634 137.74 88.5577 137.59 88.3906C135.101 85.6231 132.2 83.3749 128.922 81.6202C127.427 80.8199 126.129 79.7458 124.809 78.714C123.082 77.3654 121.091 76.4362 119.353 75.1097C118.424 74.3992 117.408 73.8006 116.483 73.0825C114.999 71.9277 113.405 71.1163 111.48 71.0328C110.31 70.9809 109.782 70.2044 109.371 69.1645C108.661 67.3674 108.82 65.5164 108.788 63.6684C108.779 63.1142 108.854 62.6967 108.109 62.3171C107.479 61.9957 106.857 61.5736 106.066 61.1892C106.309 62.295 106.676 63.2448 107.147 64.1002C107.614 64.9462 107.345 65.7919 107.454 66.6285C107.484 66.8537 107.362 67.1043 107.479 67.369C107.605 67.6556 107.548 67.9644 107.252 68.1233C106.912 68.3061 106.529 68.2053 106.339 67.9216C106.142 67.6305 106.09 67.3374 105.609 67.5264C105.373 67.6194 105.067 67.2711 105.019 67.0932C104.773 66.1937 103.906 66.1023 103.292 65.7306C101.988 64.9414 100.871 63.9742 99.8248 62.8668C99.2027 62.2082 98.3332 61.7815 97.5629 61.2678C96.6225 60.6425 96.1702 59.3682 96.5563 58.4592C96.7499 58.0023 97.0224 57.8779 97.4572 58.1175C98.6057 58.7523 99.7115 59.4737 100.507 60.5211C101.077 61.2727 101.824 61.7561 102.591 62.3988C102.484 60.6062 102.314 58.9554 101.219 57.5346C100.688 56.8462 100.89 56.4855 101.761 56.4696C102.101 56.4634 101.988 56.0759 102.383 56.0208C103.461 55.871 103.796 56.7059 104.359 57.2415C104.614 57.484 104.738 57.8606 104.979 58.1237C105.244 58.4119 105.364 58.8342 106.019 58.6844C106.425 58.5914 107.008 59.0421 107.38 59.472C107.651 59.7873 107.941 60.0863 108.347 60.2361C108.659 60.351 109.002 60.4124 109.237 60.1699C110.149 59.2263 111.102 59.5367 112.115 59.9652C113.312 60.4708 114.533 60.9339 115.864 60.9512C116.453 60.9591 116.962 60.8615 117.542 60.5638C118.654 59.992 119.865 60.2769 120.989 60.7985C122.49 61.4979 123.947 62.2933 125.289 63.251C125.853 63.6544 126.382 63.2905 126.907 63.5206C129.197 64.5288 131.415 65.7857 133.857 66.3448C135.817 66.7939 137.576 67.6997 139.463 68.2888C139.758 68.3802 140.045 68.5 140.334 68.6054C140.478 68.0509 141.171 68.1974 141.412 67.7565C141.568 67.4712 141.776 67.4398 142.122 67.5215C143.269 67.7973 144.334 68.2826 145.402 68.7487C146.158 69.0796 146.787 69.1678 147.634 68.8701C149.767 68.1204 151.979 67.6021 154.182 67.0775C154.698 66.9545 155.194 66.7512 155.721 66.5766C155.41 66.2267 155.12 65.9244 154.858 65.6013C154.748 65.4659 154.587 65.2469 154.63 65.1303C154.937 64.2719 154.308 63.9269 153.796 63.5016C152.648 62.547 152.306 60.8031 152.815 59.113C153.179 57.9031 154.093 57.0398 154.633 55.9513C155.348 54.5132 156.49 53.6296 158.003 53.1348C158.404 53.004 158.538 52.314 159.17 52.4938C159.242 52.514 159.165 52.2872 159.159 52.1755C159.116 51.3625 158.273 50.9516 158.136 50.2805C157.947 49.3542 157.812 48.3839 157.963 47.4057C158.116 46.4099 158.272 45.4176 158.529 44.4424C158.588 44.2142 158.653 43.9668 158.434 43.7165C157.895 43.0989 158.064 42.4436 158.368 41.7582C158.724 40.9565 159.2 40.2303 159.894 39.7372C160.921 39.008 161.414 37.8927 162.133 36.9442C162.454 36.5189 162.013 36.048 162.098 35.5407C162.264 34.5482 162.402 33.5527 162.616 32.5667C162.684 32.2563 162.727 31.8924 162.483 31.516C162.18 31.7696 162.153 32.1443 161.978 32.4247C161.769 32.7589 161.613 33.2423 161.041 32.9809C160.835 32.8862 160.728 33.0331 160.676 33.162C160.323 34.0505 159.423 34.386 158.815 35.013C158.581 35.2555 158.288 35.4304 157.859 35.3028C157.595 35.2241 157.242 35.3453 156.955 35.451C155.871 35.8511 155.145 35.3691 155.076 34.2032C155.027 33.3764 155.307 32.6218 155.562 31.8672C156.205 29.9611 156.638 27.9812 157.645 26.2042C158.015 25.5504 158.442 24.9644 159.092 24.6115C160.354 22.9827 161.903 22.0486 163.182 20.6277C164.812 18.8193 166.58 17.1574 168.765 15.9744C170.567 14.9977 172.249 13.8147 173.95 12.6663C175.915 11.3384 177.985 10.201 180.36 9.76785C180.606 9.72375 180.699 9.57567 180.779 9.36773C181.071 8.61631 181.635 7.28212 182.408 7.07261C183.386 6.80794 184.138 6.88513 185.174 6.76071C185.239 6.75281 185.308 6.68192 185.352 6.62363C186.565 5.05783 188.465 4.57585 190.101 3.71731C191.294 3.09194 192.735 3.03046 194.018 2.53741C194.712 2.26962 195.459 2.13732 196.163 1.89C197.378 1.46468 198.364 1.85058 199.331 2.5941C200.686 3.63693 201.908 4.84359 203.423 5.6911C204.578 6.33696 204.882 7.64128 205.476 8.72662C206.509 10.6154 206.634 12.7923 207.441 14.7268C208.857 18.1183 210.383 21.4721 212.343 24.6005C213.42 26.3207 214.069 28.2332 214.816 30.1031C215.389 31.5379 215.969 32.9714 216.609 34.3781C217.243 35.7722 217.491 37.2579 217.562 38.7449C217.746 42.6342 218.214 46.4794 218.957 50.3008C219.099 51.0286 219.183 51.7895 219.171 52.5551C219.134 55.2678 219.524 57.9252 220.024 60.5952C220.479 63.0274 220.822 65.4926 221.112 67.9644C221.509 71.3605 222.114 74.752 223.474 77.9578C225.069 81.7195 226.632 85.4922 228.599 89.0808C229.231 90.2337 229.904 91.3649 230.516 92.5272C231.646 94.6745 232.492 96.9602 233.716 99.0662C235.705 102.489 237.638 105.944 239.621 109.37C240.145 110.274 240.4 111.314 241.06 112.144C241.223 112.351 241.112 112.568 241.099 112.798C240.929 115.808 239.429 118.24 237.755 120.597C236.024 123.034 234.789 125.753 233.319 128.339C232.868 129.13 232.297 129.839 231.419 130.23C230.964 130.433 230.739 130.891 230.518 131.28C230.165 131.904 229.581 132.259 229.044 132.61C228.507 132.963 227.851 132.689 227.278 132.426C227.202 132.391 227.223 132.15 227.022 132.359C225.924 133.512 224.416 133.572 222.984 133.851C222.259 133.993 221.492 133.887 220.742 134.237L220.744 134.253ZM204.235 136.471C206.658 137.029 208.94 137.578 211.235 138.074C212.612 138.372 214.009 138.481 215.421 138.273C216.32 138.141 216.596 137.729 216.145 136.964C215.917 136.576 215.845 136.202 215.843 135.778C215.84 134.847 215.752 134.78 214.789 134.804C214.244 134.817 213.452 135.011 213.198 134.733C212.57 134.045 212.072 134.207 211.429 134.563C211.215 134.681 210.815 134.577 210.692 134.73C209.829 135.798 208.576 135.53 207.464 135.751C206.432 135.956 205.364 136.005 204.233 136.471H204.235Z" fill="white"/>
<path d="M75.3155 232.878C74.4019 232.998 73.4599 232.815 72.6374 232.392C70.8481 231.469 69.0902 231.631 67.2517 232.182C65.8576 232.6 64.4558 232.62 62.9687 232.337C61.7415 232.102 60.4418 231.989 59.1676 231.954C55.9099 231.866 53.5501 230.341 51.959 227.548C51.3385 226.456 50.9132 225.339 50.984 224.019C51.0832 222.197 52.2302 220.666 54.0289 220.483C55.4814 220.336 56.8865 220.002 58.257 219.58C59.7062 219.133 61.0956 219.561 62.5086 219.58C62.8425 219.585 63.1561 219.585 63.4916 219.545C65.9412 219.253 68.3924 218.955 70.8497 218.744C71.6609 218.674 72.4863 219.035 73.3228 218.782C74.6366 218.383 75.7675 217.636 76.8449 216.836C78.4596 215.636 80.0523 214.416 81.9363 213.656C82.2121 213.544 82.3034 213.426 82.2656 213.078C82.1869 212.321 82.7712 211.761 83.532 211.798C84.5481 211.85 85.4681 212.09 86.0051 213.103C86.4023 213.849 87.059 214.377 87.6798 214.938C88.327 215.522 89.1133 216.059 88.9713 217.124C90.1055 218.786 88.5996 219.772 87.7995 220.642C85.9486 222.65 83.8267 224.408 81.8198 226.272C81.6118 226.465 81.3109 226.667 81.2636 226.907C80.9643 228.433 79.8836 229.435 78.9387 230.536C78.4991 231.05 78.0532 231.563 77.6658 232.115C77.075 232.954 76.2228 232.926 75.3122 232.882L75.3155 232.878Z" fill="white"/>
<path d="M177.44 280.68C177.375 277.605 178.145 274.967 178.577 272.285C178.682 271.636 179.32 271.53 179.87 271.487C180.39 271.446 180.918 271.482 181.441 271.503C182.258 271.536 182.425 271.271 182.37 270.484C182.32 269.752 181.994 269.25 181.565 268.698C180.726 267.613 180.815 266.286 180.941 265.025C181.023 264.218 181.246 263.415 181.507 262.629C181.883 261.498 183.006 260.636 184.528 261.304C185.62 261.783 186.789 262.082 187.921 262.47C188.559 262.687 189.271 263.65 189.238 264.313C189.194 265.185 189.449 266.074 189.101 266.932C189.048 267.065 189.06 267.216 189.144 267.378C189.572 268.196 189.725 269.062 189.742 269.999C189.774 271.679 190.955 272.812 191.902 274.039C193.017 275.486 193.994 277.019 194.47 278.79C194.786 279.966 195.41 280.834 196.377 281.523C198.272 282.878 200.207 284.159 202.378 285.043C203.359 285.444 204.044 286.174 204.542 287.087C204.728 287.431 204.778 287.625 204.299 287.912C203.764 288.231 203.412 288.869 203.009 289.388C202.971 289.437 203.006 289.559 202.877 289.575C201.607 289.721 200.698 290.621 199.627 291.17C198.395 291.805 197.222 291.849 196.006 291.294C194.451 290.586 192.831 289.94 191.169 289.718C188.584 289.375 186.458 288.082 184.21 286.982C182.747 286.263 181.291 285.546 179.903 284.686C178.285 283.683 176.951 282.545 177.437 280.68H177.44Z" fill="white"/>
<path d="M160.898 163.023C161.764 162.653 162.629 162.275 163.5 161.916C164.07 161.681 164.677 161.522 165.219 161.237C165.729 160.969 166.052 161.206 166.38 161.503C166.748 161.84 166.682 162.218 166.23 162.329C164.357 162.789 162.815 163.923 161.126 164.758C159.967 165.333 158.836 165.968 157.703 166.596C156.89 167.047 156.362 167.825 155.677 168.423C155.106 168.921 154.529 169.411 153.948 169.898C153.733 170.078 153.341 170.202 153.267 169.952C152.947 168.876 152.572 169.841 152.434 169.966C150.509 171.686 148.618 173.447 146.717 175.192C146.489 175.402 146.237 175.586 145.994 175.783C146.111 175.95 146.204 175.84 146.314 175.791C146.401 175.753 146.506 175.758 146.649 175.736C146.61 176.112 146.467 176.333 146.13 176.427C144.644 176.843 143.603 177.929 142.474 178.878C138.554 182.174 134.638 185.472 130.065 187.865C129.838 187.983 129.629 188.031 129.813 188.423C129.955 188.727 129.542 188.927 129.281 188.93C128.736 188.938 128.068 189.241 127.793 188.379C127.688 188.048 127.337 188.136 127.175 188.382C126.63 189.201 125.65 188.825 124.946 189.22C124.719 189.348 124.509 188.985 124.328 188.815C124.108 188.61 124.264 188.391 124.399 188.188C124.917 187.407 125.673 186.86 126.382 186.298C128.506 184.617 130.656 182.966 132.953 181.52C133.447 181.208 133.726 180.685 134.11 180.265C135.574 178.663 137.231 177.278 139.013 176.045C139.298 175.848 139.597 175.649 139.759 175.363C141.369 172.492 143.42 169.937 145.625 167.532C147.839 165.119 150.586 163.394 153.659 162.223C154.861 161.765 156.06 161.265 157.325 161.029C158.787 160.755 159.798 159.771 160.92 158.953C162.659 157.683 164.385 156.395 166.112 155.106C166.424 154.873 166.681 154.56 167.007 154.352C170.945 151.853 174.718 149.109 178.596 146.524C178.953 146.286 179.357 145.873 179.859 146.28C180.169 146.53 180.47 146.983 180.318 147.257C179.988 147.844 179.919 148.549 179.456 149.065C178.705 149.9 178.008 150.79 177.206 151.573C173.621 155.078 169.65 158.082 165.288 160.558C164.294 161.122 163.284 161.669 162.196 162.05C161.684 162.23 161.236 162.529 160.899 163.023H160.898Z" fill="white"/>
<path d="M77.858 51.4745C78.236 50.4522 78.0437 49.4472 78.2233 48.4782C78.3463 47.8199 78.7905 47.5709 79.2615 47.3237C79.7214 47.0826 79.9609 47.5095 80.2475 47.7615C80.6761 48.1411 80.9202 48.6342 81.0367 49.1731C81.3439 50.5812 82.1458 51.8038 82.4562 53.1962C83.3903 52.9236 83.8124 51.9801 84.7181 51.7865C84.8709 51.7532 84.8725 51.5815 84.8411 51.4555C84.4047 49.7495 84.3101 47.9948 84.0816 46.2587C83.9667 45.383 84.3244 44.5103 84.9671 44.2864C85.5279 44.0912 86.3154 44.4708 86.7927 45.1767C88.7461 48.0594 91.0083 50.6996 93.2245 53.3773C93.6941 53.9462 93.9823 54.6959 94.2232 55.4065C94.3052 55.6474 94.3949 55.5922 94.4941 55.5954C95.6348 55.6317 95.8947 55.9056 95.9009 57.0116C95.9025 57.4432 95.7354 57.826 95.66 58.2324C95.6111 58.4971 95.4599 58.6671 95.1574 58.5363C94.9194 58.4341 94.7275 58.5806 94.6283 58.7239C94.3084 59.187 93.9099 59.0973 93.5287 58.8986C93.1223 58.6877 92.76 58.3078 92.3455 58.8796C92.3093 58.9302 92.1125 58.9348 92.0557 58.8861C91.3895 58.3016 91.2713 58.9129 91.0507 59.3287C90.7136 59.9635 90.0487 59.8738 89.488 60.0171C87.9444 60.4094 86.3217 60.1369 84.7749 60.7528C83.3665 61.3135 81.9317 61.8475 80.4538 62.2587C79.4426 62.5391 78.6423 62.2414 78.05 61.586C76.0181 59.3428 73.4266 57.7914 71.1598 55.8426C70.8416 55.57 70.2965 55.444 70.604 54.8314C70.8449 54.3493 71.6922 53.9335 72.1902 54.0941C73.2439 54.4329 74.3088 54.7527 75.3344 55.1669C75.8494 55.3764 75.9803 55.2348 75.8778 54.7857C75.5139 53.1727 75.5596 51.4872 74.9972 49.9101C74.7798 49.2991 75.0177 48.8392 75.5658 48.5839C76.133 48.3209 76.4686 48.7602 76.6984 49.1587C77.1174 49.8898 77.4595 50.6647 77.8626 51.4777L77.858 51.4745Z" fill="white"/>
<path d="M123.252 173.5C124.98 172.551 126.697 171.579 128.44 170.656C129.894 169.885 131.396 169.251 133.02 168.874C133.832 168.687 134.388 169.121 135.071 169.301C134.582 169.503 134.049 169.46 133.553 169.624C130.84 170.517 128.443 172.004 126.045 173.507C123.292 175.233 120.519 176.928 117.753 178.636C117.6 178.73 117.433 178.856 117.266 178.864C116.94 178.88 116.557 179.03 116.299 178.73C116.006 178.392 116.321 178.075 116.469 177.812C117.12 176.652 118.257 175.928 119.141 174.879C118.274 174.78 118.382 174.423 118.738 173.808C119.442 172.588 120.666 172.029 121.712 171.243C123.429 169.953 125.264 168.844 127.077 167.696C127.956 167.138 128.991 167.295 129.854 166.794C130.034 166.691 130.47 166.837 130.484 167.081C130.51 167.529 130.725 168.03 130.132 168.397C128.512 169.402 126.921 170.454 125.41 171.621C124.659 172.201 123.925 172.804 123.183 173.397L123.252 173.499V173.5Z" fill="white"/>
<path d="M186.519 258.973C186.064 259.217 185.81 258.875 185.577 258.684C185.28 258.439 185.591 258.155 185.713 257.928C187.479 254.631 189.246 251.334 191.042 248.053C191.355 247.479 191.919 247.146 192.562 247.001C193.118 246.876 193.554 247.341 193.325 247.842C192.898 248.773 192.595 249.754 192.075 250.651C190.815 252.823 190.059 255.233 188.92 257.462C188.663 257.964 188.607 258.658 187.88 258.845C187.734 258.883 187.838 259.245 188.052 259.396C188.161 259.472 188.162 259.557 188.076 259.634C187.961 259.738 187.843 259.859 187.702 259.91C187.477 259.992 187.387 260.408 187.06 260.201C186.724 259.99 187.008 259.703 187.063 259.5C187.249 258.824 186.795 259.012 186.518 258.971L186.519 258.973Z" fill="white"/>
<path d="M74.4916 219.177C76.9692 219.909 77.0512 221.922 77.2875 223.849C77.3064 223.999 77.2372 224.093 77.1347 224.185C76.4999 224.753 76.5234 225.553 77.0639 226.19C77.4875 226.689 77.9334 226.612 78.4657 226.528C80.145 226.27 81.2335 225.141 82.341 224.005C83.8548 222.45 85.408 220.933 87.0919 219.558C87.2685 219.413 87.4747 219.304 87.7078 219.152C87.4685 218.898 87.2574 218.676 87.01 218.414C85.3953 219.988 83.5649 221.258 81.7456 222.538C81.4274 222.762 81.0902 223.236 80.6144 222.734C80.1088 222.2 79.9844 221.425 80.3545 220.95C81.5801 219.383 83.0828 218.098 84.5967 216.828C85 216.491 85.2599 216.307 84.8313 215.684C83.2059 213.315 81.6934 210.873 81.1721 207.967C80.9737 206.855 81.2619 205.838 81.8762 204.963C83.6011 202.509 85.6381 200.315 87.7946 198.235C89.8251 196.277 91.8477 194.307 93.9458 192.421C95.8049 190.751 97.7802 189.215 99.672 187.58C101.625 185.892 103.566 184.185 105.466 182.437C108.096 180.014 110.73 177.591 113.276 175.079C115.623 172.762 117.844 170.318 120.136 167.946C122.302 165.705 124.446 163.438 126.677 161.261C129.821 158.194 133.001 155.164 136.231 152.187C138.802 149.818 141.443 147.524 144.099 145.25C146.676 143.044 149.212 140.795 151.753 138.55C153.596 136.923 155.332 135.182 157.188 133.572C157.917 132.941 157.894 131.869 158.651 131.244C158.886 131.05 158.519 130.783 158.355 130.605C157.292 129.441 156.096 128.443 154.709 127.678C153.658 127.098 153.544 126.197 154.382 125.379C154.511 125.253 154.682 125.129 154.737 124.97C155.42 122.974 156.876 121.517 158.22 119.989C159.392 118.656 160.613 117.368 161.879 115.986C161.238 115.841 160.768 115.54 160.605 114.904C160.463 114.354 160.212 113.826 160.283 113.236C160.367 112.536 160.962 112.286 161.451 111.969C161.78 111.755 161.865 111.615 161.753 111.186C161.028 108.39 160.55 105.544 160.107 102.689C159.585 99.3279 158.965 95.9804 158.339 92.6346C158.278 92.302 158.287 91.9619 158.492 91.891C158.755 91.798 159.015 92.0154 159.204 92.3274C159.932 93.5341 160.143 94.8997 160.428 96.2308C161.265 100.136 161.892 104.08 162.498 108.028C162.679 109.206 162.703 110.477 163.193 111.519C163.549 112.275 163.343 112.913 163.416 113.595C163.481 114.201 163.421 114.208 162.816 113.964C162.78 114.516 162.963 114.671 163.558 114.846C164.904 115.239 166.276 115.427 167.64 115.663C170.669 116.191 173.704 116.67 176.739 117.172C178.693 117.497 180.648 117.826 182.624 118.157C182.51 118.549 182.257 118.426 182.085 118.42C179.954 118.346 177.84 118.091 175.726 117.824C174.128 117.623 172.522 117.494 170.919 117.322C168.631 117.075 166.334 116.87 164.073 116.4C163.665 116.315 163.36 116.394 163.023 116.81C161.841 118.27 160.54 119.635 159.31 121.057C158.157 122.391 156.959 123.691 155.896 125.141C156.98 125.279 157.818 125.781 158.5 126.515C158.833 126.873 158.965 126.704 159.121 126.424C159.634 125.501 159.997 125.334 160.983 125.565C162.646 125.956 164.223 126.592 165.784 127.262C171.836 129.861 177.963 132.265 184.295 134.099C185.881 134.557 187.504 134.888 189.11 135.27C189.572 135.381 190.057 135.519 190.357 135.861C190.777 136.343 191.129 136.297 191.672 136.077C195.246 134.636 198.989 133.765 202.733 132.922C206.881 131.986 211.045 131.115 215.213 130.272C218.119 129.684 221.046 129.198 223.96 128.648C224.315 128.58 224.713 128.569 224.923 128.122C225.058 127.832 225.479 127.898 225.759 127.771C225.85 127.73 225.962 127.717 226.065 127.719C228.387 127.764 228.517 127.281 229.106 129.847C229.206 130.277 229.355 130.693 229.51 131.206C230.052 130.583 230.365 129.911 230.639 129.212C231.665 126.583 233.39 124.387 235.058 122.164C236.556 120.167 238.065 118.173 239.769 116.342C240.154 115.929 240.574 115.465 241.289 115.721C242.069 116.002 242.203 116.24 241.836 117.021C241.14 118.502 240.206 119.842 239.301 121.197C237.547 123.829 235.606 126.347 234.111 129.138C233.333 130.591 232.35 131.953 231.888 133.565C231.681 134.289 231.093 134.406 230.491 134.473C230.077 134.519 229.647 134.522 229.234 134.469C228.818 134.417 228.667 134.544 228.609 134.955C228.292 137.166 228.261 139.402 227.971 141.611C227.684 143.791 227.441 145.976 227.076 148.147C226.819 149.679 226.695 151.237 226.576 152.789C226.301 156.381 226.128 159.977 226.063 163.581C226.027 165.586 225.893 167.598 225.77 169.605C225.616 172.094 225.307 174.573 225.182 177.062C225.108 178.521 224.926 179.965 224.815 181.418C224.67 183.335 224.499 185.25 224.237 187.16C223.998 188.913 223.936 190.69 223.725 192.448C223.488 194.431 223.445 196.432 223.133 198.409C223.021 199.122 223.007 199.861 222.974 200.582C222.823 203.783 222.47 206.969 222.287 210.168C222.043 214.435 221.811 218.701 221.668 222.975C221.559 226.236 221.487 229.498 221.336 232.756C221.137 237.02 221.307 241.281 221.202 245.542C221.142 247.987 221.298 250.432 221.133 252.881C221.084 253.606 221.124 254.376 221.024 255.09C220.914 255.871 220.696 256.597 220.846 257.426C220.914 257.802 220.321 258.144 219.916 258.395C217.462 259.913 214.838 261.082 212.175 262.175C209.569 263.246 206.902 264.119 204.123 264.604C203.05 264.792 201.961 264.908 200.876 264.992C200.096 265.05 199.313 265.023 198.534 265.137C197.17 265.335 195.848 264.943 194.511 264.777C193.945 264.708 193.386 264.59 192.82 264.544C192.597 264.527 192.061 264.341 192.381 264.97C192.43 265.064 192.304 265.215 192.215 265.149C191.828 264.852 191.15 265.159 190.927 264.486C190.853 264.262 190.517 264.236 190.253 264.212C189.922 264.183 189.931 264.444 189.908 264.617C189.797 265.409 189.517 266.159 189.382 266.948C189.298 267.43 189.369 267.755 189.615 268.156C190.319 269.306 190.845 270.549 191.303 271.814C191.511 272.39 191.839 272.631 192.444 272.568C192.83 272.531 193.222 272.56 193.821 272.56C193.274 272.923 193.38 273.242 193.488 273.636C193.901 275.123 194.238 276.629 194.641 278.119C194.693 278.311 194.733 278.546 194.955 278.709C196.914 280.155 198.702 281.829 200.804 283.089C202.007 283.81 203.154 284.613 204.065 285.706C204.115 285.765 204.176 285.873 204.225 285.871C205.345 285.79 205.298 286.787 205.627 287.409C205.925 287.969 205.668 288.642 205.211 288.788C203.583 289.321 202.357 290.543 200.791 291.17C198.261 292.187 195.712 292.243 193.132 291.486C192.675 291.354 191.971 291.505 191.866 290.727C191.863 290.7 191.724 290.672 191.65 290.672C190.111 290.681 188.753 289.97 187.327 289.548C184.853 288.815 182.403 288.001 179.946 287.214C178.166 286.644 176.461 285.887 174.772 285.089C174.136 284.789 174.1 284.17 173.842 283.659C173.83 283.637 173.834 283.608 173.838 283.583C173.873 283.351 175.261 282.058 175.518 282.018C176.907 281.802 176.868 281.799 176.886 280.35C176.91 278.419 177.068 276.492 177.359 274.583C177.473 273.839 177.57 273.093 177.721 272.352C177.828 271.822 178.322 271.571 178.429 271.079C178.437 271.046 178.52 270.99 178.542 271C179.16 271.287 179.768 271.1 180.387 271.003C180.554 270.976 180.757 271.244 180.959 271.065C181.141 270.9 181.1 270.684 181.003 270.484C180.054 268.549 180.68 266.568 180.828 264.601C180.896 263.714 181.103 262.856 181.349 262.003C181.45 261.655 181.359 261.395 181.019 261.23C179.938 260.707 179.262 259.697 178.367 258.993C177.192 258.069 177.591 257.095 177.709 256.044C177.828 254.982 177.791 253.914 177.909 252.848C178.218 250.058 178.465 247.262 178.703 244.465C178.926 241.85 179.315 239.252 179.52 236.634C179.686 234.517 180.035 232.414 180.261 230.3C180.458 228.46 180.579 226.614 180.763 224.774C180.941 222.994 181.201 221.222 181.345 219.44C181.49 217.631 181.803 215.847 182.028 214.051C182.266 212.154 182.584 210.267 182.871 208.377C183.162 206.46 183.455 204.544 183.75 202.629C184.033 200.784 184.336 198.941 184.599 197.092C184.909 194.911 185.187 192.728 185.481 190.546C185.736 188.653 186.012 186.761 186.25 184.864C186.485 182.99 186.67 181.109 186.902 179.234C187.118 177.486 187.36 175.74 187.598 173.995C187.833 172.278 188.091 170.564 188.31 168.845C188.536 167.072 188.791 165.3 188.907 163.518C188.983 162.348 189.043 161.172 189.1 159.999C189.115 159.659 189.139 159.312 189.093 158.977C189.019 158.43 189.591 157.718 189.207 157.437C188.526 156.94 187.627 156.741 186.82 156.417C186.675 156.358 186.568 156.412 186.481 156.526C185.168 158.271 183.361 159.489 181.772 160.938C180.346 162.237 178.897 163.512 177.441 164.777C175.315 166.626 173.169 168.455 171.034 170.296C168.569 172.426 166.121 174.577 163.642 176.689C159.441 180.271 155.521 184.151 151.646 188.076C149.331 190.423 147.004 192.761 144.735 195.153C141.25 198.828 137.645 202.383 134.055 205.952C131.075 208.915 128.079 211.861 125.067 214.793C123.103 216.704 121.084 218.558 119.117 220.465C117.332 222.197 115.584 223.964 113.823 225.719C112.22 227.318 110.615 228.915 109.032 230.533C108.609 230.966 108.295 231.165 107.726 230.681C107.385 230.391 106.828 230.24 106.364 230.23C104.311 230.188 102.512 229.293 100.672 228.573C97.257 227.237 94.3097 225.141 91.5184 222.792C90.6567 222.067 89.8864 221.25 89.0215 220.531C88.6736 220.242 88.497 220.284 88.2718 220.585C86.9359 222.368 85.0866 223.581 83.3854 224.957C83.1742 225.127 82.8955 225.161 83.1886 225.497C83.3051 225.631 83.1256 225.719 83.0436 225.799C82.8387 226.002 82.6213 226.191 82.4102 226.387C81.8778 226.875 81.131 227.078 81.1281 228.12C81.1264 228.899 80.3278 229.544 79.7716 230.142C78.8629 231.119 77.9239 232.067 76.9173 232.952C76.2006 233.584 75.3924 233.477 74.6646 233.338C73.3352 233.088 71.9741 232.978 70.7045 232.329C70.1846 232.062 69.3405 232.395 68.6518 232.5C65.8338 232.932 63.0535 233.581 60.1644 233.532C57.3809 233.486 55.0181 232.48 52.9041 230.777C51.7431 229.841 50.6579 228.814 49.8576 227.537C49.3425 226.714 49.2684 225.873 50.1599 225.267C50.2861 225.182 50.3332 224.955 50.3805 224.785C50.6122 223.94 50.7506 223.06 51.0737 222.252C51.5085 221.162 52.4723 220.506 53.5168 220.155C55.2434 219.574 57.0927 219.583 58.8885 219.364C61.1553 219.089 63.3842 218.64 65.6131 218.181C67.168 217.861 68.7135 217.51 70.32 217.603C71.0243 217.644 71.7095 217.376 72.4246 217.441C72.7506 217.469 73.1667 217.494 73.2533 217.764C73.5777 218.783 73.8519 217.964 74.0865 217.754C76.1013 215.941 78.2092 214.262 80.6682 213.074C80.7831 213.019 80.898 212.942 81.021 212.92C81.476 212.84 82.0054 212.914 82.196 213.284C82.4545 213.782 81.9094 214.057 81.5739 214.314C79.3401 216.026 77.0071 217.595 74.4978 219.167L74.4916 219.177ZM203.364 232.138C203.297 232.39 203.171 232.642 203.175 232.891C203.2 234.668 202.88 236.434 203.025 238.324C203.141 236.188 203.252 234.164 203.362 232.138C203.496 230.837 203.49 229.528 203.562 228.223C203.743 224.963 203.978 221.707 204.194 218.447C204.25 217.587 204.301 216.726 204.373 215.866C204.624 212.899 204.89 209.933 205.136 206.967C205.312 204.836 205.441 202.701 205.637 200.571C205.868 198.054 206.168 195.545 206.401 193.027C206.593 190.95 206.694 188.864 206.903 186.788C207.173 184.115 207.339 181.437 207.552 178.76C207.665 177.327 207.579 175.889 207.781 174.455C207.926 173.43 207.809 172.368 207.809 171.322L207.612 171.304C207.527 171.692 207.371 172.078 207.369 172.465C207.355 174.98 207.064 177.473 206.922 179.978C206.738 183.218 206.378 186.441 206.109 189.672C205.731 194.207 205.244 198.735 204.874 203.271C204.551 207.236 204.299 211.208 204.066 215.18C203.745 220.642 203.472 226.105 203.179 231.568C203.168 231.779 203.163 231.993 203.365 232.136L203.364 232.138ZM71.1109 223.915C70.9392 223.242 70.5925 222.704 70.0918 222.277C69.0317 221.373 67.7493 220.87 66.4937 220.328C66.2812 220.237 66.0449 220.332 65.8102 220.388C62.0705 221.3 58.3039 221.997 54.4258 221.878C52.5607 221.822 52.5245 221.899 52.266 223.718C52.2631 223.743 52.2709 223.773 52.2598 223.797C51.6374 225.16 52.0408 226.306 52.9923 227.349C54.5393 229.046 56.2405 230.519 58.4883 231.22C61.2166 232.072 63.9498 231.623 66.6765 231.24C68.2236 231.023 69.7609 230.823 71.3282 230.771C72.231 230.741 72.9037 231.292 73.737 231.387C74.4253 231.464 75.131 231.561 75.7423 231.941C75.9754 232.086 76.1076 232.051 76.1989 231.787C76.4101 231.174 76.8543 230.728 77.3064 230.293C77.8844 229.736 78.4674 229.181 79.1338 228.545C77.6214 228.397 75.5893 226.418 75.5863 225.178C75.583 224.273 75.4397 223.354 75.6871 222.456C75.728 222.309 75.6793 222.209 75.5752 222.113C75.2129 221.774 74.8836 221.392 74.4899 221.097C73.4344 220.308 72.1537 220.191 70.9094 219.99C70.6447 219.947 70.2919 219.912 70.3311 219.637C70.4257 218.971 70.1043 219.234 69.816 219.345C69.6035 219.429 69.3875 219.506 69.1277 219.604C71.4166 220.944 71.9993 222.836 71.1109 223.92V223.915ZM179.101 273.204C178.996 273.38 178.93 273.442 178.92 273.512C178.686 275.516 178.497 277.527 178.21 279.525C178.073 280.485 178.038 281.093 179.076 281.769C182.425 283.954 185.552 286.509 189.463 287.674C191.209 288.193 192.631 289.396 194.614 289.504C197.618 289.669 200.455 289.518 203.069 287.885C203.924 287.35 203.932 287.328 203.069 286.739C201.174 285.449 199.044 284.532 197.242 283.099C196.251 282.313 195.123 281.653 194.512 280.463C193.824 279.122 193.085 277.806 192.457 276.44C192.017 275.483 191.398 274.518 191.935 273.271C191.348 274.169 190.719 274.21 190.007 273.58C189.941 273.523 189.813 273.515 189.714 273.515C188.874 273.509 188.035 273.477 187.198 273.523C186.713 273.55 186.313 273.761 186.247 274.356C186.184 274.921 186.025 275.472 185.955 276.037C185.927 276.273 185.809 276.346 185.631 276.402C185.339 276.497 185.376 276.232 185.308 276.091C185.072 275.613 185.193 275.078 185.111 274.491C184.809 274.707 184.572 274.902 184.311 275.053C183.332 275.618 182.858 276.686 181.99 277.365C181.321 277.887 180.995 277.889 180.369 277.308C180.089 277.049 179.931 276.729 179.814 276.378C179.471 275.372 179.319 274.32 179.101 273.201V273.204ZM182.632 267.553C183.061 268.621 183.314 269.672 183.602 270.714C183.665 270.941 183.66 271.265 183.94 271.384C184.994 271.83 186.053 272.26 187.239 272.149C187.691 272.106 188.224 271.884 188.556 272.312C188.729 272.536 188.807 272.793 189.085 272.571C189.328 272.377 189.033 272.185 188.951 272.001C188.433 270.827 187.751 269.691 187.846 268.352C187.898 267.626 187.639 267.496 186.975 267.509C185.547 267.536 184.126 267.911 182.628 267.553H182.632ZM176.991 151.519C176.918 151.414 176.846 151.307 176.773 151.201C169.56 155.292 162.901 160.223 156.181 165.059C163.021 160.397 170.023 155.984 176.992 151.521L176.991 151.519ZM190.722 151.768C191.442 151.577 192.064 151.207 192.666 150.817C196.187 148.534 199.695 146.236 203.206 143.938C204.012 143.41 204.836 142.903 205.544 142.236C205.852 141.945 205.879 141.702 205.421 141.572C204.276 141.242 203.126 140.927 201.979 140.606C202.984 141.264 204.178 141.353 205.429 141.879C200.56 145.384 195.404 148.227 190.724 151.767L190.722 151.768ZM186.453 263.276C184.898 264.143 184.227 265.616 183.051 266.554C184.235 266.577 185.502 266.611 186.762 266.742C187.151 266.783 187.682 267.126 187.934 266.762C188.224 266.345 187.669 265.979 187.494 265.597C187.099 264.733 186.986 264.714 186.18 265.187C185.955 265.319 185.73 265.404 185.538 265.253C185.343 265.099 185.509 264.882 185.563 264.683C185.695 264.193 186.189 263.954 186.455 263.278L186.453 263.276ZM191.771 249.102C190.755 249.732 186.325 258.369 186.374 259.864C188.157 256.309 189.941 252.752 191.771 249.102ZM128.446 168.994C125.489 170.032 122.909 171.889 119.856 172.694C119.557 172.773 119.371 173.081 119.508 173.387C119.645 173.691 119.911 173.5 120.111 173.403C121.138 172.905 122.176 172.429 123.181 171.892C124.947 170.947 126.693 169.962 128.446 168.995V168.994ZM185.609 263.361C185.237 263.1 184.815 263.201 184.471 262.961C183.97 262.613 183.569 262.525 183.514 263.409C183.462 264.272 183.23 265.124 183.077 265.981C183.863 265.009 184.755 264.236 185.607 263.361H185.609ZM82.5032 220.506C83.8342 219.834 84.97 218.939 86.224 218.222C86.7358 217.931 86.2743 217.671 86.1548 217.435C86.0396 217.206 85.8728 217.141 85.63 217.389C84.6015 218.441 83.5476 219.47 82.5032 220.506ZM181.103 272.871C181.63 273.315 182.098 273.736 182.813 273.369C183.044 273.25 183.192 273.547 183.342 273.693C183.452 273.488 183.515 273.231 183.677 273.096C184.15 272.701 183.877 272.482 183.495 272.463C182.68 272.422 181.861 272.479 181.105 272.869L181.103 272.871ZM220.836 139.75C219.649 138.75 218.949 137.462 218.598 135.883C218.455 137.239 219.485 139.031 220.836 139.75Z" fill="black"/>
<path d="M161.331 33.2456C160.739 33.9907 160.287 34.7199 159.532 35.1974C158.993 35.5391 158.533 35.9533 157.828 35.6289C157.539 35.4967 157.363 35.7816 157.172 35.9566C156.643 36.4416 155.92 36.7001 155.411 36.2369C154.95 35.8165 154.425 35.2666 154.444 34.4744C154.49 32.6786 154.948 30.9661 155.477 29.2727C156.032 27.4991 156.856 25.8434 157.796 24.2445C157.862 24.1326 157.917 23.9625 158.017 23.9279C159.582 23.3687 160.34 21.8848 161.504 20.8719C163.44 19.1879 165.529 17.7103 167.613 16.2264C170.649 14.0651 173.72 11.9543 176.954 10.0955C177.764 9.63078 178.593 9.19289 179.521 8.97551C179.831 8.90303 180.048 8.70292 180.151 8.28864C180.367 7.41594 180.924 6.75591 181.833 6.49284C182.323 6.35108 182.703 5.89902 183.273 5.98565C183.309 5.99195 183.386 5.94155 183.393 5.90689C183.725 4.38992 185.117 4.64823 186.121 4.33317C187.598 3.86846 189.125 3.56129 190.621 3.15803C191.291 2.97845 191.727 2.40349 192.309 2.05851C193.824 1.15746 195.333 0.270554 197.121 0.021664C197.71 -0.0602496 198.209 0.0957198 198.734 0.395019C200.994 1.68831 202.521 3.72354 204.17 5.63906C204.737 6.29752 205.172 7.06313 206.046 7.43962C206.686 7.71529 206.71 8.47141 206.836 9.04165C207.314 11.2076 207.752 13.3846 208.107 15.5742C208.223 16.2941 208.614 16.8266 208.957 17.3779C211.367 21.2609 213.434 25.3157 215.244 29.5107C216.588 32.6234 217.791 35.7643 218.215 39.1607C218.543 41.7787 218.921 44.3921 219.329 46.999C219.819 50.1356 220.418 53.2546 220.866 56.3955C221.235 58.9694 221.542 61.5593 221.522 64.1711C221.506 66.1859 222.249 68.0068 222.946 69.8404C224.193 73.12 225.43 76.4045 226.682 79.6827C228.651 84.8401 230.846 89.9014 233.122 94.9295C234.858 98.7655 236.688 102.554 238.561 106.322C239.507 108.222 240.633 110.03 241.661 111.889C242.087 112.656 242.511 113.437 242.147 114.37C242.104 114.479 242.103 114.71 241.953 114.557C241.602 114.2 241.413 114.622 241.253 114.721C240.546 115.17 240.215 115.161 239.689 114.475C238.221 112.56 237.065 110.449 235.921 108.335C233.177 103.261 230.737 98.0376 228.376 92.7779C226.274 88.0977 224.332 83.353 222.73 78.4761C221.692 75.3144 220.583 72.1702 219.891 68.9079C219.654 67.7878 219.392 66.6914 219.943 65.5007C220.203 64.9397 219.863 64.0908 219.768 63.374C219.466 61.0788 219.176 58.7804 218.838 56.4901C218.518 54.332 218.111 52.1866 217.795 50.0269C217.432 47.5522 217.117 45.0694 216.799 42.5885C216.535 40.5218 216.3 38.4534 216.043 36.3851C215.985 35.9187 215.91 35.4337 215.92 34.9846C215.956 33.0517 214.882 31.5095 214.176 29.8586C212.847 26.7507 211.32 23.7309 209.6 20.8151C209.365 20.4182 209.134 20.0181 208.877 19.5786C208.641 19.8133 208.417 20.1661 208.111 20.1142C207.735 20.0496 207.735 19.6101 207.639 19.2966C206.896 16.8565 205.821 14.5582 204.621 12.3166C204.115 11.3715 204.553 10.305 204.216 9.32832C204.082 8.94239 203.877 8.47925 204.252 8.06812C204.388 7.92004 204.222 7.83025 204.139 7.76252C202.132 6.15103 200.445 4.15678 198.189 2.83513C197.452 2.40351 196.774 2.31686 195.99 2.62246C192.98 3.79446 189.919 4.84039 187 6.24393C186.775 6.35265 186.543 6.44717 186.326 6.54486C186.431 6.98434 187.282 7.08514 186.905 7.67114C186.551 8.21934 186.085 7.64599 185.669 7.61293C184.736 7.53887 183.81 7.43016 182.876 7.58767C182.364 7.67433 182.091 7.9311 181.991 8.473C181.583 10.6689 181.271 12.8727 181.211 15.1079C181.206 15.3143 181.152 15.5033 180.979 15.738C184.254 14.9315 187.316 15.204 190.259 16.6013C191.118 17.0077 192.11 16.9872 192.917 17.5921C193.876 18.3089 194.482 19.1863 194.484 20.3804C194.484 20.8356 194.61 21.0357 194.982 21.2704C197.269 22.7117 199.224 24.4619 200.005 27.176C200.358 28.4016 200.645 29.6507 200.284 30.9425C200.221 31.1661 200.284 31.3868 200.397 31.6168C200.887 32.6107 200.796 33.6219 200.438 34.6396C200.122 35.5391 199.856 36.4559 199.537 37.3554C199.407 37.7256 199.506 37.9019 199.848 38.0768C200.81 38.5651 201.028 39.1591 200.78 40.2476C200.42 41.8276 199.637 43.1822 198.613 44.4078C198.369 44.7009 198.345 44.8647 198.572 45.2032C200.045 47.3946 200.172 49.6614 199.139 52.1234C198.455 53.7537 197.83 55.3843 196.793 56.8318C194.651 59.8232 191.746 60.9007 188.134 60.5543C185.621 60.3131 183.206 59.7037 180.775 59.1097C179.803 58.8718 178.769 59.1381 177.873 59.4753C176.888 59.8454 175.934 60.3464 174.844 60.8047C175.113 60.9545 175.281 61.041 175.442 61.1402C175.606 61.2411 175.735 61.3749 175.688 61.5877C175.642 61.7972 175.477 61.8524 175.285 61.8932C174.273 62.1089 173.275 62.2225 172.358 61.5782C171.933 61.2789 171.565 61.4317 171.361 61.808C170.882 62.6919 170.041 63.0068 169.185 63.3172C163.64 65.3304 157.979 66.9513 152.25 68.3439C150.923 68.6668 149.572 68.8906 148.091 69.1883C150.594 70.6705 153.217 71.6914 155.559 73.2258C154.794 73.5078 154.181 73.0887 153.573 72.8556C149.795 71.4094 145.983 70.0357 142.483 67.9579C142.159 67.7659 141.812 67.6997 141.435 67.7216C141.177 67.7375 140.966 67.7832 140.919 68.0793C140.867 68.4021 141.166 68.3802 141.327 68.451C143.003 69.1834 144.698 69.8734 146.475 70.8597C145.701 70.929 145.246 70.5461 144.773 70.3493C139.818 68.281 134.706 66.649 129.644 64.8783C127.264 64.0467 124.92 63.1093 122.567 62.2019C121.193 61.6726 119.782 61.2332 118.468 60.5559C118.224 60.4299 118.013 60.4345 117.83 60.633C117.438 61.0583 116.701 61.1291 116.608 61.8775C116.579 62.1011 116.346 61.9183 116.212 61.9026C114.677 61.7169 113.141 61.5198 111.655 61.0331C111.433 63.2937 110.945 65.491 110.466 67.6918C110.334 68.3012 110.179 68.9188 110.329 69.5585C110.409 69.8986 109.965 69.6782 109.905 69.9916C110.617 70.4469 111.488 70.3839 112.29 70.5494C112.896 70.6754 113.514 70.8738 114.111 70.9006C116.368 71.0014 117.715 72.6869 119.339 73.8306C124.287 77.3135 129.189 80.8624 133.929 84.6289C135.095 85.5552 136.217 86.5366 137.338 87.5148C137.749 87.8742 138.12 88.0158 138.721 87.978C142.269 87.756 145.796 87.8833 149.257 88.8523C151.35 89.4382 153.533 89.6272 155.628 90.2229C155.991 90.3251 156.172 90.2085 156.194 89.7549C156.243 88.7437 156.404 87.7387 156.476 86.7272C156.507 86.2925 156.769 85.8688 157.076 85.987C157.468 86.1381 158.091 85.9521 158.264 86.5412C158.839 88.4819 159.792 90.2653 160.57 92.1192C160.616 92.2279 160.576 92.3745 160.576 92.5713C159.386 92.2563 159.343 91.0261 158.615 90.341C158.563 90.4732 158.467 90.6149 158.458 90.7614C158.393 91.8137 157.746 92.2185 156.824 91.631C156.095 91.1648 155.301 91.1191 154.534 91.0529C151.542 90.7898 148.589 90.3029 145.627 89.8146C143.953 89.5391 142.234 89.246 140.504 89.5596C139.72 89.7013 138.942 89.4807 138.168 89.3971C137.66 89.3423 137.222 89.1641 137.026 88.4552C136.903 88.0093 136.13 87.7417 135.648 87.3951C131.316 84.2744 126.699 81.5856 122.299 78.5691C119.894 76.9196 117.493 75.2625 115.403 73.2068C115.348 73.1517 115.251 73.1233 115.22 73.0603C114.612 71.822 113.585 71.7244 112.337 71.7763C111.195 71.8236 110.037 71.5922 108.875 71.5984C108.53 71.6 108.231 71.3588 108.15 70.9195C108.032 70.2611 107.829 69.6182 107.696 68.9631C107.632 68.6432 107.586 68.514 107.205 68.6716C105.97 69.1805 105.559 69.0607 105.031 67.8067C104.65 66.901 104.043 66.3732 103.183 65.9982C101.829 65.4077 100.467 64.7964 99.2624 63.941C98.3032 63.2604 97.5486 62.3169 96.5831 61.6174C96.2854 61.4016 96.1986 60.9685 96.1686 60.5573C96.1499 60.3164 96.0961 59.9479 95.6489 60.3023C94.3193 61.3514 92.5786 60.8031 91.8778 59.1035C90.994 59.9116 89.9338 60.3258 88.7902 60.5559C88.639 60.5857 88.4736 60.663 88.3365 60.6297C86.6288 60.2234 85.1591 60.9858 83.658 61.575C83.0105 61.8286 82.341 62.057 81.7408 62.3988C80.2681 63.2415 79.1826 62.6713 77.9508 61.742C75.5596 59.9368 73.5386 57.6984 71.1015 55.9183C71.9791 56.3468 72.8943 56.7107 73.7243 57.2179C75.7029 58.4292 77.7255 59.5964 79.318 61.3308C79.6914 61.7372 80.0442 61.4995 80.3879 61.4C80.8194 61.274 80.4917 60.9828 80.4522 60.7655C80.1232 58.9537 80.161 58.9018 81.9425 58.2748C83.0137 57.8985 84.0519 57.3991 85.2332 57.4889C85.4143 57.5029 85.5011 57.3407 85.6382 57.2839C85.9516 57.1563 86.2933 56.8681 86.5959 57.2793C86.8668 57.6478 86.8354 58.0685 86.6448 58.4527C86.5658 58.612 86.3406 58.8877 86.1562 58.6482C85.4427 57.7189 84.6316 58.4971 83.8959 58.53C83.1697 58.5617 82.4592 58.9145 81.7408 59.1176C81.4148 59.209 81.2241 59.3255 81.3691 59.7335C81.4967 60.0941 81.5218 60.4929 81.5975 60.9071C83.1903 60.1306 84.7795 59.3287 86.555 59.1538C87.3991 59.0719 87.4984 58.8199 87.4056 58.0212C87.1204 55.5687 88.4641 54.1241 90.0536 53.4736C90.7971 53.1694 91.5815 53.0921 92.5299 53.1835C91.243 52.0871 90.085 51.0413 88.9981 49.9196C87.7157 48.5964 86.555 47.1961 85.9453 45.4192C85.775 44.9245 85.2932 44.8709 84.8898 44.7512C84.6708 44.6865 84.5337 44.7544 84.63 45.101C85.0158 46.4856 85.6744 47.7947 85.8161 49.2501C85.8475 49.5794 86.054 49.3826 86.2179 49.3526C86.6745 49.2707 87.1142 49.0674 87.5946 49.1447C87.7347 49.1666 87.9269 49.0722 87.9837 49.2912C88.0277 49.4613 87.9363 49.6078 87.8152 49.7087C87.4259 50.0331 86.9581 50.1859 86.4715 50.3024C86.1249 50.3843 85.8475 50.4836 86.0289 50.9797C86.2382 51.5531 86.1327 52.1772 86.0903 52.7741C86.0681 53.0797 85.9343 53.3127 86.2287 53.6042C86.5375 53.9113 86.117 54.0327 85.9248 54.146C84.206 55.162 82.4797 56.164 80.7548 57.1706C80.4571 57.3453 80.0899 57.4069 80.1059 57.9187C80.1167 58.297 79.786 58.2983 79.4616 58.2197C76.7062 57.5535 74.1072 56.5107 71.7285 54.9636C71.278 54.6708 71.0652 54.6754 70.9284 55.1999C70.9219 55.225 70.9 55.244 70.8906 55.2694C70.7202 55.6882 70.6164 56.3674 70.0524 56.1546C69.6869 56.0175 69.8856 55.367 70.0635 54.9652C70.2747 54.4926 70.4999 54.0232 70.7613 53.5774C71.2686 52.7174 71.9837 53.1426 72.6107 53.3584C73.4139 53.6342 74.1875 53.9965 75.0554 54.3555C74.8634 53.1821 74.6758 52.0574 74.5468 50.9248C74.4757 50.2946 74.5057 49.6724 74.4678 49.0471C74.4476 48.6942 74.5214 48.3649 74.1466 48.0702C73.8079 47.8055 74.0207 47.5095 74.4032 47.4151C75.4744 47.1534 76.6433 47.7474 77.171 48.7351C77.4073 49.1809 77.4625 49.7195 77.9302 50.1826C77.9302 49.6535 77.9302 49.2217 77.9302 48.7918C77.9335 47.549 78.7384 46.6478 79.9483 46.4542C80.5074 46.3642 80.8667 46.5424 81.0635 47.0417C81.7062 48.6688 82.3632 50.2897 82.9445 51.9392C83.0721 52.2999 83.1459 52.3156 83.4563 52.2307C84.7041 51.8919 84.6411 51.906 84.5637 50.838C84.4221 48.8862 83.7321 47.0558 83.4106 45.1451C83.3901 45.0221 83.2814 44.8882 83.3114 44.789C83.439 44.367 83.7305 43.9241 84.1495 43.9776C84.8725 44.0706 84.7322 43.1176 85.3562 43.1492C85.9264 43.1776 86.3233 43.3901 86.6494 43.8706C88.4563 46.5361 90.2772 49.1904 92.1125 51.8351C92.5567 52.4748 93.0591 53.0751 93.5695 53.6642C93.749 53.8705 93.9256 54.1003 93.938 54.332C93.9618 54.7778 94.1965 54.7919 94.5399 54.8125C95.6976 54.8787 97.2052 56.0113 97.4588 56.9516C97.5267 57.2006 97.5094 57.4432 97.514 57.7581C97.8952 56.5025 98.8293 56.8367 99.6691 56.9295C99.7713 56.9405 99.9178 57.0022 99.9367 56.8997C100.129 55.8318 101.084 55.5544 101.838 55.5024C102.824 55.4362 103.656 56.1419 104.207 56.9595C104.721 57.7187 105.384 58.1394 106.228 58.4165C107.016 58.6766 107.766 59.0516 108.535 59.3712C108.706 59.4436 108.861 59.6532 109.056 59.3539C109.552 58.5979 110.05 58.423 110.949 58.6861C112.433 59.1208 113.916 59.5602 115.385 60.0344C115.68 60.129 115.833 60.0974 116.064 59.9084C116.91 59.2154 117.767 59.1097 118.852 59.5572C123.763 61.5782 128.647 63.6638 133.679 65.3839C135.675 66.0661 137.615 66.9088 139.584 67.6807C139.537 66.4205 141.62 65.8046 142.57 66.2962C143.447 66.7498 144.353 67.153 145.221 67.6256C145.539 67.7989 145.766 67.8586 146.145 67.7454C148.806 66.9483 151.482 66.1999 154.189 65.4267C153.762 64.9178 153.285 64.4374 152.91 63.8845C151.798 62.2444 151.229 60.4535 151.623 58.456C151.758 57.7692 152.101 57.1768 152.766 56.8619C153.14 56.6853 153.31 56.383 153.319 56.0191C153.354 54.6313 154.297 53.891 155.329 53.2735C156.254 52.719 157.265 52.3234 158.339 52.1298C158.724 52.0604 158.869 51.9438 158.59 51.5453C157.804 50.4254 157.273 49.1842 157.166 47.812C157.092 46.8747 157.322 45.9611 157.717 45.1072C157.944 44.6173 157.911 44.3213 157.413 43.9763C156.237 43.1603 155.956 41.5738 156.722 40.3122C157.563 38.9258 158.754 37.8689 160.099 36.9978C160.633 36.6511 160.964 36.3456 160.937 35.6099C160.91 34.8602 161.17 34.101 161.325 33.2361L161.331 33.2456ZM196.146 46.076C197.401 44.3605 198.265 42.4168 198.822 40.3406C198.939 39.9072 198.991 39.3765 198.405 39.052C197.497 38.5494 197.404 38.1479 197.726 37.1129C198.069 36.0055 198.54 34.9405 198.756 33.789C198.879 33.1323 198.94 32.565 198.395 32.0673C198.186 31.875 198.12 31.5947 198.053 31.3065C197.926 30.7408 197.98 30.1628 197.883 29.605C197.445 27.0296 196.327 24.8069 194.383 23.0189C193.906 22.5794 193.394 22.1588 193.06 21.5791C192.972 21.4247 192.757 21.2594 192.934 21.105C193.276 20.8057 193.033 20.5584 192.923 20.2985C192.431 19.1454 191.587 18.3325 190.486 17.7623C190.262 17.6457 189.945 17.619 189.859 17.3339C189.733 16.9211 189.409 16.9337 189.076 16.8659C187.583 16.5603 186.08 16.6674 184.577 16.7163C183.745 16.7431 182.948 16.94 182.157 17.1826C181.705 17.3228 181.436 17.537 181.528 18.0695C181.586 18.4129 181.43 18.8051 181.055 18.6964C180.565 18.5547 180.07 18.5845 179.588 18.531C177.816 18.3341 176.06 18.5074 174.447 19.3202C172.955 20.0716 171.747 21.2404 170.419 22.236C168.873 23.3938 168.207 25.2464 166.893 26.5948C166.621 26.8736 166.666 27.7478 166.893 28.1702C167.516 29.3325 167.098 30.4004 166.824 31.4876C166.558 32.5445 165.849 33.4378 165.531 34.4538C165.227 35.4288 164.787 36.2794 163.929 36.7063C163.128 37.1035 162.681 37.7396 162.174 38.3745C161.978 38.6186 161.788 38.866 161.588 39.1039C160.832 40.0002 160.074 40.8965 159.512 41.9331C159.028 42.8248 159.045 43.3996 159.653 43.7919C160.238 44.1685 160.222 44.5984 159.948 45.1245C159.699 45.605 159.408 46.0698 159.212 46.5708C158.757 47.7409 158.705 48.9492 159.077 50.1513C159.373 51.1089 159.675 52.0682 160.854 52.3583C161.11 52.4213 161.322 52.7363 161.292 53.0937C161.257 53.5017 160.984 53.6215 160.638 53.7239C160.022 53.9051 159.414 54.113 158.815 54.3461C157.553 54.8376 156.358 55.4346 155.572 56.6129C155.383 56.8965 155.206 57.1847 155.498 57.5062C155.783 57.8195 155.86 58.297 155.547 58.4606C155.186 58.6482 154.609 58.9948 154.248 58.4151C154.028 58.0607 153.894 58.1283 153.672 58.3551C153.381 58.6544 153.157 58.971 153.02 59.3917C152.728 60.2848 152.911 61.1513 153.105 62.0002C153.231 62.5532 153.182 63.2699 153.702 63.5992C154.124 63.8669 154.477 64.1567 154.668 64.5774C154.956 65.2155 155.399 65.1368 155.914 64.9824C157.246 64.579 158.571 64.141 159.919 63.796C163.929 62.7722 167.763 61.211 171.679 59.9084C173.533 59.2925 175.387 58.6214 177.219 57.9204C178.163 57.5597 179.127 57.6305 180.078 57.484C180.714 57.3864 181.293 57.0273 181.954 57.0068C182.263 56.9973 182.328 56.857 182.29 56.5469C182.118 55.0834 181.784 53.6453 181.682 52.1707C181.628 51.4082 181.431 50.8742 180.551 50.4016C178.768 49.444 177.054 48.2641 175.858 46.5267C175.762 46.3864 175.719 46.2176 175.502 46.1468C174.847 45.9327 174.206 45.6712 173.583 45.4366C173.323 46.3234 172.993 47.122 172.162 47.5963C171.931 47.7285 171.595 47.9048 171.621 47.4465C171.676 46.4634 171.74 45.4539 172.693 44.786C172.213 44.3875 171.739 43.9952 171.252 43.5918C170.809 44.5135 170.209 45.2048 169.426 45.7642C168.58 46.3691 167.745 46.9706 166.758 47.3378C166.315 47.5016 166.038 47.2999 165.81 47.0163C165.553 46.6967 165.948 46.5659 166.093 46.4037C167.137 45.2349 168.16 44.0423 169.275 42.9443C169.837 42.3914 170.019 41.9928 169.705 41.1817C168.801 38.8441 169.976 37.2151 172.462 37.1821C172.637 37.1805 172.813 37.1586 173.008 37.1459C172.77 36.3159 172.534 35.528 172.325 34.7326C172.248 34.4365 172.123 34.386 171.863 34.5231C171.258 34.8413 170.63 34.9183 169.885 34.7293C171.106 33.6865 172.252 32.7099 173.396 31.7285C175.144 30.2258 176.77 28.6017 178.218 26.8042C179.068 25.7488 179.749 24.58 180.467 23.4364C181.102 22.4251 181.48 22.4203 182.257 23.3025C182.306 23.3576 182.402 23.3671 182.462 23.4159C183.341 24.1453 184.355 24.454 185.491 24.4335C186.434 24.4178 187.496 24.1752 187.798 25.5488C187.841 25.7442 188.099 25.9064 188.284 26.0513C189.569 27.0627 190.883 28.0298 192.398 28.682C192.612 28.775 192.831 28.9323 193.061 28.838C193.925 28.4851 194.074 29.101 194.24 29.6869C194.849 31.8467 195.429 34.0142 196.066 36.1661C196.43 37.3979 196.935 38.5935 196.968 39.9026C197.008 41.5329 196.601 43.0846 196.037 44.5938C195.84 45.1199 195.661 45.5923 196.148 46.0744L196.146 46.076ZM194.574 48.3617C194.339 48.6248 194.312 49.0203 193.918 48.9257C193.778 48.8911 193.811 48.7021 193.835 48.5807C194.38 45.7042 194.791 42.8088 195.108 39.8977C195.164 39.3781 195.101 38.9685 194.944 38.4959C194.413 36.9047 193.847 35.325 193.64 33.6408C193.485 32.3823 193.22 31.1377 193.05 29.8808C193.001 29.5217 192.846 29.3703 192.534 29.32C190.084 28.9245 188.019 27.8376 186.411 25.9269C186.208 25.6859 186.008 25.6481 185.681 25.667C184.383 25.7426 183.082 25.7252 181.894 25.0715C181.656 24.9407 181.491 24.9502 181.315 25.1881C180.606 26.1521 179.913 27.1303 179.155 28.055C177.595 29.9595 175.921 31.7585 173.944 33.2423C173.049 33.9134 173.04 33.8898 173.509 34.8713C173.709 35.2901 173.9 35.714 174.069 36.1472C174.53 37.3317 174.913 38.5399 174.881 39.8285C174.877 40.0492 174.888 40.4144 174.57 40.4682C174.245 40.5231 173.996 40.2682 173.955 39.9797C173.809 38.9463 173.076 38.9969 172.347 39.082C171.682 39.1591 171.058 39.4078 170.749 40.0413C170.48 40.5926 170.77 41.073 171.102 41.5424C171.939 42.7255 172.996 43.7021 174.031 44.696C174.579 45.2221 175.187 45.6902 176.041 45.2395C176.192 45.1592 176.512 45.1105 176.614 45.3198C176.909 45.9248 177.444 46.3155 177.929 46.6951C179.78 48.1427 181.242 50.1621 183.81 50.742C182.922 50.7545 183.018 51.1892 183.246 51.7013C183.285 51.7894 183.246 51.9108 183.265 52.0133C183.523 53.4955 183.399 54.9904 183.415 56.4806C183.419 56.9013 183.44 57.1201 183.983 57.2509C185.907 57.7108 187.819 58.218 189.793 58.393C191.385 58.5333 192.991 58.5914 194.385 57.5737C195.004 57.1217 195.521 56.6523 195.401 55.726C195.087 53.3065 194.851 50.8775 194.574 48.3633V48.3617ZM155.64 34.479C156.925 33.4819 157.947 32.2357 159.004 31.0245C159.192 30.8087 159.3 30.7062 158.993 30.3991C158.688 30.0936 158.872 29.605 159.326 29.4114C159.679 29.2616 160.063 29.1673 160.442 29.0978C161.282 28.9434 162.128 28.8145 162.973 28.6852C163.253 28.6428 163.521 28.7166 163.612 29.0097C163.688 29.2538 163.465 29.3798 163.284 29.4696C163.05 29.5864 163.004 29.7721 162.917 30.0052C162.701 30.5819 162.857 31.0985 162.93 31.6671C163.057 32.6688 162.983 33.6927 162.686 34.6807C162.635 34.8459 162.546 35.2209 162.88 35.0587C163.484 34.7656 164.275 34.6996 164.415 33.7433C164.563 32.7289 165.008 31.7553 165.116 30.7408C165.227 29.731 165.871 28.7877 165.48 27.7116C165.071 26.5885 165.25 26.1285 166.63 25.2794C166.942 25.0873 167.133 24.9282 167.221 24.547C168.046 20.9884 170.608 18.9894 173.805 17.9025C175.592 17.296 177.521 16.7242 179.514 17.0219C179.757 17.0582 180.461 16.0705 180.381 15.8468C180.108 15.0875 180.045 14.2952 179.935 13.5012C179.788 12.4505 179.847 11.3935 179.774 10.2766C177.337 11.7747 174.954 13.1673 172.648 14.6764C169.18 16.9447 165.783 19.3218 162.506 21.8548C160.986 23.0299 159.307 24.0413 158.532 26.0608C157.472 28.8239 156.306 31.5411 155.641 34.4757L155.64 34.479ZM196.656 55.1228C197.961 54.0752 198.112 52.5803 198.525 51.2587C199.107 49.3967 198.447 47.6214 197.721 45.9027C197.609 45.638 197.466 45.7532 197.296 45.8635C197.034 46.0319 196.766 46.2131 196.474 46.3093C196.154 46.4131 196.149 46.6164 196.203 46.859C196.544 48.4201 196.651 50.0047 196.655 51.5972C196.656 52.7409 196.655 53.8829 196.655 55.1245L196.656 55.1228ZM78.9227 48.7083C78.9227 49.6914 78.866 50.679 78.9463 51.654C78.989 52.1769 78.9227 52.7095 79.0882 53.2357C79.2442 53.7302 79.3859 53.9083 79.8899 53.565C80.3106 53.2781 80.791 53.0607 81.2714 52.8828C81.6843 52.7301 81.6938 52.5835 81.4431 52.2591C80.5769 51.1311 79.882 49.9006 79.3624 48.5745C79.3072 48.4358 79.411 48.1316 79.0898 48.2641C78.9133 48.3365 78.6802 48.4231 78.9227 48.7067V48.7083ZM79.6695 55.211C80.0175 55.3148 80.2035 55.2945 80.4176 55.2267C81.9898 54.7322 83.3444 53.7034 84.978 53.3522C85.052 53.3365 85.3073 53.3379 85.2397 53.078C85.1402 52.6984 84.4378 52.2842 84.0849 52.47C82.5806 53.2559 81.0887 54.0657 79.6711 55.2126L79.6695 55.211ZM75.4163 50.0677C75.4288 50.2189 75.4288 50.3732 75.4571 50.5214C75.7535 52.0763 76.5078 53.516 76.6103 55.1228C76.6324 55.4584 77.045 55.3983 77.2324 55.5873C77.3505 55.7055 77.5601 55.7214 77.5995 55.5119C77.6485 55.255 78.0722 55.1512 77.831 54.77C76.8939 53.2859 76.2731 51.6415 75.4163 50.0661V50.0677ZM92.6984 54.2155C91.7407 54.1271 90.898 54.1682 90.1826 54.8454C90.4378 54.9795 90.6301 55.1196 90.8445 55.1875C91.369 55.351 91.791 56.194 92.1801 55.9215C92.5502 55.6614 92.5299 54.8471 92.6984 54.2155ZM91.8367 56.6383C91.1719 56.4539 90.4884 56.32 89.8503 56.0678C89.3274 55.8599 89.11 55.9969 89.0186 56.5042C89.7103 56.5815 89.8141 56.6256 90.3324 57.0603C91.1546 57.7519 91.3344 57.7014 91.8351 56.6383H91.8367ZM90.4662 58.1867C89.7638 57.9882 89.0405 57.8936 88.8391 56.8178V59.0151C89.4234 58.801 89.9858 58.6796 90.4662 58.1851V58.1867ZM105.475 61.1105C105.263 60.6598 105.083 60.2345 104.863 59.8281C104.726 59.5745 104.557 59.8043 104.404 59.8549C104.174 59.9303 104.256 60.0533 104.329 60.2077C104.48 60.5305 104.596 60.8693 104.749 61.1921C104.825 61.353 104.943 61.5358 105.162 61.353C105.267 61.2648 105.496 61.3057 105.475 61.1118V61.1105ZM93.4435 57.1422C93.9791 57.0352 94.2311 56.6112 94.7021 56.6918C94.9779 56.7388 94.9165 56.4774 94.9243 56.3041C94.9338 56.1151 94.9384 55.9718 94.6786 55.915C93.7017 55.7025 93.768 56.512 93.4419 57.1406L93.4435 57.1422ZM106.912 66.5544C106.796 66.241 107.055 65.7038 106.417 65.6895C105.904 65.677 106.176 66.0912 106.121 66.3164C106.013 66.7528 106.217 67.0129 106.647 67.0586C107.099 67.1057 106.808 66.7325 106.912 66.556V66.5544ZM106.373 63.5408C106.18 62.9801 106.258 62.4918 105.845 62.3044C105.716 62.246 105.247 62.4888 105.386 62.7705C105.537 63.0763 105.389 63.6795 106.031 63.6354C106.216 63.6227 106.419 63.6403 106.373 63.5395V63.5408ZM160.076 31.8153L160.227 31.971C160.702 31.3724 161.18 30.7738 161.663 30.1674C160.394 30.0855 160.49 31.1723 160.076 31.8153ZM103.991 58.1899C103.801 58.3221 103.555 58.4357 103.629 58.6087C103.738 58.8623 103.752 59.2452 104.117 59.2892C104.204 59.3003 104.576 59.3114 104.483 59.0356C104.381 58.7347 104.163 58.4716 103.991 58.1883V58.1899ZM97.3361 60.1179C97.8462 59.9068 97.9787 59.4658 98.0812 59.0089C98.1047 58.905 98.0747 58.801 97.9614 58.7507C97.8338 58.6939 97.7503 58.7804 97.7108 58.8688C97.5407 59.2609 97.2398 59.6186 97.3344 60.1163L97.3361 60.1179Z" fill="black"/>
<path d="M180.458 98.0769C180.5 98.0077 180.518 97.9574 180.552 97.9257C181.094 97.4342 181.501 96.5033 182.121 96.4828C182.71 96.4638 183.325 97.1917 183.925 97.5934C186.278 99.1686 188.886 100.087 191.647 100.643C193.586 101.032 195.558 101.116 197.49 100.914C202.433 100.396 206.661 98.5008 209.232 93.9497C210.667 91.409 211.078 88.6664 210.689 85.7615C210.145 81.7005 208.283 78.3674 205.274 75.6594C203.189 73.7833 200.777 72.4301 198.124 71.5024C197.787 71.3843 197.184 71.4489 197.253 70.8676C197.321 70.2974 198.105 69.801 198.682 69.9508C199.504 70.1633 200.325 70.4201 201.108 70.7508C203.838 71.9056 206.294 73.4888 208.286 75.7037C210.637 78.3168 212.392 81.2909 212.677 84.8479C213.174 91.0435 210.905 96.0102 205.629 99.4617C203.559 100.815 201.35 101.906 198.94 102.5C195.804 103.274 192.66 103.315 189.497 102.547C186.455 101.81 183.656 100.591 181.159 98.696C180.91 98.507 180.689 98.2818 180.46 98.0769H180.458Z" fill="black"/>
<path d="M205.796 89.6115C205.887 90.878 205.298 91.8215 204.298 92.5004C201.302 94.5326 198.047 95.985 194.446 96.4922C192.655 96.7442 190.894 96.3992 189.454 95.2163C187.726 93.7969 187.794 92.1098 189.112 90.1612C190.007 88.838 191.434 88.1607 192.847 87.603C195.073 86.724 197.349 85.9615 199.69 85.4324C201.382 85.048 204.674 86.1649 205.539 88.1669C205.745 88.6458 205.79 89.1138 205.798 89.6132L205.796 89.6115ZM201.728 92.6218C197.601 91.034 193.797 92.1933 189.958 93.7874C190.242 94.2333 190.527 94.372 190.812 94.4885C192.074 95.0006 193.339 95.1722 194.736 95.0068C197.248 94.7105 199.512 93.7907 201.728 92.6218ZM192.66 91.6404C193.047 91.4436 193.788 91.6972 194.12 91.1175C194.421 90.5943 194.604 89.9817 194.726 89.3847C194.842 88.8223 194.468 88.5939 193.915 88.8364C193.372 89.0759 192.835 89.3295 192.309 89.6053C192.02 89.7565 191.431 89.717 191.871 90.3929C192.03 90.6371 191.674 91.1567 192.02 91.516C192.168 91.6688 192.329 91.6907 192.658 91.6388L192.66 91.6404ZM198.849 88.712C198.887 87.2753 198.621 87.0833 197.362 87.5227C197.145 87.5984 196.905 87.633 196.708 87.7417C196.318 87.959 195.555 87.9496 195.569 88.3103C195.587 88.7545 196.16 89.1324 196.587 89.4177C197.113 89.7689 197.71 89.9438 198.346 89.654C198.808 89.4428 198.828 89.0254 198.849 88.7136V88.712Z" fill="black"/>
<path d="M180.863 76.8268C180.754 76.8268 180.721 76.836 180.703 76.8268C179.155 75.8281 179.149 75.8232 178.101 77.4C176.246 80.1929 175.693 83.2443 176.162 86.5523C176.627 89.8225 178.208 92.4659 180.409 94.8273C180.85 95.3015 181.171 95.2526 181.584 94.8351C182.553 93.8583 183.519 92.8739 184.749 91.9224C184.561 92.4123 184.339 92.6849 184.097 92.9401C182.888 94.2098 181.735 95.5392 180.455 96.7318C176.469 100.448 172.709 104.389 168.832 108.214C168.572 108.47 168.281 108.696 167.991 108.92C167.879 109.005 167.73 109.151 167.585 108.987C167.451 108.838 167.577 108.704 167.663 108.571C168.007 108.05 168.391 107.56 168.834 107.118C172.112 103.836 175.356 100.519 178.764 97.3728C179.149 97.0184 179.133 96.8245 178.796 96.4592C176.939 94.4461 175.603 92.1036 174.796 89.5029C173.33 84.78 174.319 80.4465 177.131 76.4737C178.142 75.0435 178.18 75.0497 176.665 74.174C173.568 72.3844 170.732 70.2138 167.841 68.1266C167.799 68.0966 167.745 68.076 167.712 68.0384C167.482 67.7754 167.073 67.4555 167.311 67.1497C167.534 66.8631 167.949 67.2127 168.186 67.386C171.422 69.752 174.651 72.1278 177.852 74.5409C178.29 74.8718 178.506 74.7899 178.826 74.4589C181.212 71.9921 184.138 70.4515 187.408 69.516C187.433 69.5079 187.455 69.4893 187.48 69.4844C188.02 69.393 188.763 69.5458 189.03 69.0859C189.271 68.673 189.078 68.013 189.097 67.4634C189.118 66.8412 189.037 66.2172 189.234 65.5981C189.353 65.2233 189.489 65.2642 189.79 65.3699C190.7 65.6911 191.092 66.304 190.985 67.26C190.927 67.7767 191.069 68.3029 190.887 68.8179C190.735 69.2527 191.102 69.1426 191.294 69.1394C191.899 69.1283 192.488 69.1662 193.057 69.4057C193.306 69.5111 193.597 69.612 193.6 69.8986C193.607 70.2609 193.225 70.0941 193.047 70.1427C192.477 70.2971 191.883 70.3777 191.295 70.4501C190.717 70.521 190.435 70.7919 190.338 71.3935C190.191 72.2852 189.883 73.1422 189.508 73.966C189.407 74.188 189.386 74.5852 188.934 74.4119C188.596 74.2826 188.378 74.0574 188.479 73.6997C188.69 72.9484 188.692 72.1624 188.874 71.4124C188.985 70.9574 188.874 70.8014 188.451 70.8911C185.242 71.5733 182.28 72.7467 179.94 75.1678C179.498 75.6248 179.486 75.8722 180.089 76.1604C180.371 76.2942 180.705 76.4456 180.866 76.8298L180.863 76.8268Z" fill="black"/>
<path d="M213.125 120.001C212.588 120.274 212.015 120.214 211.497 120.124C210.4 119.935 209.305 120.011 208.209 120.005C205.036 119.989 201.862 120.061 198.691 119.981C195.635 119.904 192.579 119.713 189.641 118.732C189.3 118.619 188.953 118.488 188.649 118.3C188.476 118.193 188.23 118.043 188.315 117.741C188.405 117.423 188.673 117.462 188.895 117.486C189.797 117.58 190.716 117.618 191.591 117.826C192.441 118.028 193.302 118.004 194.147 118.072C196.201 118.237 198.271 118.283 200.333 118.248C202.848 118.207 205.356 118.382 207.864 118.459C209.271 118.502 210.706 118.609 212.081 119.042C212.593 119.203 212.946 119.467 213.124 120L213.125 120.001Z" fill="black"/>
<path d="M216.756 104.066C216.033 97.521 214.929 91.0467 214.187 84.5283C213.45 78.0524 212.026 71.6947 210.964 65.2644C211.506 65.477 211.61 65.9433 211.749 66.3513C212.799 69.4325 213.47 72.6018 213.986 75.8138C214.444 78.6824 214.773 81.5634 215.087 84.451C215.556 88.7783 215.964 93.1102 216.339 97.4453C216.53 99.6556 216.756 101.862 216.756 104.066Z" fill="black"/>
<path d="M211.974 61.9735C212.002 62.1533 211.957 62.3123 211.769 62.3344C211.544 62.3612 211.481 62.1595 211.404 61.9908C210.923 60.9277 210.46 59.8565 209.95 58.8072C207.986 54.7668 205.994 50.7388 204.04 46.6919C203.602 45.7861 203.157 44.8742 202.929 43.8817C202.9 43.7589 202.792 43.6391 202.801 43.5242C202.823 43.2249 202.62 42.798 202.953 42.6593C203.329 42.5033 203.501 42.9191 203.695 43.1838C206.722 47.3078 208.71 51.9392 210.328 56.7516C210.835 58.2608 211.325 59.7762 211.816 61.29C211.887 61.5106 211.922 61.7437 211.974 61.9705V61.9735Z" fill="black"/>
<path d="M207.946 65.8157C205.703 58.8529 203.327 51.9343 200.575 45.1481C200.421 44.7685 200.26 44.3872 200.15 43.9936C200.092 43.787 199.991 43.472 200.241 43.3604C200.548 43.2233 200.693 43.4893 200.797 43.7524C201.035 44.3542 201.289 44.9496 201.531 45.5498C204.184 52.1406 206.152 58.9475 207.948 65.8157H207.946Z" fill="black"/>
<path d="M196.033 66.9813C195.702 68.985 195.393 71.1115 194.273 73.0019C194.145 73.2176 194.07 73.6556 193.695 73.5124C193.273 73.3501 193.61 73.0114 193.665 72.7767C194.027 71.2596 194.133 69.7112 194.308 68.169C194.38 67.5326 194.19 66.7388 195.045 66.3559C195.283 66.2489 195.445 65.8895 195.766 66.025C196.14 66.1826 195.99 66.5622 196.033 66.9797V66.9813Z" fill="black"/>
<path d="M204.989 80.7413C205.018 81.4691 204.602 81.7776 204.233 82.0928C203.863 82.4078 203.54 82.0788 203.245 81.9163C202.548 81.5272 201.99 79.7268 202.34 79.0147C202.508 78.6729 202.749 78.3074 203.091 78.8871C203.173 79.0258 203.264 79.0414 203.392 79.0666C204.355 79.2572 204.975 79.9726 204.988 80.7429L204.989 80.7413Z" fill="black"/>
<path d="M215.183 113.968C214.2 114.907 213.029 115.534 211.824 116.096C210.09 116.905 208.341 117.673 206.435 118.006C206.196 118.048 205.919 118.289 205.8 117.908C205.692 117.558 206.026 117.479 206.264 117.399C208.036 116.796 209.816 116.215 211.585 115.602C212.831 115.17 213.968 114.496 215.181 113.968H215.183Z" fill="black"/>
<path d="M183.112 85.4181C183.109 84.9047 183.325 84.6667 183.875 84.7265C185.07 84.859 185.842 85.393 186.009 86.253C186.135 86.9051 185.272 87.6865 184.643 87.4897C183.654 87.1793 183.107 86.4404 183.114 85.4197L183.112 85.4181Z" fill="black"/>
<path d="M225.197 111.517C224.984 111.512 224.841 111.454 224.742 111.322C224.612 111.147 224.742 111.034 224.855 110.928C225.672 110.164 226.49 109.398 227.312 108.639C227.506 108.46 227.731 108.425 227.944 108.606C228.201 108.825 228.213 109.061 228.029 109.359C227.542 110.147 226.731 110.523 226.011 111.016C225.737 111.204 225.444 111.366 225.198 111.517H225.197Z" fill="black"/>
<path d="M111.527 65.9796C112.169 65.4078 114.082 65.7038 115.139 66.5057C114.553 66.6442 112.343 66.337 111.527 65.9796Z" fill="black"/>
<path d="M113.828 62.9738C114.313 62.9533 114.719 63.2212 115.16 63.3472C115.291 63.3851 115.557 63.3867 115.458 63.6671C115.392 63.8561 115.259 63.9664 115.047 63.9458C114.509 63.8923 113.971 63.8561 113.438 63.7758C113.194 63.7395 112.837 63.67 112.838 63.3959C112.838 63.122 113.21 63.0969 113.443 63.0133C113.561 62.9709 113.698 62.9849 113.828 62.9738Z" fill="black"/>
<path d="M111.974 68.1122C112.046 68.0871 112.114 68.0479 112.185 68.043C112.591 68.0179 112.958 68.1139 113.174 68.4889C113.229 68.5835 113.097 68.6386 112.988 68.6684C112.566 68.7882 112.249 68.6227 111.972 68.1122H111.974Z" fill="black"/>
<path d="M116.442 94.309C115.921 94.3909 115.511 93.8428 114.949 94.134C115.321 93.5781 115.94 93.6695 116.442 94.309Z" fill="black"/>
<path d="M60.3755 229.996C58.0049 230.074 56.009 228.865 54.1251 227.4C53.706 227.074 53.5862 226.621 53.9045 226.177C54.1943 225.774 54.6039 225.933 54.9519 226.125C55.9885 226.702 57.014 227.299 58.0473 227.883C59.2256 228.549 60.5018 228.923 61.8358 229.11C62.058 229.142 62.3351 229.065 62.3589 229.419C62.3808 229.74 62.1272 229.832 61.9069 229.852C61.4421 229.896 60.993 230.092 60.3771 229.996H60.3755Z" fill="black"/>
<path d="M189.661 283.383C189.607 283.705 189.38 283.646 189.062 283.494C188.232 283.105 187.517 282.542 186.833 281.958C185.749 281.031 184.527 280.263 183.67 279.068C183.265 278.503 183.487 278.13 183.832 277.773C184.25 277.343 184.637 277.603 184.962 277.962C186.45 279.606 187.936 281.25 189.424 282.891C189.527 283.005 189.69 283.07 189.661 283.383Z" fill="black"/>
<path d="M177.613 52.9299C177.659 53.4387 177.542 53.9335 177.271 54.3888C177.195 54.5164 177.106 54.6897 176.92 54.6313C176.732 54.5729 176.737 54.3431 176.787 54.2374C177.298 53.171 176.64 52.4308 176.116 51.6305C175.83 51.1925 175.357 50.5292 175.871 50.1999C176.409 49.8549 176.761 50.6112 177.087 51.0192C177.525 51.5658 177.75 52.1912 177.611 52.9285L177.613 52.9299Z" fill="black"/>
<path d="M170.927 56.2159C171.619 53.7034 170.853 51.5988 169.255 49.7195C169.787 49.5873 170.233 49.7746 170.737 50.5733C171.888 52.3991 171.89 54.2942 170.927 56.2159Z" fill="black"/>
<path d="M173.163 53.108C172.993 52.5 173.432 52.1377 174.072 51.8981C174.584 51.7062 174.877 51.9879 174.897 52.4181C174.927 53.078 174.669 53.702 174.198 54.1665C173.7 54.6565 173.342 54.5099 173.205 53.8199C173.171 53.642 173.182 53.4547 173.164 53.1097L173.163 53.108Z" fill="black"/>
<path d="M174.448 34.3592C174.51 33.5243 175.278 33.099 176.038 32.7067C176.71 32.3604 177.463 32.439 178.191 32.4769C178.451 32.491 178.72 32.6342 178.829 32.8784C178.964 33.1826 178.695 33.3699 178.495 33.5211C177.611 34.1937 176.729 34.8743 175.811 35.4983C175.293 35.8495 174.458 35.2349 174.447 34.3592H174.448Z" fill="black"/>
<path d="M189.489 29.3027C190.157 29.3279 190.659 29.2332 191.11 29.5169C191.343 29.6634 191.647 29.7359 191.584 30.1282C191.529 30.4699 191.409 30.6511 191.025 30.7471C189.823 31.048 188.622 31.311 187.379 31.3632C187.033 31.3773 186.619 31.4625 186.543 31.0307C186.472 30.6321 186.596 30.1941 187.001 29.9627C187.825 29.4885 188.712 29.2443 189.49 29.3027H189.489Z" fill="black"/>
<path d="M186.677 38.5729C186.924 37.8594 187.219 37.1759 186.808 36.4416C186.203 36.5395 185.812 37.0751 185.214 37.2089C184.968 37.2641 184.749 37.3287 184.591 37.127C184.416 36.9034 184.579 36.6766 184.705 36.4827C185.086 35.8968 186.691 35.2855 187.351 35.4618C187.947 35.621 188.276 36.3126 187.991 36.875C187.668 37.5115 187.288 38.1147 186.68 38.5746L186.677 38.5729Z" fill="black"/>
<path d="M179.643 37.6626C179.643 37.8091 179.648 37.9903 179.643 38.1714C179.634 38.4724 179.429 38.647 179.183 38.7354C178.912 38.833 178.678 38.7116 178.506 38.4818C178.06 37.8832 177.983 37.2011 178.104 36.497C178.14 36.2905 178.303 35.9944 178.556 36.0512C178.884 36.1253 179.248 36.2023 179.471 36.5189C179.712 36.8609 179.747 37.2311 179.643 37.661V37.6626Z" fill="black"/>
<path d="M190.681 34.9405C190.664 35.4729 190.566 35.955 189.882 35.9393C189.227 35.9249 188.578 35.1027 188.638 34.3262C188.657 34.0756 188.685 33.7371 189.108 33.756C190.168 33.8031 190.702 34.1986 190.681 34.9389V34.9405Z" fill="black"/>
<path d="M189.525 42.3443C189.487 42.9099 188.769 43.7557 188.388 43.6061C187.921 43.4234 187.167 43.4942 187.206 42.6593C187.233 42.1096 187.945 41.7425 188.791 41.7363C189.27 41.733 189.41 41.9993 189.525 42.3443Z" fill="black"/>
<path d="M174.407 41.8087C174.384 41.8417 174.355 41.9207 174.3 41.9536C174.149 42.0434 174.075 41.8969 173.984 41.8212C173.519 41.4321 172.952 41.2872 172.393 41.1031C172.197 41.0384 171.791 41.1834 171.841 40.7973C171.893 40.416 172.073 40.0524 172.563 40.0178C173.259 39.9672 174.436 41.0809 174.406 41.8087H174.407Z" fill="black"/>
</g>
<defs>
<clipPath id="clip0_23_1232">
<rect width="292" height="292" fill="white"/>
</clipPath>
</defs>
</svg>
