<svg width="430" height="933" viewBox="0 0 430 933" fill="none" xmlns="http://www.w3.org/2000/svg">
<g clip-path="url(#clip0_2600_62179)">
<rect width="430" height="933" rx="25" fill="#FFFCEF"/>
<path d="M49.3502 593.748C52.8576 585.795 64.1425 585.795 67.6498 593.748L76.3254 613.421C78.6203 618.625 84.7876 620.87 89.8907 618.359L109.182 608.865C116.981 605.027 125.626 612.281 123.2 620.628L117.201 641.275C115.614 646.736 118.895 652.42 124.419 653.776L145.299 658.904C153.741 660.977 155.7 672.09 148.477 676.926L130.609 688.886C125.883 692.049 124.743 698.513 128.103 703.102L140.802 720.452C145.936 727.466 140.294 737.239 131.652 736.3L110.277 733.977C104.623 733.362 99.5954 737.581 99.2187 743.256L97.7949 764.71C97.2193 773.383 86.6149 777.243 80.5989 770.968L65.718 755.449C61.7816 751.344 55.2184 751.344 51.282 755.449L36.4011 770.968C30.3851 777.243 19.7807 773.383 19.2051 764.71L17.7813 743.256C17.4046 737.581 12.377 733.362 6.72272 733.977L-14.6523 736.3C-23.2938 737.239 -28.9363 727.466 -23.8021 720.452L-11.1027 703.102C-7.74331 698.513 -8.88299 692.049 -13.6094 688.886L-31.477 676.926C-38.7005 672.09 -36.7409 660.977 -28.2993 658.904L-7.41873 653.776C-1.89528 652.42 1.38629 646.736 -0.200777 641.275L-6.20043 620.628C-8.62596 612.28 0.0187811 605.027 7.8179 608.865L27.1093 618.359C32.2124 620.87 38.3797 618.625 40.6746 613.421L49.3502 593.748Z" fill="#FF3D00"/>
<path d="M347 19.6998C349.612 19.7 352.124 20.7094 354.017 22.5194C354.159 22.6592 354.387 22.6574 354.527 22.5155L355.89 21.1324C355.961 21.0604 356.001 20.9629 356 20.8614C355.999 20.7599 355.959 20.6629 355.887 20.5917C350.919 15.8028 343.081 15.8028 338.113 20.5917C338.042 20.6628 338.001 20.7599 338 20.8613C337.999 20.9628 338.039 21.0603 338.11 21.1324L339.473 22.5155C339.613 22.6576 339.841 22.6594 339.984 22.5194C341.877 20.7092 344.389 19.6998 347 19.6998ZM347 24.1997C348.435 24.1996 349.819 24.7361 350.883 25.7049C351.027 25.8424 351.253 25.8395 351.394 25.6982L352.754 24.3151C352.826 24.2426 352.866 24.1441 352.865 24.0419C352.864 23.9396 352.822 23.842 352.749 23.7709C349.51 20.7403 344.494 20.7403 341.255 23.7709C341.182 23.842 341.14 23.9396 341.139 24.0419C341.138 24.1442 341.178 24.2427 341.25 24.3151L342.61 25.6982C342.75 25.8395 342.977 25.8424 343.121 25.7049C344.184 24.7368 345.567 24.2003 347 24.1997ZM349.616 27.5006C349.689 27.4288 349.729 27.3299 349.727 27.2273C349.725 27.1248 349.68 27.0276 349.605 26.9588C348.101 25.6798 345.9 25.6798 344.396 26.9588C344.32 27.0276 344.276 27.1247 344.274 27.2272C344.272 27.3298 344.312 27.4287 344.385 27.5006L346.739 29.8902C346.808 29.9605 346.902 30 347 30C347.099 30 347.193 29.9605 347.262 29.8902L349.616 27.5006Z" fill="white"/>
<path d="M362.923 20.2049C362.923 19.4968 363.497 18.9229 364.205 18.9229H381.833C382.541 18.9229 383.115 19.4968 383.115 20.2049V26.2946C383.115 27.0027 382.541 27.5767 381.833 27.5767H364.205C363.497 27.5767 362.923 27.0027 362.923 26.2946V20.2049Z" fill="white"/>
<path opacity="0.4" fill-rule="evenodd" clip-rule="evenodd" d="M364.205 17.9615H381.833C383.072 17.9615 384.077 18.966 384.077 20.2051V26.2949C384.077 27.534 383.072 28.5385 381.833 28.5385H364.205C362.966 28.5385 361.962 27.534 361.962 26.2949V20.2051C361.962 18.966 362.966 17.9615 364.205 17.9615ZM361 20.2051C361 18.435 362.435 17 364.205 17H381.833C383.603 17 385.038 18.435 385.038 20.2051V26.2949C385.038 28.065 383.603 29.5 381.833 29.5H364.205C362.435 29.5 361 28.065 361 26.2949V20.2051ZM387.603 23.25C387.603 24.2351 386.919 25.0605 386 25.2776V21.2224C386.919 21.4395 387.603 22.2649 387.603 23.25Z" fill="white"/>
<path fill-rule="evenodd" clip-rule="evenodd" d="M329.85 18C329.298 18 328.85 18.4477 328.85 19V28C328.85 28.5523 329.298 29 329.85 29H331.15C331.702 29 332.15 28.5523 332.15 28V19C332.15 18.4477 331.702 18 331.15 18H329.85ZM323.9 21.1999C323.9 20.6476 324.348 20.1999 324.9 20.1999H326.2C326.752 20.1999 327.2 20.6476 327.2 21.1999V27.9999C327.2 28.5522 326.752 28.9999 326.2 28.9999H324.9C324.348 28.9999 323.9 28.5522 323.9 27.9999V21.1999ZM319.95 22.4C319.398 22.4 318.95 22.8478 318.95 23.4V28C318.95 28.5523 319.398 29 319.95 29H321.25C321.802 29 322.25 28.5523 322.25 28V23.4C322.25 22.8478 321.802 22.4 321.25 22.4H319.95ZM315.1 29C314.492 29 314 28.5075 314 27.9V25.15C314 24.5425 314.492 24.05 315.1 24.05H316.2C316.808 24.05 317.3 24.5425 317.3 25.15V27.9C317.3 28.5075 316.808 29 316.2 29H315.1Z" fill="white"/>
<path d="M41.9753 30V18.3L43.0013 19.362H39.3113V17.4H44.3153V30H41.9753ZM50.7027 17.22C51.8547 17.22 52.8327 17.466 53.6367 17.958C54.4527 18.438 55.0767 19.14 55.5087 20.064C55.9407 20.988 56.1567 22.128 56.1567 23.484C56.1567 24.924 55.8927 26.142 55.3647 27.138C54.8487 28.134 54.1287 28.89 53.2047 29.406C52.2807 29.922 51.2067 30.18 49.9827 30.18C49.3467 30.18 48.7407 30.114 48.1647 29.982C47.5887 29.85 47.0907 29.646 46.6707 29.37L47.5347 27.606C47.8827 27.834 48.2607 27.996 48.6687 28.092C49.0767 28.176 49.4967 28.218 49.9287 28.218C51.1167 28.218 52.0587 27.852 52.7547 27.12C53.4507 26.388 53.7987 25.308 53.7987 23.88C53.7987 23.652 53.7927 23.388 53.7807 23.088C53.7687 22.776 53.7267 22.464 53.6547 22.152L54.3747 22.944C54.1707 23.436 53.8767 23.85 53.4927 24.186C53.1087 24.51 52.6587 24.756 52.1427 24.924C51.6267 25.092 51.0567 25.176 50.4327 25.176C49.6167 25.176 48.8787 25.02 48.2187 24.708C47.5707 24.384 47.0547 23.934 46.6707 23.358C46.2867 22.77 46.0947 22.086 46.0947 21.306C46.0947 20.466 46.2987 19.746 46.7067 19.146C47.1147 18.534 47.6667 18.06 48.3627 17.724C49.0707 17.388 49.8507 17.22 50.7027 17.22ZM50.8287 19.056C50.3487 19.056 49.9227 19.146 49.5507 19.326C49.1787 19.494 48.8847 19.74 48.6687 20.064C48.4647 20.376 48.3627 20.754 48.3627 21.198C48.3627 21.858 48.5907 22.38 49.0467 22.764C49.5027 23.148 50.1147 23.34 50.8827 23.34C51.3867 23.34 51.8307 23.25 52.2147 23.07C52.5987 22.878 52.8987 22.62 53.1147 22.296C53.3307 21.96 53.4387 21.588 53.4387 21.18C53.4387 20.784 53.3367 20.43 53.1327 20.118C52.9287 19.794 52.6347 19.536 52.2507 19.344C51.8667 19.152 51.3927 19.056 50.8287 19.056ZM58.7839 23.268C58.3759 23.268 58.0279 23.13 57.7399 22.854C57.4519 22.566 57.3079 22.206 57.3079 21.774C57.3079 21.318 57.4519 20.958 57.7399 20.694C58.0279 20.418 58.3759 20.28 58.7839 20.28C59.1919 20.28 59.5399 20.418 59.8279 20.694C60.1159 20.958 60.2599 21.318 60.2599 21.774C60.2599 22.206 60.1159 22.566 59.8279 22.854C59.5399 23.13 59.1919 23.268 58.7839 23.268ZM58.7839 30.126C58.3759 30.126 58.0279 29.988 57.7399 29.712C57.4519 29.424 57.3079 29.064 57.3079 28.632C57.3079 28.176 57.4519 27.816 57.7399 27.552C58.0279 27.276 58.3759 27.138 58.7839 27.138C59.1919 27.138 59.5399 27.276 59.8279 27.552C60.1159 27.816 60.2599 28.176 60.2599 28.632C60.2599 29.064 60.1159 29.424 59.8279 29.712C59.5399 29.988 59.1919 30.126 58.7839 30.126ZM66.6704 30.18C65.6744 30.18 64.7744 29.928 63.9704 29.424C63.1784 28.92 62.5544 28.188 62.0984 27.228C61.6424 26.256 61.4144 25.08 61.4144 23.7C61.4144 22.32 61.6424 21.15 62.0984 20.19C62.5544 19.218 63.1784 18.48 63.9704 17.976C64.7744 17.472 65.6744 17.22 66.6704 17.22C67.6784 17.22 68.5784 17.472 69.3704 17.976C70.1624 18.48 70.7864 19.218 71.2424 20.19C71.7104 21.15 71.9444 22.32 71.9444 23.7C71.9444 25.08 71.7104 26.256 71.2424 27.228C70.7864 28.188 70.1624 28.92 69.3704 29.424C68.5784 29.928 67.6784 30.18 66.6704 30.18ZM66.6704 28.146C67.2584 28.146 67.7684 27.99 68.2004 27.678C68.6324 27.354 68.9684 26.862 69.2084 26.202C69.4604 25.542 69.5864 24.708 69.5864 23.7C69.5864 22.68 69.4604 21.846 69.2084 21.198C68.9684 20.538 68.6324 20.052 68.2004 19.74C67.7684 19.416 67.2584 19.254 66.6704 19.254C66.1064 19.254 65.6024 19.416 65.1584 19.74C64.7264 20.052 64.3844 20.538 64.1324 21.198C63.8924 21.846 63.7724 22.68 63.7724 23.7C63.7724 24.708 63.8924 25.542 64.1324 26.202C64.3844 26.862 64.7264 27.354 65.1584 27.678C65.6024 27.99 66.1064 28.146 66.6704 28.146ZM72.9862 30V28.434L77.9902 23.682C78.4102 23.286 78.7222 22.938 78.9262 22.638C79.1302 22.338 79.2622 22.062 79.3222 21.81C79.3942 21.546 79.4302 21.3 79.4302 21.072C79.4302 20.496 79.2322 20.052 78.8362 19.74C78.4402 19.416 77.8582 19.254 77.0902 19.254C76.4782 19.254 75.9202 19.362 75.4162 19.578C74.9242 19.794 74.4982 20.124 74.1382 20.568L72.5002 19.308C72.9922 18.648 73.6522 18.138 74.4802 17.778C75.3202 17.406 76.2562 17.22 77.2882 17.22C78.2002 17.22 78.9922 17.37 79.6642 17.67C80.3482 17.958 80.8702 18.372 81.2302 18.912C81.6022 19.452 81.7882 20.094 81.7882 20.838C81.7882 21.246 81.7342 21.654 81.6262 22.062C81.5182 22.458 81.3142 22.878 81.0142 23.322C80.7142 23.766 80.2762 24.264 79.7002 24.816L75.3982 28.902L74.9122 28.02H82.2742V30H72.9862Z" fill="white"/>
<g filter="url(#filter0_f_2600_62179)">
<rect x="416" y="119" width="118" height="27" fill="#FFFCEF"/>
</g>
</g>
<defs>
<filter id="filter0_f_2600_62179" x="400" y="103" width="150" height="59" filterUnits="userSpaceOnUse" color-interpolation-filters="sRGB">
<feFlood flood-opacity="0" result="BackgroundImageFix"/>
<feBlend mode="normal" in="SourceGraphic" in2="BackgroundImageFix" result="shape"/>
<feGaussianBlur stdDeviation="8" result="effect1_foregroundBlur_2600_62179"/>
</filter>
<clipPath id="clip0_2600_62179">
<rect width="430" height="933" rx="25" fill="white"/>
</clipPath>
</defs>
</svg>
