<svg width="31" height="31" viewBox="0 0 31 31" fill="none" xmlns="http://www.w3.org/2000/svg">
<path d="M25.7042 16.353C25.4971 16.1172 25.3829 15.8142 25.3829 15.5005C25.3829 15.1867 25.4971 14.8837 25.7042 14.648L27.3575 12.788C27.5397 12.5847 27.6528 12.329 27.6807 12.0575C27.7085 11.786 27.6496 11.5127 27.5125 11.2767L24.9292 6.80754C24.7934 6.57184 24.5867 6.385 24.3385 6.27367C24.0904 6.16234 23.8134 6.1322 23.5471 6.18754L21.1187 6.67837C20.8098 6.74222 20.4881 6.69076 20.2144 6.5337C19.9408 6.37665 19.7341 6.12487 19.6333 5.82587L18.8454 3.46212C18.7588 3.20557 18.5937 2.98274 18.3735 2.82513C18.1533 2.66751 17.8891 2.58309 17.6183 2.58379H12.4517C12.17 2.56909 11.8913 2.64698 11.658 2.80559C11.4248 2.96419 11.2499 3.19477 11.16 3.46212L10.4367 5.82587C10.3359 6.12487 10.1292 6.37665 9.85556 6.5337C9.58191 6.69076 9.26024 6.74222 8.95125 6.67837L6.45833 6.18754C6.20588 6.15186 5.94851 6.1917 5.71865 6.30203C5.4888 6.41236 5.29674 6.58825 5.16666 6.80754L2.58333 11.2767C2.44275 11.51 2.37954 11.7819 2.40273 12.0533C2.42593 12.3247 2.53435 12.5819 2.7125 12.788L4.35291 14.648C4.55999 14.8837 4.6742 15.1867 4.6742 15.5005C4.6742 15.8142 4.55999 16.1172 4.35291 16.353L2.7125 18.213C2.53435 18.4191 2.42593 18.6762 2.40273 18.9476C2.37954 19.2191 2.44275 19.4909 2.58333 19.7242L5.16666 24.1934C5.30242 24.4291 5.50911 24.6159 5.75728 24.7272C6.00545 24.8386 6.28244 24.8687 6.54875 24.8134L8.97708 24.3225C9.28607 24.2587 9.60774 24.3102 9.88139 24.4672C10.155 24.6243 10.3617 24.876 10.4625 25.175L11.2504 27.5388C11.3403 27.8061 11.5152 28.0367 11.7484 28.1953C11.9817 28.3539 12.2604 28.4318 12.5421 28.4171H17.7087C17.9795 28.4178 18.2437 28.3334 18.4639 28.1758C18.6841 28.0182 18.8492 27.7953 18.9358 27.5388L19.7237 25.175C19.8245 24.876 20.0312 24.6243 20.3049 24.4672C20.5785 24.3102 20.9002 24.2587 21.2092 24.3225L23.6375 24.8134C23.9038 24.8687 24.1808 24.8386 24.429 24.7272C24.6771 24.6159 24.8838 24.4291 25.0196 24.1934L27.6029 19.7242C27.7401 19.4882 27.7989 19.2149 27.7711 18.9434C27.7432 18.6719 27.6301 18.4162 27.4479 18.213L25.7042 16.353ZM23.7796 18.0838L24.8129 19.2463L23.1596 22.1138L21.6354 21.8038C20.7051 21.6136 19.7374 21.7717 18.9159 22.2479C18.0945 22.7241 17.4764 23.4853 17.1792 24.3871L16.6883 25.8338H13.3817L12.9167 24.3613C12.6194 23.4595 12.0014 22.6982 11.1799 22.222C10.3584 21.7458 9.3907 21.5878 8.46041 21.778L6.93625 22.088L5.25708 19.2334L6.29041 18.0709C6.92586 17.3604 7.27716 16.4407 7.27716 15.4875C7.27716 14.5344 6.92586 13.6147 6.29041 12.9042L5.25708 11.7417L6.91041 8.90004L8.43458 9.21004C9.36487 9.4002 10.3326 9.24218 11.1541 8.76596C11.9755 8.28975 12.5936 7.52849 12.8908 6.6267L13.3817 5.16712H16.6883L17.1792 6.63962C17.4764 7.54141 18.0945 8.30266 18.9159 8.77888C19.7374 9.25509 20.7051 9.41312 21.6354 9.22295L23.1596 8.91296L24.8129 11.7805L23.7796 12.943C23.1513 13.6518 22.8043 14.5662 22.8043 15.5134C22.8043 16.4606 23.1513 17.375 23.7796 18.0838ZM15.035 10.3338C14.0131 10.3338 13.0142 10.6368 12.1646 11.2045C11.3149 11.7722 10.6527 12.5792 10.2616 13.5233C9.87057 14.4673 9.76825 15.5062 9.96761 16.5084C10.167 17.5107 10.659 18.4313 11.3816 19.1538C12.1042 19.8764 13.0248 20.3685 14.027 20.5678C15.0293 20.7672 16.0681 20.6649 17.0122 20.2738C17.9563 19.8828 18.7632 19.2206 19.3309 18.3709C19.8986 17.5212 20.2017 16.5223 20.2017 15.5005C20.2017 14.1302 19.6573 12.816 18.6884 11.8471C17.7194 10.8781 16.4053 10.3338 15.035 10.3338ZM15.035 18.0838C14.5241 18.0838 14.0246 17.9323 13.5998 17.6484C13.1749 17.3646 12.8438 16.9611 12.6483 16.4891C12.4528 16.017 12.4016 15.4976 12.5013 14.9965C12.601 14.4954 12.847 14.035 13.2083 13.6738C13.5696 13.3125 14.0299 13.0664 14.531 12.9668C15.0321 12.8671 15.5516 12.9182 16.0236 13.1138C16.4956 13.3093 16.8991 13.6404 17.183 14.0652C17.4668 14.4901 17.6183 14.9895 17.6183 15.5005C17.6183 16.1856 17.3462 16.8427 16.8617 17.3271C16.3772 17.8116 15.7201 18.0838 15.035 18.0838Z" fill="black"/>
</svg>
