<svg width="153" height="188" viewBox="0 0 153 188" fill="none" xmlns="http://www.w3.org/2000/svg">
<path d="M49.3502 6.74832C52.8576 -1.20505 64.1425 -1.20503 67.6498 6.74833L76.3254 26.4213C78.6203 31.6253 84.7876 33.87 89.8907 31.3586L109.182 21.8648C116.981 18.0267 125.626 25.2805 123.2 33.6276L117.201 54.2745C115.614 59.7362 118.895 65.42 124.419 66.7764L145.299 71.904C153.741 73.977 155.7 85.0904 148.477 89.9256L130.609 101.886C125.883 105.049 124.743 111.513 128.103 116.102L140.802 133.452C145.936 140.466 140.294 150.239 131.652 149.3L110.277 146.977C104.623 146.362 99.5954 150.581 99.2187 156.256L97.7949 177.71C97.2193 186.383 86.6149 190.243 80.5989 183.968L65.718 168.449C61.7816 164.344 55.2184 164.344 51.282 168.449L36.4011 183.968C30.3851 190.243 19.7807 186.383 19.2051 177.71L17.7813 156.256C17.4046 150.581 12.377 146.362 6.72272 146.977L-14.6523 149.3C-23.2938 150.239 -28.9363 140.466 -23.8021 133.452L-11.1027 116.102C-7.74331 111.513 -8.88299 105.049 -13.6094 101.886L-31.477 89.9256C-38.7005 85.0904 -36.7409 73.977 -28.2993 71.904L-7.41873 66.7764C-1.89528 65.42 1.38629 59.7361 -0.200775 54.2745L-6.20043 33.6276C-8.62596 25.2805 0.0187798 18.0267 7.8179 21.8648L27.1093 31.3586C32.2124 33.87 38.3797 31.6253 40.6746 26.4213L49.3502 6.74832Z" fill="#FF3D00"/>
</svg>
